<mxfile host="Electron" modified="2024-02-01T15:09:20.923Z" agent="Mozilla/5.0 (Windows NT 10.0; Win64; x64) AppleWebKit/537.36 (KHTML, like Gecko) draw.io/22.1.16 Chrome/120.0.6099.109 Electron/28.1.0 Safari/537.36" etag="IbxtUP2636cxaVibGF8P" version="22.1.16" type="device">
  <diagram name="Page-1" id="ifhRuX3-m-unaH3HdpAc">
    <mxGraphModel dx="2049" dy="1206" grid="1" gridSize="10" guides="1" tooltips="1" connect="1" arrows="1" fold="1" page="1" pageScale="1" pageWidth="827" pageHeight="1169" math="0" shadow="0">
      <root>
        <mxCell id="0" />
        <mxCell id="1" parent="0" />
        <mxCell id="4KITr1yewuIi7JzNDFw7-1" value="" style="shape=image;verticalLabelPosition=bottom;labelBackgroundColor=default;verticalAlign=top;aspect=fixed;imageAspect=0;image=data:image/png,iVBORw0KGgoAAAANSUhEUgAABM8AAAKgCAYAAACMZVp7AAAgAElEQVR4Aeydy8st1Zn/Tbwk8XKObcS2vaHgLfEowUs0UZPYAYmcaBwclLYxLULTBG0joUHpQRIQziRIIBBoIiGjjsOA0tPOH9ANGWeUUY9/0P/A/vHZ9vec513vWlWrqlbVrr33d0G9tXfVujzrsy5Vz/ddVfuKjYMJmIAJmIAJmIAJmIAJmIAJmIAJmIAJmIAJmECWwBXZoz5oAiZgAiZgAiZgAiZgAiZgAiZgAiZgAiZgAiawsXjmTmACJmACJmACJmACJmACJmACJmACJmACJmACBQIWzwpgfNgETMAETMAETMAETMAETMAETMAETMAETMAELJ65D5iACZiACZiACZiACZiACZiACZiACZiACZhAgYDFswIYHzYBEzABEzABEzABEzABEzABEzABEzABEzABi2fuAyZgAiZgAiZgAiZgAiZgAiZgAiZgAiZgAiZQIGDxrADGh03ABEzABEzABEzABEzABEzABEzABEzABEzA4pn7gAmYgAmYgAmYgAmYgAmYgAmYgAmYgAmYgAkUCFg8K4DxYRMwARMwARMwARMwARMwARMwARMwARMwAROweOY+YAImYAImYAImYAImYAImYAImYAImYAImYAIFAhbPCmB82ARMwARMwARMwARMwARMwARMwARMwARMwAQsnrkPmIAJmIAJmIAJmIAJmIAJmIAJmIAJmIAJmECBgMWzAhgfNgETMAETMAETMAETMAETMAETMAETMAETMAGLZ+4DJmACJmACJmACJmACJmACJmACJmACJmACJlAgYPGsAMaHTcAETMAETMAETMAETMAETMAETMAETMAETMDimfuACZiACZiACZiACZiACZiACZiACZiACZiACRQIWDwrgPFhEzABEzABEzABEzABEzABEzABEzABEzABE7B45j5gAiZgAiZgAiZgAiZgAiZgAiZgAiZgAiZgAgUCFs8KYHzYBEzABEzABEzABEzABEzABEzABEzABEzABCyeuQ+YgAmYgAmYgAmYgAmYgAmYgAmYgAmYgAmYQIGAxbMCGB82ARMwARMwARMwARMwARMwARMwARMwARMwAYtn7gMmYAImYAImYAImYAImYAImYAImYAImYAImUCBg8awAxodNwARMwARMwARMwARMwARMwARMwARMwARMwOKZ+4AJmIAJmIAJmIAJmIAJmIAJmIAJmIAJmIAJFAhYPCuA8WETMAETMAETMAETMAETMAETMAETMAETMAETsHjmPmACJmACJmACJmACJmACJmACJmACJmACJmACBQIWzwpgfNgETMAETMAETMAETMAETMAETMAETMAETMAELJ65D5iACZiACZiACZiACZiACZiACZiACZiACZhAgYDFswIYHzYBEzABEzABEzABEzABEzABEzABEzABEzABi2fuAyZgAiZgAiZgAiZgAiZgAiZgAiZgAiZgAiZQIGDxrADGh03ABEzABEzABEzABEzABEzABEzABEzABEzA4pn7gAmYgAmYgAmYgAmYgAmYgAmYgAmYgAmYgAkUCFg8K4DxYRMwARMwARMwARMwARMwARMwARMwARMwAROweOY+YAImYAImYAImYAImYAImYAImYAImYAImYAIFAhbPCmB82ARMwARMwARMwARMwARMwARMwARMwARMwAQsnrkPmIAJmIAJmIAJmIAJmIAJmIAJmIAJmIAJmECBgMWzAhgfNgETMAETMAETMAETMAETMAETMAETMAETMAGLZ+4DJmACJmACJmACJmACJmACJmACJmACJmACJlAgYPGsAMaHTcAETMAETMAETMAETMAETMAETMAETMAETMDimfuACZiACZiACZiACZiACZiACZiACZiACZiACRQIWDwrgPFhEzABEzABEzABEzABEzABEzABEzABEzABE7B45j5gAiZgAiZgAiZgAiZgAiZgAiZgAiZgAiZgAgUCFs8KYHzYBEzABEzABEzABEzABEzABEzABEzABEzABCyeuQ+YgAmYgAmYgAmYgAmYgAmYgAmYgAmYgAmYQIGAxbMCGB82ARMwARMwARMwARMwARMwARMwARMwARMwAYtn7gMmYAImYAImYAImYAImYAImYAImYAImYAImUCBg8awAxodNwARMwARMwARMwARMwARMwARMwARMwARMwOKZ+4AJmIAJmIAJmIAJmIAJmIAJmIAJmIAJmIAJFAhYPCuA8WETMAETMAETMAETMAETMAETMAETMAETMAETsHjmPmACJmACJmACJmACJmACJmACJmACJmACJmACBQIWzwpgfNgETMAETMAETMAETMAETMAETMAETMAETMAELJ65D5iACZiACZiACZiACZiACZiACTQl8Je//GXzhz/8YcPewQRMwAT2nYDFs31vQdtvAiZgAiZgAiZgAiZgAiZgAisj8Mc//nFzxRVXbN59992VWWZzTMAETGA4AYtnw5k5hQmYgAmYgAmYgAmYgAmYgAnsNYFf/vKXmxtvvHG7OmxKRf7f//t/23xefvnlE9lYPDuBw19MwAT2nIDFsz1vQJtvAiZgAiZgAiZgAiZgAiZgAkMJIJ6xMux3v/vd0KQn4iOekc93vvOdE8f9xQRMwAQOiYDFs0NqTdfFBEzABEzABEzABEzABEzABDabDaIWWynUiGek551lXflwbqx4RtquvHO2E9/vUcuR8TETMIE5CVg8m5Ou8zYBEzABEzABEzABEzABEzCBhQggLPGOMR7HRNDSlr537Gtf+9qGjfPE5fOf/vSnS1byyCXHcvlEsYt8lQ958RlRjqA8civbiBPTkZa8Yt7kwXflyWceDY02vfHGG5ds9gcTMAETmJOAxbM56TpvEzABEzABEzABEzABEzABE1iAgMQliVgIS2x33333ViSL7yTjs47zuCXfJZ6xl0DFOUStmE98PBNhjLSUSX58/vnPf76tbemdZ+RFfMogfswboSwG6kRc4nFO9lCGbCS9gwmYgAnMTcDi2dyEnb8JmIAJmIAJmIAJmIAJmIAJzExAYhVCE6KTAp8lNMXjpcc2JW5JBFM+7CW4xccmJXBFUY24sieuevvDH/5wSWiLeRCf9AhlUQxT3hLQov3xXDwe7fVnEzABE2hFwOJZK5LOxwRMwARMwARMwARMwARMwAR2RIBVYIhMUaySKYhWnI8iU0k8Ix4CVipukZeENa1S45hErBrxDGEPG7EnDcoHoU9Bx0iTs0eCW6yX0npvAiZgAi0JWDxrSdN5mYAJmIAJmIAJmIAJmIAJmMAOCCBoITKxsWqsT1AqiWc508lL7zAj/7HimVaulWyTGKb8iUd5pMsFxS/ll0vjYyZgAiYwhoDFszHUnMYETMAETMAETMAETMAETMAEVkYA0UwCmkQnVouxmiwNXeIZ4hV5IU7xrjE99qm8JW6RpwQu4saQe2xTNsV48TOr5ohDWoLyTt+FpjQWz0TCexMwgbkJWDybm7DzNwETMAETMAETMAETMAETMIGFCPB4I8KYhCUJXqkAVRLPOC6xjDSIbwhpCFp67HKMeCYhLD6WmSLRY6F6rFNpUtuVTnUknoMJmIAJzEnA4tmcdJ13UwJcTFmy7c0MdtEHuFl0OEngv//7vzcXL17cnD9/fvPqq69u/vEf/3HzySefnIzU4Bs38btoc5fpuUZ9wE5Zg4HsLEzABHZGACEK8QkRjWuqQk48Y75D3GKTgKX47CVujRHPSK+8Y57xs8Q5rzyLVPzZBExgDQQsnq2hFWxDFQEupiw5579p3sxgyT6gm86qjnoEkf785z9vXnrppc1jjz22ue222zbXXnvt5oYbbtjeEJ87d27z9NNPNxXR+G83j3Es2eYuy3OM+gCOnsWzI5jYXEUTOAACeswyCluqFvcyiGeIXwo58Yy0xEsfwVQaiVuxDObIXJrcY5tKn3uMNAp3mneVt1eeqQW8NwET2BUBi2e7Iu9yBxPgYpv7D9jgjJzABAYS4AaxdNM2MKu9j85qs2effXa7Eowb5dyGmPbEE09sfvOb3zSpL84Am4MJ7IKAxbNdUHeZJmACYwhwreS6zD1zGnQuXk9z4pnEKua+NCB46bo/VjyTiMfKXglklMNnrWqLvxYqe0r3YX5sM20lfzcBE5iLgMWzucg63+YELJ41R+oMKwlYPPsMFCvOvv3tb29XmOnmubS/8sorN1//+tebrEDjRj/e7Fc2m6OZQBMCFs+aYHQmJmACCxCQ0MS1GbGJaydCFJ85ls5nEs8QoPjMiluC4isPzvGZ9DqH0CUBTeVynjL1yGVu5Rn5a/UZNpFPtJH8yU9BeXM8Fyye5aj4mAmYwBwELJ7NQfUA8uRix4WSC6AupLuulsWzXbfA8ZZv8eyztue9ZvynuCSYpcevueaazTe/+c3N//zP/0zqPMxDbA4msAsCqbO5CxtcpgmYgAnUEuCeRYKSrsvMYxxL7+kRpuJ1XaIXx7UKTHmQnvPkr2NxhRifdZy0BMrj/h2fIg0cwy6l4TNxczZyXHmm+XB/wPkouKVx/N0ETMAEWhCweNaC4gHlwYWHC5AuZOy5WHJs149MrsGGA2pqV2UAAYtnm+0N85NPPnlibojzROnzvffeu/mXf/mXAbRPR7V4dpqJjyxHwOLZcqxdkgmYQFsCCFFsfcJSV7xSeu6NcvmWjpdqRv5D05Ty8nETMAETmJOAxbM56e5h3ul/qs6ePbu54447LjnMLJnOveBziapaPFuCssvIEbB4ttn+kuaXv/zlS3NBSSxLj/P4JqvPpgSLZ1PoOe1UAhbPphJ0ehMwARMwARMwARPYfwIWz/a/DZvVQO8liM7vM888k3WWdyGi9YlnesxUjnbfflci4JQGY/Uf9eK/dArUg2OHGOiTaX13UU+LZ5utAMZjmHF+qP3Mr2/yQwNjg8by2PRD08W5ZGjamvj8p546LTkHqU419u06ztrmNItnu+4RLt8ETMAETMAETMAEdk/A4tnu22A1Fvz617/esNIsbvfdd1+ns8x7EpZyAPvEs/jOhhqnnvz2Lej9E4g5CgiZ1PcQAwIDddv1I8PHLp7xQwHf+MY3OueCrjHHo5u///3vR3fRJcUz2jrWJQrVoyuQJCRPylhyDkIAYtuHsLY5zeLZPvQa22gCJmACJmACJmAC8xI4TI+7MTOtEuCRRlZicWN/iNutt956wmmMDmTN5/jS0MZNsM2uTzxjlRIiS9z0GCqiUzzO5yhAzWHvHHnmxDOO0R8PMVg8W0ersmpszPvONG/89V//9ebixYujK7OkeKY+h2CC/azYah24pjBm554zo90WzyKNYZ8tng3j5dgmYAImYAImYAImcIgELJ71tCoCS1zRFN//JcfQ+ytOiG44hHOs1ugTz3JNKbFpDgc4V97cx1SffRT+xrCRkIHYucsA70MVKGu4Ikw/9dRTJ8b5kHlvn8QzzffMGdQR4eQQgsWz8a1o8Ww8O6c0ARMwARMwARMwgUMhYPGspyW1ckmOosWzk0KZuOT2rUW0ucQzVoGwKSAU5B5FRRBExOEccdKQ5pOe53tXHAQa8ifvaE/MJyee5fJM05On8o75pZ9Jp/pLoMvln6bLfY955XilaVR/+Ep87RLPyJ86sSl+n60qo4txahffSXfM4hmPbX7961+fJJ59+OGHObRVx5ZaeUZfYi5TW0tIU/9KjY39Tf1dfT2eI53GFZ/Tc+n3UjnESwPHsFvzUi4OaYaIZ6k9cdyk5affY9ySLUrDeXGhDgrwpx1yQWmIL9a5eC2PWTxrSdN5mYAJmIAJmIAJmMB+Esjfne5nXZpbjROQikIWz+rFM7FD9Co5n0MabS7xTCtMcMQkTmG7HD9sp2zVJ+7jY1fE5xyOVi5wXg6s8iaehJmYL59j3spP9pFGIedocgzHH9t1PuafczpxRrEvxkM81jhAwKgN2J7mhT3RQVZesMjxpa4l8Yzjaf6USf7Yn4qfpTas7ZtqI9l8bPv//d//nbTy7LHHHpskdCwlnml8qa/Tp+hPHM8Fxgf9MPZhjhHivKJ+TF7EpT/ymf5HUL/V9+3B8Cd3PpZJXnHLzR3YyVYTcvWK+afjizw1RmI8PsMOW9NAfImTMQ15a85K03AuHfekzdmTpp3yXW08JQ+nNQETMAETMAETMAET2G8CFs862u8//uM/tu844z1n2q699toTTkq86T+0z5/73Oea1hXHMCeedDTBiVNj0ssZ7npsU04u+dOGOI44n3L4+K7jxKUOUbyJjpvKi8dUCTnA0RHHgZRTy3HSUYacSjniykP5k04h52hyjHzZkwdiGeUrfeoMck52UDfVkXorfwkKKre0l+BAOuWlY+RH3jGIu+LDQHYSP02j9sJe5a/44hb5046qAyxIz3nFZa+2jnbFzxIG4rFj+/zd7343K1yojUr7K6+8csOvbf7P//zPaGS0c23/G1sIfYA+RT0QtwiMG75zPBfoT5yjD2tP/yKon6p/E1fzSiqeEV9l5/qi8ohjh/ywTX1aY1b5xDGg/DlXE1Qv9mzkzaZxFhmRH/VRucSnbOqvMcb4iyGNn45J5RXTiCfnNO7ZYwtbWt+Ydupnysy1y9R8nd4ETMAETMAETMAETGB/CFg862grnAXdmHt/cmXDFB4XLlwYtQoFB5I2GRLk7OF4lYKcMuqU5o9owvGcwKL+gV0KOHDEp9w0yAGOq75wNHPlklaCT3QKVZ8a8Yx8KTN1+nJ2qKxS/cmrRrwQL/JLy80JEWKY4xsdY9lFnjiybJEBvJQXtkZmygfhIg1ikWuvGJeyUgEgnj+Gz5988snmkUceGTwnfvnLX86OhyHMaMOa/jckzzSu+g99IgYJQOqD8ZzGL3EkuOl8nFdif+R8TjzT2E7jxj6vMaX0uXGjMZjWQ+NG9nXtVS/2KlPxNWainTqWG2PKK87BNfEZxwoS23KcVV/ql7aB0k/dk3fKYWqeTm8CJmACJmACJmACJrBfBC7fne6X3YtYK2eKm3hv7RhIqIkiUk2D4nDlHNiutHJIo+OWxpeTS/5pwGHCSczZKqctpiN+zknV8SjA5NLH8tX/Yv6qD2kVxFPf2etYjpfEJJ2TqBXLiXmpzBrxIs075sNn5SWelMnYki1p/FS4UFvlnHTSKn507DlWcn5pF8rnfFeAd2y7rriHeo5HN1l9NmT1LavOvvGNb2z4tc4pgX5V0/+mlFHqi/Q1+gh9Nw0ShnK2qa/mxpXEr3iuNA41D8Q+3zUv5fLG7ty8lNZH31Wv3LjUGNcY09xWGmPpPNcXX/bDXEEsc5yJo3lFNildq32pbq3ydz4mYAImYAImYAImYALrJ3D57nT9ti5uoZwWbuK9tWEgUQeefYJF2uA4mjlnLo0Xv8upwvkqhT7HLKbD8cMZxA7lHR1g4up4dORyZXAeDqQnz3STMx1FG+VNXAUx1Xf2OpZbiSHnVyxlW3TOY146X3JcY1zqQp3IO60P3yVEkCdBYlfOTs4rvmxV/fU9lh3jiz1lYg88cvZwjH5InK5AvNgOXXEP+RwiGD8cgCgGs76NlWoXL16cjIS+V9P/xhYkQYf60Bf5rk3jMDdfSWSif6RB4yY3riQQpXOHxgNlK2hMSXDW8bgnPjYwLjRG0ryxP1eHmI8+q165cal6aYyJT1qe8mIfy8ZOOFNGKRCfOApiUJpXZNNcfQR7YpvILu9NwARMwARMwARMwASOh8Dlu9PjqXN1TblR73MOfb7fgY6MnnzyyRNMuxzCtKFwoEqiSRpX3+VISqzR8biX4yVnMJ7jM84eDjDiiZy6WKfUaVS/oWyFnDOqcmNeuc841AqqT3TWJZQpDnsdyzl8OJiUI5b6Xqq/6lPjmMr5z9UjHlN7RKc62q/Psk22yomO9Vdc9oqvusixj2WXPudYKW/Ks3j2GY3f/OY3WwHtmmuuOTGWI1fEtfvvv3/z93//9xtWrE0NtGtN/xtbTu1YVL9SOblxrXPKU31dx9mXxDOJxSqHPskYyfU9zg2Zl/rGWrSvpl6yUWMszncxLz5rXsDmmviav5SP7Il9LPc5J1Qqjyl72HXND1PydloTMAETMAETMAETMIH9IGDxrKOdJBrkbtJ9bJhoBq/Pf/7zp5xtiSIdzXDp1C7EM5xcHCfsx4HDgcf5Q0wpOcAYjLNIOgJxSZ+KbHKucTrhUNooT2EO8UwOe87Jp1ycZOyvES/k9JbqouNa0dLn0Ms20hGGimdiT9up7NJejHN7i2cnqfz+97/fPP7445s777zzxGOciGa84+yJJ57Y/OxnP2sinFHy3OKZxBn6F2Ms3dSv0zGsdOrPkZLGd25cleaO9LjySMce8Urzkvp8amvfWIu219RL4hnjKTe/xfwknnFM4llqXyk+x2UPZZbGL8ep+xwBdhbP5iDrPE3ABEzABEzABExgfwhYPOtoKzkFOAbe2jD49re/fYJlzuksNQnOFm0yJEhsyjmwykcOqpxBHWcv8Sa3oiF1dHPpyBPHl/6T2q7+lTrGygdnLXXYVJ/oJMqxVzr2Opam51xqj+pfsqPvfCxXTm6pXdM6yc5SfNo8slN7lNpT8dWWlEf6Lkc9xyjWic8Wz1Iim+2vZ3744YfbX9JESHvqqac23/zmN7erzf785z+fTjDhCH2z1D8nZLtNKrGpSyBRHPpS7C9d/V3jJtdXu+YOCU2UQ7/FrnR8aAwPmZfmEs80xrA7F9Lz+o49uaDzsFbQuI/zns6xJw3bXKGrb8xVpvM1ARMwARMwARMwARNYF4HLd6frsmsV1kjc4CbeWxsGZ8+evcSyS9DIdQDipwJULl48JrEp58AqnpxcCS46zp4yafuc06b+kauHnG3O4WDnnC85iSUnUg5yFA1Un2iPBKhot47lHErlK5Z9dkggiHbEsuJnsczFpRzZJTFATnFJBIAN/GWrmGNTGshf8WNbahWgyozpalbBEB/e2O5QJtDi8cxS7vSnXJ8qxR9ynHzpY7lxHPORqBXnEo2NXN/SWIjxlR/xS2VqTCh9zi6OkT6uSlXepT7N2CjNNUqrfU290jGGPV0cYj3EMs5jKlv1Jj8FyuJ7bp4gjuzN5ac8puzhlptLp+TptCZgAiZgAiZgAiZgAvtF4PLd6X7ZvYi1ctS5affWjsEzzzyzFSJyjlZXw+J8SUTpihfPSWzKObCKJ2ctOoM6J0c2ddpwUOUARqdQ6djrPH2n5PjLvlQMIn85u5GT4kcnUYJULFvHcg6fxILIUs5nrAtpVf+uOsRySaOxEnlyXLanZSh+bCPiE0/noq3i2hU/li3HGyaRJQyVV06EiPUirsWzSGTZz/TZ0hiaaonGSuxjuTw1FuJY1biJ/UppNa/EfqpzxKdvx7Ggc3EMESdnl2xhTMXQNS9pPonxS59r6hXHmOaUdIxpHqMecYxpTGJTnMtifNIowERjNfLkuDjHdlG6VnuLZ61IOh8TMAETMAETMAET2F8Cl+9O97cOs1mO08INvLd2DHBCcHZweoYGHM2cI9mVjwSb6HCl8eV8RWdQceTk0gdw3rBBzrby5hyf0zrJweV8dBCVN3vSKD/i4QDqO6xSm1RmzE/xY746ltpEHDm6kSXx5JzKDr5jg8qsFS9wgMmDjfTUiT3fsSu1SY604hOH+LHsaCt1j/krPvbK1hifOus46cRYNtFOfYEyKcdhNwToe7X9b4iF6kv0hbRfpvnEuUBiGX2JPqXvMY3mldzco7xy4hl5aCyyzwVs1RggTs28pDGVyy89VlOvdG5SmjjGZGOu7WJ86sD4Ij576sPnGLrmFeoW58SYrsXnmv7RohznYQImYAImYAImYAImsF4CJ+9O12vnTizDAecxw7jdcccdl5wWOQbe94trOEc4kX0OaldD41ClokhXfM7hcFFul2OFI9sVh7SIL9QBJwqnT3aQjuNsad34zvnUyczZTDzyVV7UNWez6hPLIn/Sx5A7pvPkS/w0f/JESIr1JA550cdr6hHLiMxwiHGgo92Ky55yYnxYcKzUNml8eBGXMrBV7RPLSBlTRm2dKM/iWaS57GfaNSfATLVC/au2H9CH4tihn/E916+VN30nDcQnXa6fEpc0XecVJx0zyo/6aC6RbeRXW8+x9aKMOI/xmTmrFNL4miM0z6XpYBrnqL55JU0/9rvFs7HknM4E5ifAHDfXNpf1c9mr+X4Ou23zyX42B2Py3EfOc7FwviawRgIWzzpahQksFcYsnvULZZEZzhMOUosL+hjxrKN5fer/CNA2OKs5J58oXYLU0hBxnrGVfS7QR+h/pfO5NDXHLJ7VUJovzlzi2XwWO+dDImDx7JBa03U5NAII6ozR1hv/gJgrcF/c2l7lN5fN/PNFZbTet75nEwP+EdTaVuVXumdW2WP35KsyWu/1D7axtjmdCZjAZmPxrKcX8J/9KAZZPKsTzxDNmKRbiGZqIotnItF2L5GYi3QaOMfqDs61bMu0nNrv3GAxHnOrwDiHnblztfmX4lk8K5FZ5rjFs2U4u5Q8gbXMf3nrfNQETMAETMAETMAETGAJAhbPKihHAc3iWbd4hmg2139jLJ5VdNaRUfjPrUQphAo9toUQxXGOrSXQx2Qr/73FVuzDweX4HP9Zs3i229a3eLZb/sdeusWzY+8Brr8JmIAJmIAJmIAJeOVZdR/AeWbJ8sWLF7eOupy5Q9o///zzm5tvvvnS9ld/9VdbMQJBomvDsZhTNFMjWTwTiXn2CFFpO9O2HF9biIK2bKYP1r7TaWh9LJ4NJdY2vubZtrk6NxOoI2DxrI6TY5mACZiACZiACZjAIRPwyrNDbt2BdcNBlRCh/ZNPPnnqmM7hUCBozbXSLDXf4llKZJ7vPP7Y9Q60eUodlyt9j22u92XIKotnIrGbvcWz3XB3qZ8RsHjmnmACJmACJmACJmACJmDxzH3gEgG9+0riGPsHHnjglHiGI4EzO8GTNuEAACAASURBVLdgccmw//tg8Swl4u9LEbB4thTpfDkWz/JcfHQZAhbPluHsUkzABEzABEzABExgzQQsnq25dXZgm959lRPQJJrt6sXxFs920CFc5JaAxbPddgSLZ7vlf+ylWzw79h7g+puACZiACZiACZiA33nmPpAhkL776m//9m+3773alWgmExHPoqjnz93vojOftnzm+BVP9W3vuwkgnrk/t+3P5jmM566vf90jxGdNwARMwARMwARMwATmJuCVZ3MT3uP89d4rOw173Ig23QRMwARMwARMwARMwARMwARMwARMYBIBi2eT8DmxCZiACZiACZiACZiACZiACZiACZiACZjAIROweHbIreu6mYAJmIAJmIAJmIAJmIAJmIAJmIAJmIAJTCJg8WwSPic2ARMwARMwARMwARMwARMwARMwARMwARM4ZAIWzw65dV03EzABEzABEzABEzABEzABEzABEzABEzCBSQQsnk3C58QmYAImYAImYAImYAImYAKtCPBDVXfffXer7JyPCZhABQH/QFwFJEc5egIWz46+CxiACZiACZiACZiACZiACayDAE78jTfeuA5jbIUJHAmBv/zlLxatj6StXc3xBCyejWfnlCZgAiZgAiZgAiZgAiZgAg0JWDxrCNNZmUAlAYtnlaAc7agJWDw76uZ35U3ABEzABEzABEzABExgPQQsnq2nLWzJ8RCweHY8be2ajidg8Ww8O6c0ARMwARMwARMwARMwARNoSMDiWUOYzsoEKglYPKsE5WhHTcDi2VE3vytvAiZgAiZgAiZgAiZgAushYPFsPW1hS46HgMWz42lr13Q8AYtn49k5pQmYgAmYgAmYgAmYgAmYQEMCFs8awnRWJlBJwOJZJShHO2oCFs+OuvldeRMwARMwARMwARPYHYE//vGPm5///OezbTiErcOHH364eeedd5pv77777uZPf/pTa3P3Lj+LZ5eb7He/+91sY+OXv/zl5YIafaLt5hgb5Mn4IP/WYc755w9/+ENrc7dzxByM33jjDf/KbfPWcoaHRsDi2aG1qOtjAiZgAiZgAiZgAntCAGf4iiuumGX72te+NguFc+fObS5cuLB56623mm733XffBrHk2IPFs8s9gP4wx/j4/Oc/v3n//fcvF9ToE2L1DTfc0HRcaJydOXNmFvHstddem4Xx1VdfveGfA60Dgtz999/fnDFz2lVXXdXaXOdnAgdFwOLZQTXnYVeG/5DxXydvZrCLPjDHf2gPe8S2qx03irtoc5fpuUZ9YI7VDu1GyP7nNIfzevPNN2/mWPUBbcSzjz76aOsY4xy32s6fP2/xbLPZCiQ33njj/nfsRjW45ZZbmos78J1jXkM8u/3225uNiTi25hLP4PDFL36xOeO5xHvmte985zvNGf/qV7+yeNZozDqbwyVg8exw2/bgavbyyy9vHWhEDG9msGQfwIGe6ybo4AbqDBXikQrG/5Jt7rI8x6gPzOVkzjBU9jbLOZzXOedsi2fzdjX6g8Wzy4xZffalL32pmbjzhS98YZZVZ1i8j+IZdrcW8M+ePbsVty63YrtPFs/asXROJjCUgMWzocSOKD6Cweuvv769EK6h2jjPc/0XeQ31sw3rJcA7aOZ0xNZb83VYpveRrMMaW3FsBCyeLdPiLZ3XOVedQcPi2bx9wuLZab4tV5/NOaftq3jWWsCf857R4tnp8eEjJrAUAYtnS5Hew3J+/OMfbx577LHNHXfcsXnppZd2/hJbi2d72IkOxGSLZ7ttSItnu+V/7KXP6WgeO9tY/5bO65yOKzZbPIst1/6zxbPTTFutPptz1RlW76t4hu2tBPw5V51hp8Wz0+PDR0xgKQIWz5YivYflIJ795Cc/2fzXf/3Xdo+I9q1vfWtn7+OweLaHnehATLZ4ttuGtHi2W/7HXrrFs+V6QAvnde5VZ9CweDZvn7B4lufbYvXZ3PPZPotnrQT8ucV7i2f58eGjJrAEAYtnS1De0zKieIaAxvazn/1suxLt4YcfXlxEs3i2px3pAMy2eLbbRrR4tlv+x1763M7msfON9W/hvM7tuGKvxbPYau0/WzzLM526+mzuVWdYvc/iGfZPFfDnXnWGjRbP8uPDR01gCQIWzwZQ5oKAE30s2z/8wz9cWnkm8Uz7X/ziF5snnnhiewPJxXyJYPFsCcouI0fA4lmOynLHLJ4tx9olnSZg8ew0kzmPTHFel1h1Rt0tns3ZA/xrm110p6w+W2Iu23fxbKqAv4R4b/Gsa4T4nAnMS8Di2QC+iEQ8uviVr3zlaDZWmkkwy+3/7d/+bfsreHfeeef2l/AG4BwcdYx4xkUQx5uLGTcNV1xxxXZPXkuJfoMrWkjADzjw09TcmBCoG9+p3yEG1Zd67jpYPNttC+TEM/V/xkC6Mb7feOMN/8DIbpttp6W3nD+WcDh3CmtlhTO2v/jFL476ZcElHFdwWTybt9PQBxh3DqcJIJyM+eXNJVadYe2+i2fUYayAv8SqM+yzeHZ6XPiICSxFwOLZANKILT/4wQ86xaScwHQMx/793/99ywZxCqdljjBUPEPwiIIZN9U42Xffffelm3K+p+GPf/zjVgiUSJWe39V36g9f6kXg5pLvuTrsysaW5aq+a2gHi2ctW3Z4XiXxjP7ftzHuGSv7HtY6L62Va8v5w+LZ8q38ox/9aHP99df3ju84/pdadQYNi2fz9gmLZ918b7vttkFjg3Gy1Dx2COIZ/W+MgL+UeG/xrHt8+KwJzEnA4tkAuhbPPnvvWZcYiIj2/e9/f3tRR0RrKXwMEc+48HER44YBO1LnWWII59OVW3zn+NpWpskZjOIZdfvlL385oBfvT1TVt2UfGlt79Zex6Z1uGoEu8UwOAWNcG32G8SuhnP2+B8b5GueltXJtOX+oj621rodoF2N5qPO6lOMKb4tn8/Y62p9x55AnMHT12VKrzrD2EMQz6jF09dlSq86wzeJZflz4qAksQcDi2QDKFs/6xTMJa5988snm7/7u77bOHj880EIAGSKesUoDR7PrZhqbiJPeoO2LeDag6+5l1JbO71QAFs/KBHFy4MOYazHOcyX1iWe5NDrGykzGOY9x7nOweDas9VrOHxbPhrFvFXvI6rMlV51RP4tnrVo5n4/FszyXeHTI6rMl57BDEc+GCvhd/kZstxafLZ61oOg8TGAcAYtnA7hZPKsXzySisf/JT36ydV5ff/31Sc71EPFMjiZpugIrUuJNBQIATjbONqu6+M4FNAaOkT/n2XDsc6IBx2J6PhOXNF2r2igv5q+4cga18gybyDN+1zHZE8ss2am6xbgqM62D4nbtsZ+8xIe6pAxj+rS+3BQQVF/VRWli/tRJ8WWr4sV9LCOmiXG6Pls8O02HNuZXd3kP5AMPPLD9AZEbbrhh89BDD3X279M59R+hzdhioE1z4neMw2f6RVc88qG/ayyrP6X5UF+NNY0V5grsSvtoTBv7nsogfRqIx3HlxWfiU6Y+5+YlnU/z47vGhPKMxyiPDfupB59joEzNQ8Th+5AQ7SLvGsbkT1zaQKywoSsQX3aSRu1Xmj/IC9uUpqZu8RrRZYvPtSVA29Lna7YlHVdqafGsbVunudH2jDuHMgHmumuuuaZ3fCy56gxrud7cfvvt22sG142W25kzZ05dq8qEpp+pXX225KozakXb84/BlmzJ61e/+tXmqquumg7OOZjAAROweDagcbn59zvPhglo//mf/7nhRwX4kYVnn31267AMQH4iKs6QHKMTJzJfiCeHmZuw2pC7ScfRUsA5y8XhmAQnxeW7jsuRi2m52U9t4+LFDWOMx2cukspD9sixiO880zGcYZzDXF6UEQNplHcsF/tUh1ru2Ea6mI8+p3ywgWM5G2N9o+OPrbn8ia+2ifEpo8SBfNK4kUv8rHrFY8f6mTZ45513Ng8++ODmrbfe2nz66acnbuDgTXs88sgjp/r3WGYIHGwxqK/XOFh6fDPt+/TrXP+jb2icqUzy4HipP6X2ka4UlzHBGI2Bvshx+jHp4rjR57hXXTR2c31Z4zfapmPslZZ8lR6u2JDjktoc7U8/E5d8NXai7XyO85bSUie1VRo/NweV2q80f1AOLHJ1o22pey4Qv3QuF9/H2hGoWX229KozamfxrF0b53JivDHuHLoJ1Kw+W3r+4lpyKOIZ/bDm8XGuH0sGrn1c57hmttwsni3Zii5rXwlYPBvQcjgbFs/qxDNEs1/84heXRDM5egNwn4qKo5dzoE5FDC/TxwHjxgGHKXWGc+mwU04fafgup0lOJxdJ7OAGgU2ObnqDovhyuimfvMiTPLAtOqPkRR46TvyYv5xJ1YO8OBadUB0jHzZsk/2qF8djkOhEPioT25UHZdRwpxzVizyVl/ik+XCeMjiObbn4nIOBAjaW4iuvGB+7ic857OAc/CUacLwmYNvSN0c1du0iDitIH3300VOiGVzjRpveddddl/rfFFsZi2wxxL4ej+c+q4/TBxSwlfZX36CNORbHSexLEnWIH8dKqX+TNs2fY/RJjtMvGWcKnOMY/Yzz9FHOczzalc5L6svES4PmoMhOx1QO57BJ8wTfZQflymaN7TjfpOXF7+JIOvGijK76iws25OYDjilgl+LXzh9qK2zCDtVN80qpbpQjPirf+2UIaJzTJ0sb7bl0sHg2L3HaPc5b85a2v7kzj3WtPlt61RkkmVcPRTyjPn2rz5ZedYZNtDvXK67RLTeLZ/s7F9jy5QhYPBvAGqfD4lm3eIZo9k//9E/bCycrzaKzMwB1NuoQ8YwMuKDI4dVNN04QjhZtWXKG5DwSJwY5qVy00qBzsb5yUikzHietHILorMnZxNFPg/KiHsorl4eOES+1nzzFQ3UnL+JyXMdUNvzELVdnxdNe3HL2Ky9YKIhZLr6cXMrnRoyADXwnXRoiH8UnDk5Vjj/nVH4UVNJ89R1Ou3DQVP5a9h9++OH2Ec10tVnp5u2FF17Yrjidaj99K3Wk1NdjnyqVo74Z85Bgkuvb6huMSQWNHc6lY0V9M9qiPpnr3zoX7aHfarzl+qTGRDquZWvs97I5V46OYWtad/LgeG4+oM5ikCtLZWqv+SyXl2yI9c+1kfJSfOqqoPxzfMUqzh/YT93Y0vYjT8Y38SkrDaU0aTx/n4dA1+qzdNWZro/zWHI5V4tnl1n4024JdK0+i3MX83Zu7mttPeUckngGs67VZ/HekHuhJQLX7jnEs9/+9rfba+QSdXAZJrCvBCyeDWg5bqotnuXFM4lmvP+otWimJsJxSp09nevakwYHS46fHFT2OGDpzYScuNSJIl7p5kMObLxw5hw+2UlelB/FM9mXc0yJz00QaeQc5PLQsXjDpDLZSzAgHkFOZnRiY3zZVMNdzmfOfvJUXipb33PxVQ/qq/NinLOF+OKj+BIGo8Md6yZBr3Q+xrV49pngy/j+6KOPBv2nk/eh5dos8u37TP9M+6j6CO3eF9TPJbTQR+hb8aY35qG86aMK6q+luui8+h/p+ExeadDcEOskm0pjV3VI5yWNi1iuysuVo2O5fq8yol3Kiz3H4Ua8viBxK5eXxp7ag7xy/FSGxnds67742BnnD9qN77FM5c9eXHL2ltokpvfn+QhoPKpN4z6OYdo4135zWGbxbA6qznMMAfp9bvVZuuqMuU/3j2PKqU3DteiQxDPqXVp9lq46y11Xa7kNiUebzyGeffzxx5s777xziCmOawJHR8Di2YAm5+Ya5/G73/3u0Ww8ehlf/p9+RjTjosJk+9JLL816YeaixAVjSuAmnHaUw8lNeLz5Jm85iMTLBfLgBgRbcCJxEnGuyCsnnuWcNTkDEs/kOKe2xPIlfOnmJ82DuDpWykd5EI8gDiWu2E69SuejfcSDA9xym8rG/pr6UgfylCjQ5Sxjh/JXfGwgPcdz9kgoIN++gM0lpn1pD+X8T3/608358+cHCWeMhw8++GD7+OYUDozJ1ClWX4+CSqkMjWmNRYk3pb6hvhPz7ut/GiukTQN9UvMF8TRfxDr1jQn11zR/jWH1+1i26hHL0TGxiPEleLEnXrqpjpzvC8orN3eIv2zoqztlaXzXzh+KLy7iV6qbzsMzDbSX5sz0nL8vQ+Cee+7ZXH/99ds5nXmdLa46o32I8/zzzy9ikMWzRTC7kAoCzKe6pmhssI/zFvPgl770pap/fFQU2RmFsg5NPLt48eIGMTLy5XO8L9S1VdecTkgTT3Jd5RpH27fcLJ5NbBgnPwoCFs8GNDMTIhPWsWyssuOXMlPBjO+ffPLJJdEMp3qJiwVOTc4RG9CEJ6LihOmGg4ueghzteIxz3JxHx1c3J1w85VhzEVPQhTQ6rjonx5+LHwF+5Kfvihf3cpKxm5DmEY/FC3rMQw4laQlpnjEun8Wij7tsSW8sct9hVFNf2aq+Jcapjfquuii+nOGcDfGYxTMR7N4jkMN0zI0aN9Jql+5S8mfph+k4Up9jDPcF9Q2Nafpz7ANdn5V3X//TWFEZpOMzYzHmj73q27FOfWNC/TnmTxmqW44vcSk7lpM7pjoqr2hv7jPx+oLEszgnKg3HyDcVz2rmv9r5Q3URFwl/ufrEYzkbohOqOni/LIH77rvvxDiizeJ1jvHBr8TFY3NaaPFsTrrOewgBXQvp/5rL0lVnFy5c2Hz+85+3eDYEbIjLPUPkC+e46ow2uOWWWzZXX3319h4pJJ3lI/ZwrRpzP9aVxuLZLM3lTA+MgMWzA2vQltX58Y9/fEo845cztdJsKdFMdcIZ6hNxFJeLCjfRXNC6ghzeuJJCx0pOKnlzo46IpfxzjmKXk6qbHTlq+t4lBMgZbCmeUT43AcozZaV61XCXM4Oz2rVRV9W3S7iSbXJ+YUMZpM0F8VH8yL/LHsXP5alj8FnKKVOZa9rD/IYbbhh9o/bKK69MumlnTEYBCDbqQ11jRvHUd9TW9Gf6EoJKbd+QeFbqfxormjckdlE2tsf5QuXHOmEHNmlOSNtf+Sl/nU/7vY6zj2NAx3PHdE4CkwSqLjZKU9qLB3mlgWPiz7matlQ9xZH0XW2fzh+qG+y76sW5NFBOqd3TuP4+D4Gnnnpq87nPfe6SA5uuOuM7fYLVNUsEfk2Yd03xq8MtN/7RkI7xJerjMvabQPpOrjhnMd9q1eYSKzN1LWs5LpQXY3wXczHXnXTlWbwnfP/997diGnG4Vs8ddA8hLi33fmxz7tZz/vtOwOLZvrfgjPZH8QzRjMdVmVR5afguLl44T1wwaoIcp5zjFtPLIcWxUsCh5QIdb2B1M4ADnat7zlHsclLJgzKioyznPOe8EV/nuYgTcnnoWLyoq17sxYV4BDmUpYu9HNYa7tjX5czSFjEf4sYbvGgn9nEORuIh21X/GJ/P4qP4urmgbXKBeMRR/FwcHaPMElPFOeQ9bcfNGfsxG20QhaKhrEibpldf7+pzlKPxHMea0tK/c4Hz9I3Y19S/qH8uqH/qvOLHPJROfTPWiX6YzgmKz15zVZyXOK4xmuvHqnssp2teUvzSfEBdsB0+fSE3JyoNjKhrnHe75gPSiafK1vyg78qbPccUX1xU7766KX7Mj7Jy5cQ4/jwvAX40gD6jLc7Hclw5h4iwRFvRTxgPc2y5PjgvXee+7wR4ZFljg9VPjAkFxorOxXGj83Ps5xgXynMOe/vyZE6J4hlipK71nLvpppsuMY7X2758p5wXjzn2U+xyWhM4dAIWzw69hSfUD/Hs+9///ubrX//6TkUzVWGIeCYnMDrMykd7Lni6qcAhVFDa6KRyM8vNRy4/8kkdZ/KSs5a7kJImzU/OZnQoZZMcZ9JwoSTk8tCx0g2S7CQeQU4sjmYaVGfKjHzSePouIS5y0zmVE+1SfXN8Yn3lSOhYTvCQGIGtik8dqVfJ8VU758qX3drDPNqu48eyp/0ef/zxUcIZad96663NO++8MxoXbZS2k/o67ZsLnKfPSGTBjhjUN9Rf4rlc35AYk+t/6t9xHCm+xlpf/hpvuTmGtOr/6fiSeKZ5QeVQrua3yK5rXpINpb6u+SNlqTLjXuM7F1e84lyn+NQzDap7ZK/4sW5Kp/jpfMD32EaKz151y811pTkkpvfneQnQpvGl6C+++OK2QPq5xjjte/bs2UvXyHktOpl7bpyfjOFvJjAfAa7P9H9t/CI2gflMq844t9TKzPlquruc4+o+HoHVNRehMgprS6zuy1HwHJSj4mMm0J6AxbP2TA8mR8QzfjmTm9Y1TMo4TjnHJgcce+U4ssdhxDHkOHvy0fnUWZXjTL0VSKebkui84gTKeeV8tK/LSVV+sWw5ruSDUyl7sQPnQA6CLti5PHSsz/klnkLkQN6co144mSoz1kvp0r3Kxn6xi3nF46Qt1Rf+sb7EI5CXBAk53cpfdlKG4pMGOzhGHVUH0kjoIz++9wW4lJj2pT2E8/SHNYtnCClxY1ypr6T9Tu1Bf+Ac8TSm6Qux/8W+FPOj/xCXDTbqf1HIyYk7xFffo2z1Y2zSeIhzgmxlr76ssaVzyo90spdyKD9nV9e8RJ6az8gvzjWqT8k+2aO94sMnDRwr1Z/jsT34rHrEvMRL+fCdesOH+EojJtggmxjLsW5iWBrj5EXeDrsjwHhFGKO92RABGG+p4xpXhCxpLf1U15gly3VZJgCBdGUmY4T5Mq5I09jZxVzG3LuLclv2jpTlddddd+L6L7733ntvy2Kr84KxgwmYwPwELJ7Nz3hvS5CQspYKDBHPsJkLNc6QLmi5fXQ4VU85dsTHYZbzJadT+cg5Iw85X5yTA634+q78ZRtxU0c0lq1y2FMPlRGdvjQP6qz4sTx9pjzOx5uYEqdYr1qnoGQ/ZWJ/GkrxY9niT1rqLu7kqY285fTH+KQRN8XVnnxq60W5Jcc6rdMhfqePnDlzZnujSJsN3V544YVLgsgYPoyhdBypr6s90z3tSz/C1lIY0jcknpXScDyOK/phtEnpsUtzA+exkaD4+p7aHMcKecV5IM5znKOMWE5kp7LjsVhWaT6Qren4imnjZwlVOf6qC8xi0PHIjc+qS4zL51L80vxBGs6l+fMdhqW6UX5s29QOf5+fAPzj6g7aDKGMtontudQ7h9IaI9oi7vUF4pX6WV9anzeBEgHm87gyU2NC7wLUd/qorh2lvOY4zj/iX3/99c6sGeOl61JnwoVO8r5ncYz7uCKN47ta3UfZXN+7AnNP+g+4rvg+ZwImcJqAxbPTTHxkpQSGimeqBgIJF2ScJjbywWnruoHg4oLzR9x4o0sa0nKc81yo5FTpeLx4ET+ml03sOZezgWPYq/KxhTLYOKfySnmU8iU+tuTK5Fyss8rscoBJkwvYF/OiLqUySc+52vqqPPKnDdjknPOZm4fIR/EpQ+1DPNVP5/v2pD9m8Qw+iGf8EhO8h25PPPFEtVCZawv6B1saaJfSlusHaXq+k5681Z/4nBuzEr9Iw5wS+5P6YJo/NsS8Y79jnqDMWC/VJc1H3+O4Im4M8Rx5qv7ES+uTOxbz4nOsYzrXpXFz3ymfcmRHGodzbGnA1rQuuXhKxznqWzNfKs3Qulk8E7nd7elH0WHt+oyTu3RAGEDMi+M5tYH3xdYIbGk6fzeBPgLMafStrnHBuV2tzOR9yfzoUGkuZ3zzmpgf/vCHfVXd2fnc6r4c76XeuxhBcN2EL/dppWsuce66665egS3m688mYAKnCVg8O83ER1ZKAEeTGwSHdgS4mHKzX3L+tUqDeLsO2IitOVu4WUDcmEvg4oZvrrx3zbW2fG5qeXfZUOHso48+6ryhqymfdu9ySmvymBonimdT83L6/SJg8Wwd7XXLLbf0igM4s88999ziBuP4v/fee1v7ctcohDOc23Pnzi1umws8fALcA6UrM3PCzq5WZmLLBx98sBVv0taQcIaw9/bbb6enV/Odf3hde+21vXPQLlb3cV/GPylZ5Z9b4cecJAHTftRqupQN2VMCFs/2tOGO0WyLZ+1bnZsWbmoQBtLAjQLn4L6GwAUfexD00sBKFc7NJbBYPPtshRbO31DxjJu5n/70p2mTDfpu8WwQLkduTMDiWWOgI7PjHxjM833bLh6bwjFlZS7/YPjWt751ooYIZ/xaMeLaM888c+Kcv5hACwK14hljJ/4SZ4uy+/JAuLn99tu39w6PPvroiZVPEs5effXV7biJT2705bv0ee5B08dgc3MRIuDS9aC88+fPb/ihiNtuu+3ECj8JZ//6r/966tzSDF2eCRwCAYtnh9CKR1IHi2fzNLQezeQmgM88jiYnBaextMx+Hmu6c9VKOMS+1FZs5kZsjmDx7DOqP/jBDzYXLlyoFtAQNe+4447J7bIG8UxjYo7+5TzXTcDi2TraZ8hjU0tbzDynx9ofeOCBS6vkJZxJWFvzypqlmbm8tgTWujJTq6LYMw54tBBBJwpniD7c3615VVStQLmL1X3ca+neLK7wi8IZ/BExOeZgAiYwnoDFs/HsnHJhAhbP5gPOhVfCFI6ixKk1XmSxVUIGtvIZcWUu4QzqFs8+63sw5p0ZrKDoW4HG45rcqLW4GbZ4Nt/Yd879BCye9TNaIgbzQPpy7tzKDx6tWvLaRVlaWcO8yDWKR7eicMZx/uFDHRxMYA4Cui/KjYl4jPGxZNCqKN0zvPLKK5sXX3xx+44zVpwhnHEuXTG1pI21ZUWOXZ9ZBbZk4FHNeF/GCj/mGlbEsuIMvnBGuHQwAROYRsDi2TR+Tr0gAYtnC8J2UScIWDy7jANHEQFN/+XUDbH23KBxE4cz+dvf/vZywgmf1iCeTTDfSfecgMWzdTQgQnzNS9FpL+ajpQLXBx7L1BzInsfVOabVaBxb+8qapXi5nHkI1K7MXPqx5rgqinHAPQJCWRTOOL4Pq6JqV/ct/Xg271xkxRkc2Zh3EPcknHGMf2j6nYvzjD3nelwELJ4dV3vvdW0tnu118+218RbPTjYfK9D4KlFHqQAAIABJREFUAQFuzvgvMu/5QTB78803NzyyxM/Sw6xVsHjWiqTzGUPA4tkYau3TMKfUrDxb+rEpVtbwnjM5ruwRCKJwxrHHH398G6c9GedoApvtSqOa8XH11VcvujIzXRXFWGBsMEY0Zvi8D6uiGMNdK850bmmBUu9cFE/2iGXxOyLm0qKex6UJHCIBi2eH2KoHWieLZwfasHtQLYtn+UZCROOGjJtjNn4YoKVoplItnomE97sgYPFsF9RPl8l8gzAmB7Vrv+RL0ZkDWUUTHdXc531YWXOauo/sC4HalZm89J7+uVRIV0Xlxsa+rIqqXd3H3LRkiO9czPHlGP/k9DsXl2wVl3WoBJYd3YdK0fVahADiGe/i4tEHb2awdB/gfSIOuyGAeOax7zG/9JhXeThCCDcOuyfA+5q6RDOde+655xYzllW48X1DJed1aYd6MQAuaBUE+McVv/SoMVDaL70yM7cqKh0j+7IqinuRmtV9S753MX3nYspW3/3OxVUMUxtxAAQsnh1AIx5LFbhA6CLg/WfvNTCHZTkcy1hbWz099pft555XTvNe25g4VnvuueeeXnEA0eDee+9dDFHtyhpEBAcTmIvAkJWZiEBLBR7HTB9hTq8x+7IqqnZ1HyImdVwiIJqm71xM+fKdfwa1+AGnJerkMkxgzQQsnq25dWybCZiACZiACZiACZjAlkDtY1NLvnPo4Ycf3j6+nnNYdYyVNU8//bRb0QRmJVCzKgpxeamVmYe2Kor6rG11X/prpppz0r3fuTjr0HPmR0TA4tkRNbaragImYAImYAImYAL7SqBWPENEWOpR25r3DfFYJ++FdDCBOQmsbWXmoa2KGrK6b6n3Lvqdi3OOKOdtAqcJWDw7zcRHTMAETMAETMAETMAEVkaAx45q3nt29uzZWX68JMWBM81KnnSVR/qdx9LefffdNLm/m0BTAq+99lrVY81Lrcw8xFVR1113XRXjpVb3+Z2LTYeQMzOBXgIWz3oROYIJmIAJmIAJmIAJmMCuCSBK8eunpZeh6/g111yzfZRybntrV9acP39+g5DgUEcAUdI/0lPHKsZa28rMQ1wVde7cud75h3mIXzVdIvidi0tQdhkmcJmAxbPLLPzJBEzABEzABEzABExgpQRqH5ta6hcFEfP0LqF0tVn8zioUv6y7vlPRzoikDsMIrG1l5iGuiqoVKJda3cc7Fz/66KPO1a+171zknW78srmDCZhAmYDFszIbnzEBEzABEzABEzABE1gRgdqXoj///POzW41TyqqyKJTlPt9+++0bHFOHOgIWz+o4pbEQz2pWZvLS+yVWQh7iqih+qVQrXLv2rH6lH88dWr5z0eLZ3K3l/A+BgMWzQ2hF18EETMAETMAETMAEjoBA7UvRl3jsD0f6woULveIZTvYSjvShNL/Fs3EtCTdWXXaJOpxbamVmy1VR44i0TzVkdR9C+pyB9qY9c4J9PFb7zkWLZ3O2lvM+FAIWzw6lJV0PEzABEzABEzABEzhwAjwm2ScOcH6Jx6ZYWcMvaUZHNf388ccfb+68884Db5W21bN4Np5nzdggDism5w4tV0XNbWtt/oxvVu71cV5CoGz9zkWLZ7W9wPGOmYDFs2NufdfdBEzABEzABEzABPaIQO07h3BuEWHmDM8888zmgw8+6BTPeB8RLxl3qCdg8ayeVRrzlltu6RV2GBv03TkDbXjmzJnOsYEQVbsqak5bh+RNvWpW98GYlalzBvi1fOeixbM5W8t5HwoBi2eH0pKuhwmYgAmYgAmYgAkcOAEc0hrn9ezZsxtWZswZWFHGyrJ0tVn8zsq0119/fU4zDi5vi2fjm3QtKzNbr4oaT6R9yrW8d7H1r5laPGvfV5zj4RGweHZ4beoamYAJmIAJmIAJmMBBEuCdQwhjfY9N8WgVItacARuiUJb7zMqat99+e04zDi5vi2fjm3TIyszxpfSnZCy0XBXVX+JyMdby3sUh71ysoWPxrIaS4xw7AYtnx94DXH8TMAETMAETMAET2BMCtY9Nzf3OIRxNfkUzJ5jFY7xbaolfNtyT5qsy0+JZFaZsJASVmpVR11577ay/ANt6VVS2sjs6yC/59on3nJ/7vYut37lo8WxHHcrF7hUBi2d71Vw21gRMwARMwARMwASOl0CteIbz+v77788GCoHsiSee6BXPvvOd72xYLedQT8DiWT2rNOZaVmYi4r3xxhu944Nxum+hdnUfIiZ9ea7Q+p2LFs/mainne0gE9m/GOiT6rssgArw/If4315//aB5/XI7B3O/OGTQYjiwyN3Qe78v1dbM+zfrIhtzqq3vddddVrfx47rnnZqsLq8lYVdY3Xm677bbZ3702WyV3lLHFs/HguV5ec801veNj7pWZrIrq+zGNff0lWsZ+DeO537vY+p2LFs/GjzunPB4CFs+Op633vqYvv/zy5mtf+9qG/+J6M4Ml+wD9js2hTGDO/67yH+y7777b495z3076ACsj5uzf5VHlMyUCzMe0S9/Go2lzBR5Lu3DhQq94xqOdOKUO9QQsntWzSmPCruYHNRg7c67MbL0qKq3nLr+zuu/mm2/unX9YeTbnqlPasE+8H/LORYtnu+xVLntfCFg825eW2oGd/GdlTe/pQDyb8yK0A8Quck8IsOrM4lm5seCDIzlXQDxjczCBXRC48cYbLZ7tAnxHmbWPTc35ziF+QZNf0uxyXj/99NPNmTNnOmriUzkCFs9yVOqPrWFlZutVUfW1nz9mrUA55+o+hK7W71y0eDZ/33EJ+0/A4tn+t+FsNdDN6V133bUKEc3i2WxN7Yx7CFg86wbE6gtu1ucKFs/mIut8awhYPKuhtGwc5oSal6JfffXVs636qnks7aOPPtqcO3duWTgHUJrFs2mNSJ/rW5XJeVZPzRVar4qay86x+dbwJc5rr702tojOdIj2rd+5aPGsE7lPmsCWgMUzd4QiAYlnTP48t89Fdpcr0SyeFZvKJ2YmYPGsDFhODu//mGt+sHhW5u8z8xOweDY/46El1L4UnfsWnMw5Qs3KGlbk8viawzACuq4MS+XYIhDv37tEnrlWZs6xKkp1W8v+lltuqRIo5xr/3G+1fueixbO19C7bsWYCFs/W3Do7ti138b3pppu2F4t33313cessni2O3AX+HwGLZ+WuwDtTrr/++u288NWvfrUcccIZi2cT4DnpZAIWzyYjbJ4Bc7LmnS5xYM7Hpngckxeedz22OeR9Q80h7XGGFs+mNR7XzK5xoXP80wvWrcMcq6Ja2zg1v9r3Ls4lUM7xzkWLZ1N7hdMfAwGLZ8fQyiPrmBPP4gWXz4hoTLZLBItnS1B2GTkCFs9yVD47Fv/7ijM7x3xg8azM32fmJ2DxbH7GQ0vA4a99KTrzR+vAPFfzvqE33njD72scAd/i2QhoIQkrM/mxDN2zl/ZzrcwcsipqjnuGgGK2j10+Usp7DiPmeOcibcGPMzmYgAmUCVg8K7M5cYb/ovDrfg888MDmnnvuOYqNi2p6ASh9X0JEs3h2okv6y4IELJ7lYXODjrCgeQFnlveftQ4Wz1oTdX5DCFg8G0Jrubg17zxjbnr++eebG8U14cEHH+xcdab7Rv/Q0XD8Fs+GM4sp6Hu7XJk5x6qoWL81fOa+pGYOQsScQyCc452LFs/W0LNsw9oJWDwb2EJcEBCVrrrqqksOoxxH76/YOs5zXCRopqHiGUuqa7Y5/is9sFs5ekIAoZptLcHiWb4lnnvuuVPz4ByPKAwVz3C8asY+cTz+8227T0f55w1tOde1x+LZOnsD/8isue+69957m1egdmXN448/Pts715pXakUZWjyb1hjw2+XKzJpVUTzyvM+/RFv73kWuH4iZrcMc71y0eNa6lZzfIRKweDayVRHReFyp5j87NTd3hxSHiyH/6W19sRgqntUyJV+HkwS4KaCPcwO2i8CycW441hIsnp1uCZjwvpR0nHGMvtMyjBHPUrtK3z3+T7fUrsf/aYu6j/BoHO1Ln5wjWDybg+r0PPkVu9K4jsfnEPSZ41599dXelWc82jmXqDud4HpzsHg2vW1qVkUxTuZYmTnHqqjpRNrmwLiu8QHneu/iHO9ctHjWto84t8MkYPFsYrviZNx6660bvUg/3rAd+2eWKj/11FPNfoFvrHjGTVjfNrEbHFzyuZ3RPmAWz/oI7f48PxRQujln7LcMU8SzvrHPeYeTBHY9/k9a0/9tbnstnvW3wS5i1L5ziHmq9TivWVnDPxC5D3QYToD2WtM/0IbXYPcpaldmsmq3dahdFfXss8+2Lnqx/Oijtav7uF9qGRC55njnosWzlq3kvA6VgK/qjVoWEY1HmGr+C3Fsoho3rnfddddkEW2seNaoiY8qm7md0T6YFs/6CO32vByb0lzGmGdObBWmiGetbDimfHY9/oeynttei2dDW2SZ+MwxNS9FP3v2bPNVibUraxARHIYT0DVmeEqnEAHeP1q6Rsfjc6zMJP9j+CXamvkHFviHLQOrrOd456LFs5at5LwOlYDFs4Yty8X+/PnzVRereOE6hs9XXnnl5rrrrtvg5IwNS4pn/McYhx172XNByQVu3vWoEGl49w7vQomBfsExzpFf3yNtxCeO4qf5pXnHuNja9bgs5xSf/FNbqCd1gjX9kvNDRJChdY2csUdllcSzyCbWlXyUNvLhc6wzaUrx0nTxO208x39nYxn79Jl+gUPaNXe1fBSEdmOrDfQT2VabRvFIG/sl5Q4Z/2n/GjomYh9nvtiH8c/4UL2H2h/nxi7WtA95EwcukQ2faW/NxWpL9i3Gv8WzSHQ9n+lzNT9sxD81u8bRmBo9/PDDm48++mjbv+hjuY158umnnx6T/dGnYaxzT+AwnsCuVmZyvZxjVdR4EvOlrF3dxxNKLQPzGf5mbt6Jx4a+c5G24/7bwQRMoEzA4lmZTfUZLvIsyeXRTa88u+KS04ozw5JmHA8u4jnHphryiB8MGOM805a8qF5p4x4HLQ3UjfhcyPhM/BiPixgXopiPPnMuDRxTPorHnmMpP27Mc3GJn3vZPk5nLn7MmzJiufoMl74wtK4l++GXE8+wLceSeknsS20s1RkhrKZOyo+yLZ6Jxmb7a8PqG6U9c2FJdLqcU90n2pGtNtC2sqs2DfFajP/o8A0dE/s6/qkzvEv1zY2dUlzyyQkdcY5V27In75J41mr8M0cOmS+G9DnHHU+ANql5bGqOdw7dcccdvStr3nvvvQ2PdzqYwC4IMGdeffXVl66Fcd6Mn1uvzOR+aY5VUbtg2FdmrUDZenUf989zvHOROXXIvVYfH583gUMkYPFsQqsyyTBxcmNt0ey0aIaYiKjYyoFeYuWZhDP23ADQxvx3W6JNelGh7SX0SEQjHYF6c56NCx3HOcZn3bgobi4+cdnkmJKPQpo332UrziT5RweUOnAMW3FaiUsaOZ1RbMMmcSBdtFHlp/ucPRwr1VX2iA1x2WJdY32xl+/UIcdS7RPtUtnwUJ3ZS2gjTW2AQU4AqE1/SPFou75VZ7QTDmsUkqYwYNylY68rP/oLNrANCer37GlzjSn1r9QG+iTn2JOGMafxMnRMlOLHMaG65OLK1r7xr3qRR6vxLxthwfgSA8abxm2cj2Q/7QNT4nNMY5bjyoM6x/jYnIufplFeLcY/dYCvw/oI0O41G6s0WgX6Ai/rpn93bW+99VazObCV7c7neAhwra5Zmdn6NQvM9XOsilpjy3H9qpl/+CGlltcQv3Nxjb3BNh0LgWGexbFQ6aknN+6IZtw8cdGpmTiPJQ5MEM0uXrzY9EJBk4wVz3B8Slt07iXo4ASnFzm+04apE8V3jsd81H3kmOLEpYGbC9JRJwWJOrn4OseNOkHpc+WqHtHR1wU+OrAqF+cyFZJke3RgFT+3V/yc7bKVOAoSKXL2qK6wVZD9ufpyTONL8WkvtXnalsTpKl95xD0cLJ59RoR3d4h3377VDwfQ/rE/x7bJfdZ4xT71g9w+9ieNmzWOf/XXtY5/jUHmkXS8afxH1hrPuTZVfOqsoPkl5qFzik9ba77qG/85gVH55fb0nbReuXg+tjwBfvW8bx7i/DPPPNPMOPpZzcoaBITcNa6ZIc7IBDoIMGftYmUm94FzrIrqqOrOTnHfUPPes9ar+2rfufjQQw/tjI0LNoFDJWDxbEDL4ri8+eab24vR5z73uaobtpqbukOIg3Mxl2imJkJU4UJVG8QVh660RWdMDlqpDJ2PN8PUm3JYGZEGyuR8KXAunlf8nJNG38NWOc/kSZm5uBIBYt34jJ1RwCrZxXHVVc5oV1zOiW8uHjbGumI3tpAmF4jP+ZRNibPic14hx0Dn2Os8faomWDz7jFJcAQTvvo3/tsbxUsM6F2eKeKa+mdvHMaI+33L8l/o4dYxjIn7Pjem1j3/NLzkxDNvpJ5E1XDiWmzdhofNioe+l+LAkP81XGt+xzNivdL52PiR/2RLz8efdE+CdPn3zEOdbPjZFn9a7hPhc2vhHQ2k+2T05W3AMBGrGBnFee+21ZjiOaVUUY1/Xny7WrR8d9zsXm3VXZ2QCgwlc9jYHJz2uBNwAcSPOxqqzY9i++tWv9t6U8rgq/8XnP01zOxdjxbPanqrVHSUHjTpycYwOoi6aaRnkQVycPtLlNjmEcMPpI35cbZHmWfpOWvonZeAMyqboOMoe2cQ50pTaTEKCnNFS2RyX7bV15WYDO7ocV+rApiC79T3dq846rraiz+TY04bkafFMxOr2PIY9dLVtixflThHP6mp2eTViafyrz6xp/Gvu2OX4hy/zCeMJO9Kg8R7nI+J2reTUXMzcormrNj7ltx7/zC+luTKtr78vS4B7MfpTzdbKMvrXsaysacXM+eyGwC5WZh7TqiiuC7Wr++K9w9Te4HcuTiXo9CYwnoDFs/HsDj5l100pohn/eWVVyVJOxdzimR7lKTnP1JUb9OgEpiKPOoUEpZobespT/Foxh3KwRwIc5WALdSCP1E7iU4ZEsWgX8TkXg+Klx2McfZbtMc/SZ+qKg52zT/mxp17Uh0D/Ij7HSkFtp/Ny5kt26HitWEkdu5x3lXvIe9qh5v0pYqt9ix8OWEI8Ux/qG//xBrjV+JfAtI/jnz6v8VYjnmk8d40nzT9woT3oS11jVXOe5ivZoz5Y2nflGccy7bzUdS6W68/9BBiPNYI+j1aVxnZ/KSdjUCZ9lP7ZtdHvHExglwR2sTLz3LlzR/VLtDXzD3NBq18g51rkdy7uclS57GMn4Cv7sfeAjvqn4hmPPUg044Zx6YCDlHPOSnbIYSqdT4/H1Q7pOb5rNUON8yyHD5u50PVtil/rzMkWnDrswWmUc0fbUPco8qX1gSPpJL6RT3Qs5LzKGU3Tx++yvbauso/4pZATz7CxFFQPnaduMKCefeyVpmtv8eyzR13HiGe0w4ULF7rw9p6jPdlqA22+T+Of/oW9XWMi1n1N4x+7JFbl5meNd81Hapuu8QwHeJB2SHzNV63HP7Zih8P6CNDnan7AhHsX+lOLULOy5uOPP97ceeedLYpzHiYwmkB6H6/rYm4/upAk4bGtirrnnnsu3W/kuOpY1z+MEoSdX7nO+Z2LnYh80gRmJWDxbFa8+525Lrr8V0WimZyTXdQMhyrnnJVs0QWrdD49Lgew9I4mOXTRBpyqnBNY4/CRj27m++ITF2FNtskWpY914Rh1l7PKOdotF5dzyguHXGGIeNZnO3kOqSu2Yn/kKnEsCnyyVeWTRoHy+B7rpHPsKYM4ufxiPH0mfqsbH+W5b3v+mwzTsVst6xyXJcQzj/9x45/2EjvGVBpy81HXeCZ9ej79Hstg/Os845TQevxbPIvE1/WZeYX7k755qeU7h/jxgQ8++GB7TaV/57aPPvpow5zpYAK7JMC1s2ZlVKuVmczHx7Yq6qmnnuqdf5ifWr13kfnG71zc5ahy2cdO4LK3eewkXP9TBBDPuOhyYZBTcirSggfmFs/0WGZOJOEGXUJZFAF0LIdBAhQXujTIuaNOCoovgUzH2UvgknOKjVyMuVFJg1ZdRPGsa1Wd4sdyZUttuyt+rq7iGusqZ1f1iXWQIx7FMx3D1jTIfngoSFCLeegce/HIlR/j6fOxi2fUH76s8BizXXXVVUUhU4y79rRxru1LadT+sU+U4uq4+ukS419lxTGhMR7HoWzTOfXXtY1/jU/ZJ7vZMyfQDnE+0nyRa9McG8WPvFSGVuFRhuYrtX+r8U8+ublWNni/OwK0S807h+gfvLOxRWBFGSvL6Nul7b333tvw4nQHE9glAebkmpWZzHG5+7ehtjMHH9uqKC00YI7p2vCnWlxHuOb5nYtDe6bjm0A7Ape9zXZ5OqcDIcCFVM7IGqqE45Rzzkq26SJWOp87LqcUcYW6c6GDg8Se6ACSnhuOkoOGyCYb5BArP6WLNyuUR3zOxfhyTLFBF96cM8k5xSUf6qAggYn6qczUltjWyr+Wd8l2ysrVlXzFhhsBWLFF+yNXbI3xqRfHqBdciMv5GJRXWud4nDxqAvUjn2MNtA1tNmVTvxvDkHbOCS2lvGJ/KcXJHW85/jUm6JdxPJfGBMeJu6vxTxsraPzXtpnGVG6+UL2Io0BZcTzTXmzMBRrLsezYnuQDW47RJ4ivNBxXkE0txj/5U57DOglcd911l/qT+lVuz69ftgjkTf/s2t56663N22+/3aI452ECowkw1y65MpMxcWyrorhu8cviuTknHkPEjNeosY3KdY9rdNf8wznKdjABE2hPwCOrPVPnOBOBJcQzHCQ50PGix2cuVqkDJcetVGVdwNK8SCeHOqaNolJMQ3zyUuCGiGOKo8/KV8ej4FOql9Iob/ZcnJUH59N6x7j63GV7rq6xDJXFHqeXtqbcGHIsZbvqFuPzWSJAzJ/PxI9iQZou/c4NT2SZnvf3eQnQV9hqA/1VbV6bhnhd459+mY4D+l/aT2N5uT6LXeq3MS6fGSeyO+6JH2+6h47/rnrlbIljk/NpvVO7JVTVimekH8qmFJ9/Eqj8yIgyWo3/GgYpE39fjkDtI+W8s3FqYOzdfvvtvY7r+fPns9f4qeU7vQkMIcDcveTKzGNcFcV1r2Z1X6v3Lvqdi0NGgOOaQHsCFs/aM3WOMxEYKp7hSKXOVK1pXAwl4rAv5VNTBjcv3FDgyLHhmHYJN+QZ4/O55LyW4mG/yop15jjl19gS8y6VH/PmM/WK6WrqKnvgjINMoLwc88gytgurz9hygTxVBvVGoKitj/LDFotnorH8nvZjGxJqxmYpv5bjf8yYiGOIz6X+WorXNf4ZN63Hv8ZraV7raotYB9o4N+7VTnH8UwexUfk5TumcN2b8WzxTC6xzX/vYVIt3DnE9eeKJJ3rFM0Rd+p6DCeyaAO8zi/+MKX1usTJT91qMk64NGw4lcN2pEShbvXeRdy5y7evi63cuHkrvcj3WSOBwZq810rVNTQkMFc+aFu7MdkqAGwWc/pxzjrPNjRj9Y65AGRbP5qLbn+8Y8aw/V8cwgToCFs/qOO0qFvNDSRCIx3m0KiewDrEb8ZVVZV2OK+duu+227PVqSFmOawItCNT+GuStt946ubhjXBXFnBLnma7Pr7322mTGfufiZITOwAQmEbB4NgmfEy9JwOLZkrTXVZacI1abxMBNC8e4WcGpmStYPJuLbF2+Fs/qODnWPAQsns3DtVWurPCqWV3Do1UIW1MC/8i5cOFCr3jGo525f/ZMKdtpTWAMgSVXZtasimIMHdov0d5yyy1VAlqL1X3c7/aJ937n4piR4jQmUEfA4lkdJ8daAQGLZytohB2ZgEjGyi9uGtjrsTMdo29MXVHQVTWLZ1105j9n8Wx+xi6hTMDiWZnNGs7gSC71UnR+QZNf0uxyXvklzjNnzqwBjW0wge0rD7pWQ+lci5WZx7oqSveiYlnaT310HEHe71z0oDaB3RKweLZb/i59AAGLZwNgHWhU/mOpmxQcWt4rw7E5hTNQWjzbbYeyeLZb/sdeusWzdfcA5v+adw7h0DKXTAk1j6X5fUNTCDttawJDVmZyrzMlMMa6hGXOHeKqqNrVfV/84hen4N2y9TsXJyF0YhOYTMDi2WSEzmApAhbPliLtclICFs9SIst+t3i2LG+XdpKAxbOTPNb4Dae0tNojHn/++ecnmV+zsoZ/6Dz77LOTynFiE2hFAMGKOSyOg9znqS+0P+ZVUdyj1MxBPF4+5XFuv3Ox1ahwPiYwnoDFs/HsnHJhAhbPFgbu4i4RsHh2CcVOPlg82wl2F/p/BCyerb8r1L4UnZXLUwKiA49ldq2uOcSVNVOYOe1uCdSuzET8mbIykzFxrKuiWN3HOxVzomQ8xrUETmMDwrzfuTiWntOZQBsCFs/acHQuCxBAPONdV/znxZsZLNkH9LjoAt3cRWQIcEPP+F+yzV2W5xj1AYtnmUG5skM4lNFJLX2e8s6h2pU13KdMESFWhtbmHACBmlVRjJkpKzOZL2t+ifYQf0yDf7DWMJ66us/vXDyAwegq7D0Bi2d734THUwEuzHpRvPdvmMUbyzJ49913j2ewraym/FfXY37Z/m7eJ3nP/V7FlQ25vTNnyDuHxrYlDvKDDz7YueqMVSW8i5M5y8EE1kJgiZWZx7wqqnZ1HwLl+++/P7pb+J2Lo9E5oQk0I2DxrBlKZ2QCJmACJmACJmACJrA0Af65xq8Fllac6TiPViGCjQm1K2sef/zxSY9mjbHNaUygi8BTTz3VOzYYI1NWZh77qijeZ6Z5pmv/3HPPdTVV5zm/c7ETj0+awCIELJ4tgtmFmIAJmIAJmIAJmIAJzEGAlV4333xzr/PKo1WIYGMCK2teffXV3pVnh/hY2hheTrMeAkuszOSRzQ8++KBzfBzyL9HWru679957R3cMRDm/c3E0Pic0gSYELJ41wehMTMAETMAETMAETMAEdkGg9rGpKe8cqlkQqLwYAAAgAElEQVRZw2ObOLgO0wjQnjz+6tCGwBIrM2tWRSGuHeov0b722mu94j1zw9jVfX7nYpux4FxMYCoBX+GnEnR6EzABEzABEzABEzCBnRLoelQqnsPJHRNq3zf00EMPjcneaQIBxDN+qMOhDYHalZnXX3/96EeOGWOffvpp58qzQ/4l2rlX9y3xzkUEuqm/SNymxzoXE1gvAYtn620bW2YCJmACJmACJmACJlBB4JZbbqla+TH2nUMPP/zwhsfOWF1W2ni08+mnn66w1lG6CFg866Iz/NzcKzNrV0W98sorB/tLtAiUNe89G/vexSXeuUg73n333cM7mFOYwBERsHh2RI3tqpqACZiACZiACZjAIRJgxURcYVb6PPaxqTvuuKP3fUPvvffehsc7HaYRsHg2jV+aGp6l8ZAeZwXV0LDEqqihNi0dH/GM1ZIpz/Q7P2yCyD40LPHORYtnQ1vF8Y+RgMWzY2x119kETMAETMAETMAEDohA7WNTOLNDA+LDmTNniivOtBKNx9Lefffdodk7fkLA4lkCpMHXOVdmLrEqqgGCWbOgz/JOxVQsS7+Pfe/iEu9ctHg2axdx5gdCYPgdxIFU3NUwARMwARMwARMwARM4DAI///nPN/yaZuqspt95tAoncUioXVnDLw6O/TXPIfYcelyLZ+1beM6VmUusimpPpH2ONfMP89Hzzz8/uPAl3rlo8WxwszjBERKweHaEje4qm4AJmIAJmIAJmMAhEeCxKd4nlIpl6XcerWKlWCkg3HCevQLfH3/88d6VZ7xPDTscphGweDaNXy517cpMBKBSoF0QktPxs8SqqJJNazp+zz339M4/zEddL+UXYzjHsMQ7Fy2eReL+bAJ5AhbP8lx81ARMwARMwARMwARMYE8I4Pjxa4GpWJZ+57EpHq1E5GLFDKICwhiOL+9DIz7vN4vimVfWLNsJLJ615z1kZSZjIzc+9E6v9NHk2lVR586da1+xFeXIPJLON7nvzDOIYzC+ePHi5s0339zce++9m5tvvvnS6tl0BesS71y0eLaizmRTVkvA4tlqm8aGmYAJmIAJmIAJmIAJ1BBAcKl55xDOLCIbq9QUn9U2Es54rJMX/+NIKiA8vPHGG70rz8jbYToBi2fTGaY5INTUrMy8+uqrs+NDIhBj5+OPPz6R/Z133ulfot1stkK8OHXtr7zyylOMNf+QDiEtzj+MhyXeuWjx7ES39hcTyBLwVT6LxQdNwARMwARMwARMwATWSABnEkePx8dYofH+++9vXnrppapVHzmnFvHsmWee2QpkPHr5xBNPbG6//fZtfggDbB988EGneIagQDyH6QQsnk1jCD+tbIqrK/mlx1z/7zuGoPa9731vOz4eeuih7fhQmrvuumsr7ND/GY+l7dB+iTbH+LbbbrskyIvPkD0C/Xe+853tY53kRVpEM+amBx98sMhWzKe+c9Hi2bRx59THQcDi2XG0s2tpAiZgAiZgAiZgAntLgJUz8fFKVo2xCuamm2669KjTEEc1jUt+OQGAYwhnn376aafz+tFHH21X9iDm4czGlSN7C31Hhls8Gw6e1ZF69I/HKxkXcXVl2t+Hfn/ggQey/V/jQwJOac8v0fKur30dH/TJ11577dLj3Zp/WjG+6qqrsqtbmXcQQNlKbHUc4f/ll18ezdji2fBx5xTHR8Di2fG1uWtsAiZgAiZgAiZgAntHoPadQkOFAeLz2NSTTz7Z66DKUU33iAisHGH1B3Zq5Qh5szqH4z/84Q+3+e8d+IUNtng2HDgrzeKjf2PGQFcaHmfuW32Zjon4HfFH4yNd2cnKqhdffHGDAJi+KH84iflSUJ+xq/e62MZzOQE/cuz6TPuUGDP/8MMOtEMpWDwrkfFxE7hMwOLZZRb+tHIC/DclXmD8+QrzuGI5Bl2/jrTyobP35nFD7fG+XF8369OsceYddk+AdmAFzBx99IYbbtjceuutve9u6nJeS+dYlXbfffdtnn322RM/RLB7ouu0wOLZuHZBeJpjbJAnq9kYI6U+Pva4Vq6R9zvvvDOu4gumYgUsj7G25syj46wcfPTRR2dhjKjGI6DYXwoWz0pkfNwELhOweHaZhT+tnADiWdekv3Lzbd4eE+CG1OLZ7hoQ8YzNwQR2QQCn0eLZLsjny6QtcDJbOq84rs8///z2HoMVY2OFgFK6F154YfPII4+4H+Wb9NRRi2enkFQfmENAYw7kcUtWTl64cKHp+OCxxPvvv38vhDM1Aqu3mDNazkEwpu1YpTplhV9uDkK85x2OfT6UxTO1sPcmUCZg8azMxmdWRsDi2coa5IjMsXi228a2eLZb/sdeusWz9fWA1gKaHFdq+q1vfWv7a5s5J3TMMQtnw/uPxbPhzGIK+inv5Gol7uifh7QLq5emPFoYx9A+CmfizH0J71xswRgh7kc/+tE2a/i0XOFXK5xRuMUzta73JlAmYPGszMZnVkbA4tnKGuSIzLF4ttvGtni2W/7HXrrFs3X2ABx5HrOc6rxGx5Wa4kC2EggsnI3rOxbPxnGLqRBhWryfixfik5cCK9Aee+yxyavPEM74Zcl9eFRTdU/37777bpP3zHGNYd5R+MEPfpD98YAoPNZ8HiKcUbbFM7WA9yZQJmDxrMzGZ1ZGwOLZyhrkiMyxeLbbxrZ4tlv+x166xbP19gCcvamrP3Lti0PPCrQaB7UUB+Hs3LlzflRzRPexeDYCWiYJfXOqgMbL/NPw8MMPT3q08BCEMzHhFzin/FAD89f777+v7LZ7+j//FJiywk/CGWJnbbB4VkvK8Y6ZgMWzY279Pau7xbM9a7ADMtfi2W4b0+LZbvkfe+k5ceXYmayp/jh8/BLgmBVoOceVuuG83nnnnaN/PMDC2bQeYvFsGr+YeoqAxrgifRq4Jxr7aOEhCWfigoA2VsRHeKO/p4H3qo398YAxwhnlWzxLW8HfTeA0AYtnp5n4yEoJDBXPuBhxgecFmVz8+dwq5C50rfLuy4eyp5bfIo8+O1udX4OtFs9atea4fIaKZ/SZOPa5IWwRdt0XW5TfIo8WLOfIY666WTybo7Xa5sl4HyOelRxXrOPe4W/+5m8Grz578803veJsYvMylhl3Dm0IjHnBPY8zP/fcc0UDxvx4wCEKZwI0RkCDcbrqTPmxH/PjAWOFM8qzeBbp+7MJ5AlYPMtz8dEVEqgVz7jp4j0E3HjlbqZxxKcE8idf3tWwi8DFjfLhMTYgJpIHP1299iCnaJe2WjzbbS+pFc+6xj4vPB7y+EKuxho3zC+7CDjzjNspcxhOFHlMZbGL+veVOddcYfGsj/w6zqv96d81G47rxYsXO40f+uMBFs46cVaftHhWjao64lABjff+MaZKQffCtY8WHrJwJkY84nrVVVdVzT/MUTfffHPnP8O55xiywk/C2W9/+1uZNGhv8WwQLkc+UgIWz4604fex2jXiGRdz4nFRwuHByeWGAWcT8UU31FOEL90wTMljCn+LZ1PojUtr8Wwct1apasQz3fQxxhHKSKOxrzmBc1NEI4tnrVp0nnwknrQW2i2ezdNec+TKGK39lcE+xxX7mFdwXmsEAgtn7VrU4lk7ljGn2hfcpz+iEfOIn7me1vx4wDEIZ+Ly1FNPVQloXFdq7kdqfzxgqnCG/bqPUl28NwETOE3A4tlpJj6yUgI14hkXIjnP3HylQRcG4rCKY0yweDaG2vg0cznEQyyyeDaEVvu4NeKZxHGcg9zYl/DF2GceGBOUh1eejaE3f5q55gqLZ/O3XcsSGKd9L0mvdVyxq+bHAyyctWzBz945Rxs5tCdQ84J72NdeJ/t+POCYhDO11uOPP94r4vNPvpogn6NLwEc4+8pXvrIZu+JMdshH0nfvTcAEThOweHaaiY+slECNeKYVJl3CmAS2sQ6wLmReebZMR5nLIR5ivcWzIbTax60Rz+6+++6tcN51wy+BjRVpY4LFszHUlksz11xh8Wy5NmxVUp+AVuu4Yg/X/K4fD7Bw1qrVLucD89YrSC/n7k9d7+di5WbXe7hSesy7pUcLj1E4gw/994EHHrj0tAv/tIvb2bNnsz/EkLLVd+5ZSr/+20o4oyyLZyLuvQmUCVg8K7PxmZURqBHPELT6VpXppiznQHPDjajGjTXOOGWmy6pJTxmUxWcc+674wkhcRD3FJX/KKjn7xJctOG+yhfiUz3cF8i3lxY0N56ibgkSA3M2p4stOlau0tXvsh53yGVvfkkOc5h/tpL5pu2E37GrbK9YTG6iHw24I1IhnujEtjScspx3p8zlxnTHBmFZ/pT+leWnc0L/i+CzNFaJF3LTfkUcpaAySr8Y+NrNRT/JSYB6TPTqmveYF8lMgPnnkxgf1g09kkIunvHJ7bKHcXJ1LeaVxaQfySfmrvMhefMibelK33Lw2pW4Wz0R+v/a0eW4F2lDHlVrTp3M/HmDhbL/6hK29TKAkoN10003b+ftyzP5PuR8POFbhTLS4TpUENN6NNjTkfjygpXCGPbq2DrVt3+Mzv5fuT1rXDca6b+NehXudnD/aulzn146AxbN2LA8uJwb0iy++eEJ02WUlcWaZ4LoCNuM84fyVHK9SeiYvnCTS47Sy8ZktOqtMfCoDm0iDs8em+NgRA2mIy3niY5/K4hg3+TFgu8pP46sc8lNQvdN8OM8xyog26VjqZHJcdqlc1Qmba8PQ+uL0lsoVt2hrV/4SByIf7O4qo69upO2LU8tmH+Mx7tQPxu559GlsqBHPNF4YH0MD+atetLPy4li8odK4oW8Rhz6rz0qfzlG5say4pKdvxdDVTzUW4nyk+YAxkQaNhViH3DHSxfkvZRDnjrSM+B0bqBt2slE/7JONnIu2k3YOPnGu6KsbdvYF6pHj25fO53dPgH7N+5s05tiPcVypSfrjARbOdt++tmAagfPnz58YH9dff/2gVWcqXXO/Hi08duEscrn33ntPzD/XXnvtqXt+xe/ac/8RV/i1eMdZV3nHdE73VkP9xiGMGCPcS3E/Ea9H8TPXK4f1E7B4tv422pmFOLs4Ubfddtv2pjE6YLswisktdUxTO5j44kREGiajPseHdExobLGM6MhqUtVNAuXAR8exRc41+cQg5xx7oi3YRj7Ej/nI2UzjKx/ScE6hhXiGXTkGHJc9qVOq8tO97CH+kPqm8ZUP9Y1li1vKv8Qn1i3249q6WTz7w7YP0L/HbG+99db2vUFpP6n9TruydYVU4KPvxLFcSqt0iGFRyNJxxoT6sMa3+qOOk7f6ahyXHNfY4XwuPuUqcJ7yyD+Nr3w4F1noeMxb+WmcxD6fO0a9KBdb+Kygfk+ZMQ+dT/fYQFy2dGyKHeXEIPvT+mosRz6kU/zauUJzOOWOrRtpc3xjPfx5vQTo8xLQEAdiPxhiNddo/XiAhbMh5Bx3zQTiC+5rfkSjVBeuEY8++ujGwtlJQlw7JKAxDz333HMnIwz4ph8POBbhTPcUXPfnDNxPcJ2Pfljr8rg35N6Icri/4TrE/Qn3mpSve6ea+9bWtjm/YQQsng3jdVSxEc9wehngH3zwwVZEe+ihh6qcqDlAMfHUTCrR4dNkJGcOBy134yxHLTqlqgM3BKTXOU3mHMvlhdPIOTlb7JkscQJ1THmz16Sp/LGf9KX4moCjk069SvZgI+eIo6BjlK3QxSDWOVcH5cG+tr44NATZUqqveEZbiVu60OX4SDAQ49Re8oNR6cKpPhXTHdNnxh03L7TVmG0J8Yz2YKyqLWlPbdhO/8+1r8QY6pUGjU2dY0+e9L10HGiMUL6C4sexqnPs1bclTKmf5uKTv+oW+7HsT+0hf+Wn/EvHNGZUz2gjzFTneDz3WQyIn8tL9svWvrlOdZP94kk+yiPaIZ5xrlDdcteO2rrl2juW68/rJ8CYufrqqyc5rtSS+yIe3zx37ly2D66fhC00gdMEeME940Nz7ekYdUf48YD7779/O05yc3RdLocXCxYI92fOnDnxT7qhNSUfrq+333775B8HGFr2LuKrvtwL7HPQvRj3Lrn7UOqm+xvuNxzWTcDi2brbZ6fWRfGMQc2GiMYkxstzp15kh1YOJyjnAJXyYdLFRhwpJiMuONpwsjivIKeua1LD0SNoMiePXJDDp/yxmXKjeBXTyYGTw6xJthRf+Sk+eRGXMmijNGhCjvnpWM7JLDGQE5orI5Yp+2J58bzKlv2qbxQEYnzakLrJVjncSh/j8lnlx/OyvVS3Ln7kafFsP8Qz9QX6GP1KY1HjPh2HGsuM/1zgPHmp36R9N03DPBPzok9TJn0yF9S31ffVT0vx1U8VnzxVR803sRyNrThX545hc2k+Iz/Nj7kyYnl9PFNbZUusT8xPfDSX1MbXXCHbu25Ga+pG+r66R7v9eZ0E6Ee6jo+1kH7A6g/3h7EEnW6tBJg3p/ZrrpH4DlPzWSujKXZxH1G61g3Jlzym/qrmkPJ2GZd+xD0U9w5dgXiluV3ndB/XlU/XubH5kE73GYyPrqB/AMZ7tq74PrcbAhbPKrnT4Y9t4wZRK8/SurNk+Pvf//52UpNjU4lydDQcy5JTWZMpdeCiI0c6TsY4R10OVsyfiZA8Ss5myUEkPnVIN8VXfnKQS3XNiUdKQx3TwDHsje2kYzknM7VP3zX5903qcnD76iv+2IB9ffWVralDndY3x0e2qy7pXudLdSNPtU9a3jF8p21oL/rNmG2plWeltsB+9bM4FtRX1BdL6XVc4yaOJZ1jzxxCX1Kgn1Ee+ad9ju/0Kc6rbxOP76WbPPX9eAOuNMxLadBYjP06PUZZlIntORs5xjniwKsrDJ0b1SZ9Yx8bCLXxxbNV3ah/jm8XC5/bDwL0acYHDj8bY5sxwlh3MIEhBPiFSubmQ+k7zHnUhfHwox/9aLtRP8bLMc2HzAula9SQ/pGLGxlrDoLxXOXlbFjrMeZi3Ztz/8Fn3fswb/OdvqnPxInc6Ke6x+Kcttz9G/cM5Bf7te7ROEYa3QeRD/nWjnNsIk3NfSZxsSXes621fY7ZLotnla3P4GHQavDxHjCWOR/6xkozJojShoj2wgsvbLkwuZScvkrMndGYyOLEmEamjSg/Tn5pHL4z0aodZS/fmRhrAvl3TYSpM6t+w2TbtclBhCP5l+oqh1DxsVlpcpM5x8iPOAo6JieT47owdNnIub5JXbb05SP7sQH7crZjl9pLtlI+8XURVZ20V3zlz3FdgPtsKtWNPEl7rIG+SL+mjcZsc4tntWNffUdjXeMg9pWuNlb8OJZifPKlrymQL321r98pP+IRX/OS8tFe9se+n843iss+FcpyxzSfYHufnYyDrqC5sTRWUls1V5TmOo1l0hGGzhWyZ2rdSE9eDodBgLZk5QaPmD344IPbuY13mDFP0cdeffXV7XFW2Mexdhi1dy3mIsC7rJi/+TVX9vwwBf2H68Y+BcYHYhnvP2Pu+8IXvrCtD3Vi44X3HGOeL90z7VN9+2x9/fXXt+861HW6L37NefrE22+/vbnjjjs2jz322OaVV17Zzj+ag/AtYc2PtpXuB2rK2ec49C1d87mv4jP3NATdG3CMPqprvMaa7n04TrsxDtnzHa6ki0H3apE19x3EVxnkQb6Ky7kYP+YXP5OeMn0tiVT2+7PFsxHtp0HJLy/pl2UYsMe8weF73/vedoJggqqZUIaiZ8IqOVnkpcmUeH1BTqomWiZBtlKIjhOfmQjl0KVpUgdR/YV9TWCCJf9SfGzmfKwnzDmm+sRyFJ84CjoWLyBcnLoYKG3fvs/+NL1sL9WXNqduslXfY/1jnqpbPE97T6kbfaskCMSyD/UzzOnXsB2zzS2e5USlUlvQl9gYx31jWXGUl/pWHEs6x54+FsUz9W36T03Q3FGKr7kk3oQpDbamQfGjg5Me62OQ5tn1XXmVxkpqq/iUxr54a+z3xdfcoPiyh3KnBNo1x3dKnk67GwKMLUQzHFb++dc1n+mfg7yniL7lYAJdBCSe6Rqj/T6Jab/+9a83N91006Uf2FAdSvtrrrlm88ADD8xyz9/FeslziGfcw+DzPfLII5PqynWEFWa8s+yf//mftz+u0DUHUS5xSXOMoXQNZx6nT3Jt5l4/vT5zH8b5dN5Wfqk/QB7Ej76r7lfIK81f8eO9Val9FDe1pRTfx9dPwOLZhDbihp//TDKh9q3Q6pocD+0ckz2TEBecOBFNQL1NygTUNfnESTGd6NKyNbHKPk2S+h7ja5KudciUl2zAZngofcybz7Q/51Q3xS85fBKn4KEgp5K80qD4xFEgXmoTNqQXD8VnTz7EUb3iufhZ9g+tbym+7Nf52M6xXH1W/MiHtF11YywTp1Q3+kBJEFC5h7ynTemPY+equcUz9bkoXOXag/FNP4g3TnyO32M6CU0SdzRu4liK8ckn2qC+qPQxLp/1n1WNW43jUnzdhJGvQjrf6Dh7xY83eKpTPIbNJQaMCewq1TmWp7FZGiuprWo3je2YF5/FT/WtjR/za1E32JTmhtRmf18vAfo8Kz3ee++9QXMZIhq/slkal+utsS1bkkBJPOOaE7e1immsNpNt0d6az1/60pe2Y2pJ3kuVhS+jOUP+Tbx+1trBNYTX3egXSYfcT7EyDdH/2K5DuqdI/SH5ZaVrM/cMum9I2yd3T6B7pegD6n4llw/HGBc1/YD7IeLqPi+1x9/3j4DFswZtxg0VIhq/MKMJdsikeKhx9R8Tlh23mDSY3HCeuoJEknSijWnkPEYHjwmQyS2XLnVoS5O5ytCEGy9yTNbkz4QfA3EUX4w4xgUhN9mSXufgoZDaqOPkpYk7Or+URf7RyexiIKc1MlMZuf3Q+mJLX32jrco/7Q+RXeSj+ubaV+e66mbxbN3iGX1QfSL289g36RuaH2Lf0LE0HfHTsam+ksZVOYxN7FAgD/p17gaPmzSOs+mGLcZP5wqNQfKLN3OpjSo7zhXxBk/zXzxGfdJ8lY/ix/Gnc+le9pfGkmwlHkHxKTutr/hwLuXDMdoihljfaKvqFo8pneoW+4POxX2u/eJ5f14/AcYPKzhoc/rO0O3TTz/drrCJ42b9tbaFSxKoFc+Yv+ImwYr0zO3p3LZEHaYIZ6oLj3Om8/gSts9dRhTPaBvEdF7dM2Q1GNc6hDNEMOaSofMP8bmG3XXXXXNXd1X56x4hvXenn9Hv0uNdxpOX7qO4psfAPQD56V6Dc7pficeURvcONdcD+WC7GNey1/u2BCyeNeTJoGRi4x0aFtEu35wionGhYYVezURTahImNxh3BSZHTVQ4sThOlMnGZKdzTJzpRKZz7IlLWXK8yIu8CaXJXHZpwlV8jlOWbjDIk7zZVGbqvHEuxsd+bqqwG1vYxzQxfzkHyl9lUK6C4qcOpWxPGVAeG3nWhNR+vlMH2ZKWy7mu+nIuppH9HBdP6g0blRH5YHNX3cinq25cqMn3WANs4Af3MdvcK89ol9gnaCvGC/1KY0f9gn4cb4YYpxxTXyK+6sux2I9URhxLsU+QD30wBuKSD+ewibzVV1VmLr7OYQ95KG+Ok48Cn5U/cbGR/ImvOnNcgXPEj8dggN0cp76cw85oe41TpLmxNFY0BuPcSFmUyyY+7GVPyjrG5xzfiR/5xLkirRv1V91Iw9ZXN+JEm8XS+/0gQNux4mzqEwK8noJ+Sn8hT29mEPvAWPFM85/2S4tpzIcIXyp/yv7/s/cuPVQcaZ5+TdlcCwzNuJmyMW7QIBt14WqqwD2WjF2gkaxigLEXyEiMsNzetBC2xQ7UUiFGSLXz9KpWaFSbllh6UdJsS6ovYPUnmPom5/9/Ts1LJUlmnrxE3p+QjjJPXuLyRGRkxC/fiPjpT39aWSlkec1lPy+eRRuI+Z6xBtv1/gDIo0ePtm2otsJZNkwMEtbiKCOUR9oOWQdzjmfbZ9nz7MOMtgDtEd7h2XLN/6zDH85n24bRXskei3uK2lFxLr8Nf7hnlyO9pK1Omdrll+f7I6B4logtBZ4XUMyl0bWRFhXl3Le8KJiIF/Hso48+6lQhULnBeJcjL6gwsxVldp+KrMifsvu4Plt5ch0du7JKm7A5z3VZR14WVeBcn7+W+6JyzsadlwBxYct9WRcd3ez1EXfiQwczHBUzx/IdU84XsSPedFKbuGwnN+KEP23SWxRXeHI8/GZLejnOfp5Pl7TBq0wQaMJkrtfyvATbNnXSEOIZbMkn4pktE7FP2YvnIZ8P8TzEtbHl+uyzGddln6WsX5SRonJS9CwTn7LG1K5nOX9f0TOLH/GMZJ9d9nlussdIQ9QrkfbYwoB013FRN3JPkSOehJ1lynVVfPLXll0Pd9JQVFfgB+cjTbElnkXvgnzcyauieOSv8/80CTAxNxYfbequ/D207Zj3iHmemDTdnwyiDDD/V9QtKbd9imnUa6dPn04W7z179rzQ1szXCHBhDsE5/RiyXWYQwXHSlH8nZ9PNewnxvqtwRl2EH/Sn2F+Do3zCN9+moE3C8ap+GOej3Ud7iHd9tOE4nnV9ime0F4lLUZ8kGwf2iSPXFrUj89f6fzwCimcd2fNg80UBi7M6E9DmG2JL/R+iGcMkuopmkUV1xbO4ni0VEZ1EXmxRcWbPF+3zoov76nYai/wpOxZ+k/d1/I/ruXZXB47zpJdfHb/L4og/TcIt84fj4U8f6c36H+klHF4+RcIg17dJG36v+WVGHtJ4aVtfDSWeRTmMPOa550e8ObbLcV2K56csnOyzsCs+kYa6z3KquONPxDOeqbL0pD4e4dbNr7ieeO7iSVzbpk3xLHVOD+dfyo4r5YcfnVfaNrxn/Mlg6DKQUkyjDmVVzZRpwIqtzBFOPEdL2TKMk2l7sFArcoj3GBGkSi+CHSN51uB4r1NmmohnlGnuiQ9qeU58YBtSPOMdRHzyYebjxf8Q2spEwaJ7PDY8AcWzlsx5oBHNYplhKs9UFeOc/UE04wsvXHiRpOx8tRHPWmavt02cAC/F/IylstoAACAASURBVMs0ohwvH16gqZzi2bzEs1T5rj8SgIDi2XzLAeL5rVu3krbP6LymFhzoXPmTQZsykBfTmrS7Uw01zcYb6zM++hQ5rptzH6cq7vR9mP86y5++IlZ2DPmuurfJOfpZiPeIMkt3bcQz6nzKWdEHdPwbWjwjj+izEKcqUYy40dbgupT9l6WXkTHSp3jWkDqFm0kiEYdQ/hXN/vIlFg4hmiEq9lGpK541LKwLvjyGqWXNoHk2aYDw8ikaGtYFh+KZ4lmX8uO98yageDbf/GOS7tTTaNB57WuIHh0nfzLoUgbqimm0mY4dO9ZLebt582ZhpUG6mghFc7s2hBu2OOLPPNip08F8axFGIeiFHKSMUmbyH8tpk3O8SIwKy7P8PfgVfQfe6VmHP/iX7btyf/5Y3BP5XCYSx3WxDesz/Mv2W+I86Yk45OMd17idDgHFs5p5QcFGxY6XEmPgqRCX/tvV6KQC4asuYuJ3331Xa+hMTeQvXaZ49hKS1R7gJRhfcngZxZck9nkppv5qo3imeLbah82Ea3k24zJA2ySl1Ud0gpnniveNPxlMvQxEvyVW86Q9g2Mb51Kn4cyZM4W1BuHEM7TULeI6wzgxsPjtb3+b3PIVbggwGCos3YV4RrlhVEm07Sm7HCsSz7iHPgHnEaK4j/47x7J9BY5xLS6Eq77EM8Ig34hT/Igb4dKXod/CcfazcVh6/s41fYpnNXOOwszDuqbfp59+umGuoqIXHKLZxYsXt+bIfYtmkUWKZ0HCbRDgqw8vQMoGjQnKZbwM45oUW557XmprdTRYeNEX1QV1jg0959la88l090NAy7N+uA7hKx2SOnVU02uc8+yvncDoDLqdB5MQzH7xi19s9u/f/7wznzL/GNZc5Pp6Hps+v0NcT5sUkZ1t6vAYOl42x1oR9zkfo40fZROWONr50eYvShtt9hDEuJd3eIhlYZnG8RDj6EvgX1a4oj+RPxZhkZ+cY9vEES/ui/TElv4FIl8f/Zcm8fPaegQUz+pxWuVVDE/Ni2dUJqwyde7cud4tzfLQFc/yRPw/FAHFM8Wzocqa4UyPgOLZ9PKkbozonKTuuOJfWApE58ftPISjtecTYhniGVusww4cOPBSRz4Fo7WLZzH/M/OdhciSsh5ak3gWdT3CUhtxqey+Nn5FXFJsCR+xbux4pEjL2vxQPFtbjjdIb4hnvARCNGPlzL6se3ZFTfFsFyHP90VA8UzxrK+ypb/TJ6B4Nv08KoshnVfaMCk7rvgV1jsphAb9UHjrqwxkxTJGizx8+HA7goYOO+0aVsbsI+zTp08XPpKElfpZnJp/DBPHUp/+EtZOKVfajLRi2MAqnjoJSGB4AopnwzOfTYiIZ5h1Y2nGS4BKe0yHeIZZKy98fzIYsgxg2r32YZsXLlzYLpDC4iBNf3x5pT5p63ju8WPIPDcs65goA4pnbZ/c8e/78MMPtx/8otOZYkv9d+jQoV5Ehz6EDP1cjzhXJZbln0YEtL7m7lvzggEM6Y7pbGg7Mtdcinon6wfiXN3J6vP57n8JSKAbAcWzbvwWfTedXUQzOhBTcHSgETD8yWCMMoB4u1ZHo+29997bDtdmyHabH89vW0cjcYw8N0zrmigDDq1o+/SOex+W8teuXUvaecXq42/+5m8UzzKTXyvQjSPQNRHLip5EPo6nzjusMmMuqXyYhJUVgZayH8M0aRuRpnC8N0hzykVLCAuBLjs/V4TnVgIS6J+A4ln/jGcbgp2F2WadEZeABCQgAQmsngDtGIZupuyks8r6G2+8kVx0SC1i6N84glaf3LuKZfkKgQ9T+JkyzvhX1n8gnJTP4hT8whIVEfLGjRuF6f7iiy9emj+6S7yZ74wPAjoJSGAcAopn43A3VAlIQAISkIAEJCCBngnQeWUYWZcOa9yL1dmlS5e2nWWEAIa9+euHwY9//ONZsd2zZ09SEYrylRXLGP6XnbMs1WNz/PjxZPFmODNxLHOkCTF7Tr/Dhw9vnjx5Ulh//Mu//Mvmrbfe2g7TLEszQiJ+pLA+w+oM8Z76SCcBCYxDQPFsHO6GKgEJSEACEpCABCTQMwE6rwwlw0IkRLA2Wzq/DJeKjiv++uuHwZ///Odtns2JLxPyIw51+SHExmqYfYll+ceN8pxK+GOhAPKszM0pPyOuWJRh7ZWtMxCxrl69up3Cos7UNkyD88tf/vIFP7L+1d3//PPPe10ogKGgzKemk4AEygkonpWz8YwEJCABCUhAAhKQwMwJ0DnF+qOtgIZwhsUHE4Hr+ieAcMFCHXNyiF1NhbO8WBaLYlUJUH0wuX37dudFMI4dO/ZcWO4jjmP5eefOnRfEM+ZRfPPNN7eLIDXJp48//niD+FVXKMtf980332zFuiZhNmWGeHbq1Kmmt3m9BFZFQPFsVdltYiUgAQlIQAISkMD6CNAZRdzIW5HkO6n5/3SWYwW99VEbJ8VLFc+mIpYV5erdu3dbCWgHDhzYIJyVLRJQFNacjmXFMwQshmm2WemSMs0ibE0t0LKLEfS9SIDi2ZxKpnEdi4Di2VjkDVcCEpCABCQgAQlIYDACDLF6++23N1iBIIrlhbLsf85jKUJneanCwGDgGwa0FPFsymJZUZZQ5ptYzzHHGcNV+xZ1iuI61DHEM+Y6ZDgj4lfXtN6/f39rBfvll19W1j+IZgj9WLkRhz4tzoKl4lmQcCuBcgKKZ+VsPCMBCUhAAhKQgARmRQCrCDrBffz6EJHosDFcra9fUebB5uTJk9tOLCvX0ZGlg8wPwYwhmjER+BCd1qI4rvnYXMWzV1999YU5y8Yahtml7MCe5wOLstdff/0FMS2szA4ePLgVzbhu6c8HwhVDvhmynSqtiPj4i1DJcN9s/fPVV19tLly4sK1/EOvqzKnWJb+z9yqeZWm4L4FiAopnxVw8KgEJSEACEpCABGZHgA773r17k69U+Morr2wFrtRA6BxiXUEHMvWPzmmVw9IMsRFmTOrND0GAOKXqKFeF77liArCf25xnlJs5imXFOfCXo4jlpAtrKYZ18uN5GVLQqYrfEOdIe5uPBliOMcxzl8PvbP3z6NGjrUXaGPWP4tmu3PK8BDab6laFhCQgAQlIQAISkIAEZkOATlfeYqTJUKyya/Gzjw4dHXEsvbJDJlPt7xLPZpOpK4voHMWzlWWRyS0hQN2FyMgKpjdv3iy5apqHFc+mmS/GaloEFM+mlR/GRgISkIAEJCABCXQigCUD8xGVCWFNjzNM6+HDh53iVHaz4lkZmfUeVzxbb97PNeWIZp999tkL9W4bi7Ux0694NiZ9w54LAcWzueSU8ZSABCQgAQlIQAI1CKS2PuvL6oykKJ7VyNCVXaJ4trIMn3FyQzQr+iCBGDUnp3g2p9wyrmMRUDwbi7zhSkACEpCABCQggZ4IpLI+69PqjKQrnvVUAGbsreLZjDNvJVGvEs0Q0lidc25O8WxuOWZ8xyCgeDYGdcOUgAQkIAEJSEACPRJIZX3Wp9UZyVc867EQzNRrxbOZZtwKor1LNAsLND5ezM0pns0tx4zvGAQUz8agbpgSkIAEJCABCUigZwJdrc/6tjoj+YpnPReCGXqveDbDTFt4lOuKZiGecf3cnOLZ3HLM+I5BQPFsDOqGKQEJSEACEpCABHom0NX6rG+rM5KveNZzIZih94pnM8y0hUa5qWiGeHb06NFZ0lA8m2W2GemBCSieDQzc4CQgAQlIQAISkMBQBH7/+9+/sAJcWEbs2g5hdQYDxbOhSsJ8wlE8m09eLTWmbUSzqFNZdXOOTvFsjrlmnIcmoHg2NHHDk4AEJCABCUhAAgMRaGt9NoTVGQgUzwYqCDMKRvFsRpm1sKh2Ec1CPOODxRyd4tkcc804D01A8Wxo4oYnAQlIQAISkIAEBiTQ1Prs0KFDm4cPHw4SQ8WzQTDPKhDFs1ll1yIim0I0C/EMEWqOTvFsjrlmnIcmoHg2NHHDk4AEJCABCUhAAgMSaGp9duzYsQ33DOEUz4agPK8wFM/mlV9zjm1K0Qzx7Pz587PFoXg226wz4gMSUDwbELZBSUACEpCABCQggTEI1LU+G9LqDA6KZ2OUhmmHqXg27fxZQuxSi2ZhdXb//v3Z4lE8m23WGfEBCSieDQjboLoRYAJOVrDxJ4MxysDly5e7FWDvloAEJDAigbrWZ0NanYFD8WzEQjHRoBXPJpoxC4hWX6JZiGfff//9bCkpns0264z4gAQUzwaEbVDdCCCe8VKiUeVPBkOWARpbczbF7/bkebcEJLAUAlifsYpmdPTy26GtzuCqeLaU0pUuHYpn6Vjq018JUK5oy+XrvZT/EaDm6hTP5ppzxntIAopnQ9I2rE4EQjzr5Ik3S6AFATp3imctwHmLBCQwKQJ0HllFs6yzmLU6G6oTqHg2qSIyicgonk0iGxYZiT4FtLmPUFA8W2SRN1GJCSieJQaqd/0RUDzrj60+VxNQPKvm41kJSGA+BMqsz/JWZ19++eUgiwYons2n7AwVUwQO2nw6CfRBoC8B7fHjx31EdzA/Fc8GQ21AMyageDbjzFtb1BXP1pbj00mv4tl08sKYSEAC3Qj827/92+bIkSMvWZ9lrc4Yqo51Gtu+neJZ34T1XwISyBPoQ0Abor7MpyPlf5jMecGDlCz0SwJlBBTPysh4fHIEFM8mlyWriZDi2Wqy2oRKYPEEqM8Qxvbv3/9cQMtbnTFM/cc//vHmX//1X3vnoXjWO2IDkIAECgj8+c9/3vDRoGwYe5PjLGSlk4AElk9A8Wz5ebyYFCqeLSYrZ5cQxbPZZZkRloAESghgXZDvFGatzliYJ4S1IYYhhZh38eLFTeof6dRJQAISKCJAvyJfF7b9j186CUhg+QRsVSw/jxeTwjbiGSbUTX5DTZDcR6aQzliNtA//h/KTdNCZmpJTPJtSbhgXCUigK4EQx+gosvrmw4cPn3t57ty55x3KTz755PnxPneavKebXttnvPVbAhKYN4F//Md/fF7ftRXOuI+5JHUSkMDyCSieLT+PF5PCNuJZ0xfhXMf6Z7+ezfkFHhYRU1uxSPFsMdWICZGABDabzenTp593GP/Df/gPmz/96U9bLrw/GH4U784zZ86Mwot3gU4CEpBAnwRYFCXquq7bOX9875OxfktgaQQUz5aWowtOTxvxDDEs/4uOAS/N/Lk5Ck98heelzxw17M/5Ba54tuAH2KRJQAKTIXDz5s0XOo1Yn/H+OH78+AvHDxw4MEqc5/ohaxRYBioBCTQmkFI4o/2tk4AE1kFA8Wwd+byIVLYRz4oSjlUTYhNDHJfgEPxIzxBz0/TNS/Gsb8L6LwEJSGCzuXv37gsiWVhd5FfhZHjnGFZgJ0+e3LlYAfEaYkEDy4sEJLAsAmXCGcf/z//5P5u9e/cW1o9RT+a3iv3LKh+mRgJVBBTPqugs5NwYDd8+0I0pnsGwjGPVuTIOTe4pCzf8DvFsVydilz/hX2y5vo0VW5Nw8mHwn0ZJ1bDNJv5n0xL7bbYO22xDzXskIIGpEuC9sWfPnp0dRMS0Meag5D3w2muvlb6DeA9cv3598+23304VsfGSgAQmSKBKOKNe4Zf/iJAXy/L/l/IxfoLZZZQkMDkCimeTy5L0EaLhS0XPlxGGZczVDSmeIUQh4PASZZ+hntllqDmOpRem2tmXKHEs6mjgF9dzH/kQQ0cjX/J5UuQ/9+S/bhFexOHUqVPbOGfzGH/oJMU1hMd+kZUa9xFPtvzwj+uL0lMU33y68Iuwixx+EvcsBxo0xJcwuTfrqrjhT54L90Z68mG0EQSJL9x0EpCABJZAgM7e66+//sL7i7o3/2M4Z1k93hcH6ugTJ05seCfcuHHjpWB4HyCcHTp0qPBd9tINHpCABCSw2WzrlHwdx/9ofwKJ9mTRNVXH2rQrzRAJSGCeBBTP5plvjWJNxz9f6fNyQFyYk0MkSfF1B2EGHlV+xcsTkYlrEWCygg5xiePs8+INsYnj+Rcpx7ifa7kO/7mH4/w4nnVF/ocIlL02/MOPEM+y6YowuJdrw9+ITzZM7uM4aeZ6fvi5SzyjIxPiHNcTRjDGv3zHC/8iLfnr+Z+PG/5HvCMd4T/hck9e2KJsRxhcm80fju9KU5YL+1yfDyN/jf8lIAEJzIUA9eq+ffuev4Ood4t+XLPLqjl1mqlvz549u22jvPnmmy+8q0M4+/zzz7fvmez7LnU89E8CElgOgWgP5+s5jlOv4KIdnL3mlVdeKawb4xramDoJSGA9BBTPVpDXNESjki/azkVIQ0BJ0VAO4aXKrxDP4BUWY1FUgieiTbxw41y8nPOWXcEdASZ7D/txLo6X+c/5EJey4hziFH7kOzhxvChMjnFPVtjKNhpgHfGJtJVtI80wy94T6SAc9sMF//z1CF7BItsYIV0cz6cj6z/nwhEHBDJ++TwOMRSOTRxhZcNocq/XSkACEpgigahvd21v3749aPR5L127dm0rnlH/M4QKR92OxRnCGe+Lixcvzu4j4KAgDUwCEtgSiHZqvq7LCmfRdsxf87vf/W7b/nv69OkLH4bjunx7X+QSkMCyCSieLTt/t6nLigxR2ZdtpyykjSGeEWbewZMXblZ4imtCAIJj1gVvzuddiEkhiIWIVRQ299OZiGvxK0SyvHgW/hLfvON+4oTAFC7CLRIF45r8NhobZfdE3OCFi7JYdn00cLLiGdcS16J0wJlzWWErxLayBk34V5QX+fTFf8LOhhHH3UpAAhKYK4H8yprxnspvL126NGgSqcNv3bq1Fcaopz/66KOttXZWOOM4Qzuz78JBI2lgEpDALAhEuzJfr3GcNmy4aE9mrytqh0cbM65r0paMsNxKQALzJaB4Nt+8qx3zECyioq+7nZqQNoZ4ViSQlYHnJRwvX7ZZB/OsUJU9R7o4H50A/Ik8Ivzsyz17X+yHQJUVz8KPKsEnRKTwP8SzELrC/6pt3JNPb9wT8QgxLBodZdfTCCHtcX2IfGXpKDofPIvENuIV1mdZXhHfsq3iWRkZj0tAAnMlgOVWvGuqtgcOHBg0iXfu3Nk8ePDguXj2hz/8YRvPsDjjPRHvikEjZmASkMCsCNQVzqItm60HabNH+zifaNqEtFPL2vX56/0vAQksh4Di2XLysjQlbcWz7EsEsWPsrytjiGe8UIscL1R4wAVhJ4SoYJYXhzjONUUuxJ4Qz7gmBJ7wj3vxsyg+ReJZNs+5t+jHSx//o3EQjYd83IviHMdCDMOvojA4lk17XF8mSubFtugglQl6cX1WXKNBQ5i74lRmmRZpy24Vz7I03JeABJZA4O7du9u6Mt4zVdsh04uF2ZMnT56LZ7wHnj179sJ/hlCdO3duyGgZlgQkMCMCdYUz2pHRHs7WgWXt1CyCojZ59rz7EpDA8ggoni0vT19KUVZIyb4Y2u4jrowhpI0hnhWlkxctYg38eOEi1sAEYSjEobwAxbUISUWuSDzjOvIN/0IMivzKCkVcVyWeESYNiKpfiHYhnjURlSK9xKkqjOARoiD3FbmwJCPNuBDPYFTkisSzyJuq+HCuSaNH8ayIvsckIIE5E6A+3r9//04BjRU34z0xRHpPnjy5QRyj/i/78Q4ZejjpEGk3DAlIoDsB2njRZs5uOU67Meton2avYb+szZm9z30JSGCdBBTPGuY7QsXcfv/zf/7Pl14M+RdF2/+8dIoEpoZYa10+FfEsXsqkPf8SDrEnxKJIGHybimdxb2wRe0IYygpcReJZiEpNGgBtxLO4p0wMi7jHNq7Pxj/OsQ2hN8SzvJiWvTZ7fVZQDLExZWdP8SxP3v8SkMDcCVAfMxn/rvc/H4mGes/D9K233nrJ0iwvojGsk+GdOglIQAJZAtFGz9drRcJZtEmz11Lf5dv2Wf/dl4AE1k1A8axh/scwtGxF6/5flrjvW0ibingWAlaROBMv4i7iGWJYWVrD/6woViSeUawpqzQCihwNA0SmbDzD7zJhq8wfyn+IXflr8JNzxBEXol5ZvAg76x/Xcy3HinjH9VnxLI5FmPk4kWbihCBW1yme1SXldRKQwFwIUKceOnRop3i2b9++rRX0EOmizj98+HCpxVmIaPfu3Xvh/TVE3AxDAhKYNoEmwlm2fZntx5W1HaedcmMnAQkMRUDxrCFpxbO/CGXZF03RPgJFE3GiTjaUCUp17s1eg3BCnBF2yhzx55qir+0hnuXP8SKOc1lRijDwq67lWYhhWYEs4hnDJLP+x/V5668QkfLCFvGMBgbXhGsjnnFvpDkffpZHllVcn00D/lBeQijLxjnimudBxy+ux89whAtvzuXLYKSRvOC6uk7xrC4pr5OABOZCgDoQYYz6ctfv4cOHgySLuvbs2bM7xbNr1649/ygzSMQMRAISmDSBaCvm6zKOF7X3iq7PtzMnnWAjJwEJjEJA8awhdsWz6kY2ggWiCA3gopdVQ9wvXD4V8SzEKtKK+MR/tvyP8sGW4+F4mXOsyJEuzodlFdzwi2OIQvjNL0Q/zmVFoYhPlXgV/pA3IV6xzeZRCEuE1cQR72iskBbuJ5xgUSSSxfURLxoxpIv/bLPiGXEMv+J6/OS6aPxwPOuIQ4TBNfyPMLivSjjN+hP7imdBwq0EJLAkAsxnFnVl1fbKlSuDJJsPLawCyrbqR3ya1uODJMBAJCCBwQlEWzBfh9FWzLZzI2LR3s1eT9uw6Nq4x60EJCABCCieNSwH0YnPVrhr3+eFwwuqD8Esmz2pxDPiijiTtYbKhsM+QhTXZEWq7DVZcYb8hwH38OJFyIljcQ9+Ef8ih1+cD/GMawiXY9myRRhFcSIdHC/qSBCffKMi/Mk3EsKfrOhXFN+iY8Q3RMCIc5ZJ/h6uD05xfTAgvuRR1uXTgd9cx3Hu5968Iz/yz2sZp/y9+f8R3/xx/0tAAhKYMwFWrIw6uGp7/PjxQZJJvX3r1q1K4Yx31YkTJ154Zw4SOQORgAQmRyDfxo16rEw4o91IGzKui22btu/kYBghCUigdwKKZy0QU/HO6fenP/3ppZdEvCzabnnxDCGYZbMnlXiW9bPrPqIKP8pD1sXx7LG2++FXPoym/iHOFcW1qT9V1xPHJvGN67PCYR3/gwVhUYZpPJW5SHfdMIr8IZy8dVvRdR6TgAQkMCcCd+/erdU+OHDgwCDJCithBLKqH/W+TgISWDeBpsIZtIruKfu4vW66pl4CEigiYOujiMrCjoXA0FYoi/vGEMyyWTFF8SwbP/f7IRDWY0XiV1gA9v3FUPGsn7zVVwlIYFwCUYfGe75su3fv3pc+EvUR8+vXr2+ePHlSKZw9e/Zsc/LkyT6C108JSGAmBIpEMOqvMoszkuVwzZlkrtGUwIQJKJ5NOHNSRa2LeDa2YJZloHiWpbGe/ejcYfmFJQJWZ/xoIFE+EdfCEq0vKopnfZHVXwlIYEwCdCbrzHt25MiRbf3bd1wvXbq0nQKhyuqMoZ0MN9Utm4DWQMvO3y6payOc0U6kzZj/QND3x9cu6fReCUhgegQUz6aXJ8lj1FQ8m5JgloWheJalsa59hLJ8g4f/CGqU776d4lnfhPVfAhIYgwAi1aFDhwrr12ydy6qciFZ9OyzKsCyrEs8ePHiwuXPnTt9R0f8RCYTQMWIUDHqiBNoIZySl6D4F2hczmREeMnmRif8kkCegeJYnssD/dcSzqQpm2exQPMvSWN8+5ZgvhFii0Ynjf98WZ0FZ8SxIuJWABJZEgDoUYSwrlJXtU/f27Qi7Sjjj3L179zbffvtt31HR/xEJKJ6NCH/CQRcJYNQZVUM1SY7DNetlKuIZozl0EpBAOQHFs3I2izlTJp7NQTDLZoLiWZaG+0MSUDwbkrZhSUACQxLYv39/LfHsk08+6TVa1LOsorlLPLt27dr2Q0qvkdHzUQkono2Kf5KBtxXOoizlPwo4XPPlbFY8e5mJRySQJ6B4lieywP9Z8Wxuglk2OxDPsDiicvcngyHLAJ05V9vMPo3uS0ACSyFw+vTpWuJZ33Ug9ez777+/Uzy7fPny1pJkKfxNx8sEQvB4+YxH1kigrXAGq6J7HZpYXIoUz4q5eFQCWQKKZ1kaC92nMsSkGRGNBslcHWnAnNifDMYoA3TYdBKQgASWRgCLsrxVRtH/AwcO9Jp0LEGwKttleYZ1Gu0a3XIJKJ4tN2+bpqxI/KozVJNwHK7ZjLbiWTNeXr1OAopn68x3Uy0BCUhAAhKQgAQ2d+/erSWeMbyzzw9wWJbfvHlT8cwyuS1njJTQrZtAF+EsBNj8hwCHa5aXKcWzcjaekUAQUDwLEm4lIAEJSEACEpDAygjQmdy7d+9OAe3IkSO9rm7MCpqspFllecZKnKzIqVs2gRA+lp1KU1dFoItwhr9F9ztcs4r4ZmvR64IB1Yw8KwHFM8uABCQgAQlIQAISWCkBhja9/vrrO8UzLM8QtvpyDNl88uRJpXj29OnTzblz5/qKgv5OhIDi2UQyYqRoFAlfdYdqEmWHa7bLOC3P2nHzrnURUDxbV36bWglIQAISkIAEJPCcAELFvn37dopnXMPQyr4cFmVYllVZniGuXb9+va8o6O9ECCieTSQjRohGV+Esyo7DNZtnnuJZc2besT4Cimfry3NTLAEJSEACEpCABJ4TyHc0y/7fvn37+T2pdwizSjjj3L179zZff/116qD1b2IEQgCZWLSMTs8EugpnRK/ID4dr1ss4xbN6nLxq3QQUz9ad/6ZeAhKQgAQkIIGVEzh+/PhOyzPErStXrvRCik4bq2juEs8+//zzzePHj3uJg55Oh4Di2XTyYqiYFIle1Dn379+vvVCJwzW75ZbiWTd+3r0OAopn68hnUykBCUhAAhKQgAQKCZw/f76WeHbgwIHC+7se/OGHHzZnz57dKZ5dvnx5O59R1/C8f9oEFM+mnT+pY5dCOIsyk7eadXXN+rmleFaflVeul4Di2Xrz3pRLQAISErHhBwAAIABJREFUkIAEJCCBzd27d2uJZ3RM+3B0cFkwYJfl2cWLF7fX9BEH/ZwOgRBCphMjY9IXgRTCGXEr8odjuvoEFM/qs/LK9RLopxW0Xp6mXAISkIAEJCABCcyKAEMhWU0zb7WR/3/w4MENHazUjoUIbt26tVM8Y2hnH+GnTo/+dSOgeNaN31zuLhK8qHOaDNUkrQ7XTJPjimdpOOrLsgkoni07f02dBCQgAQlIQAISqCRA5/PIkSM7xbOjR4/2Yvl1586dzYMHD3aKZ31ZvlXC8eTgBBTPBkc+eICphLMoK3mhnzpN14yA4lkzXl69TgKKZ+vMd1MtAQlIQAISkIAEtgToNNWxPNu3b98GK7HU7vr165snT55UimdPnz7dnDt3LnXQ+jdBAiGITDBqRikBgVTCGVEp8otjuuYEFM+aM/OO9RFQPFtfnptiCUhAAhKQgAQk8JwAYgXCWN56o+j/w4cPn9+XaufkyZObZ8+eVYpniHaXLl1KFaT+TJiA4tmEM6dj1IrELuqZpkM1iYbDNTtmRu52xbMcEP9KoICA4lkBFA9JQAISkIAEJCCBNRFgPrMisSx/7MqVK8mxvPXWWzvFM4Z1MrxTt3wCimfLzOOUwlmUkXz95HDN9mVH8aw9O+9cDwHFs/XktSmVgAQkIAEJSEAChQROnz5dSzz76U9/Wnh/24N02A4fPlxpdcYqnPfu3dtap7QNx/vmQyCEkfnE2JjuIpBSOCOsIv84pmtPQPGsPTvvXA8BxbP15LUplYAEJCABCUhAAoUE7t69W0s8O3DgQOH9bQ/+8MMPm7Nnz+4Uz65du7b5/e9/3zYY75sRAcWzGWVWjagWCV1th2oSnMM1a0BvcYniWQto3rI6Aopnq8tyEywBCUhAAhKQgAReJPD48eNa4hlzoyFupHJYlV24cGGneMZwUYdkpaI+bX8Uz6adP01il1o4i7LhcM0muVDvWsWzepy8at0EFM/Wnf+mXgISkIAEJCABCWyFqTrznh05cmSDtVgqx0IAt27d2imenThxYkPnTrd8Aggkly9fXn5CF57C1MIZuIr85JiuOwHFs+4M9WH5BBTPlp/HplACEpCABCQgAQlUEsAC7OjRozutz/bu3btB8ErlsHij80v4VT8sTXQSkMA8CBSJXF2GapJqhm3nLc6os1Jaws6Dbj+xhKNCZD9s9XU5BGyJLCcvTYkEJCABCUhAAhJoRYCOE0My853T/H+uQfBK5a5fv7558uRJpXD27NmzzcmTJ1MFqT8SkECPBPoQzqifisR9h3L3mJF6LQEJvERA8ewlJB6QgAQkIAEJSEAC6yOwf//+neIZYtonn3ySDM6lS5e2lmxVVmdYun344YfJwtQjCUigHwJ9CGfE9LPPPnupbtJKqp881FcJSKCcgOJZORvPSEACEpCABCQggdUQOH369Esd1LzlGf/Pnz+fjMlbb721wbKsSjx78ODB5s6dO8nC1CMJSCA9gb6EM4drps8rfZSABNoRUDxrx827JCABCUhAAhKQwKIIfPDBB7XEswMHDiRLN2JclXDGuXv37m3u37+fLEw9koAE0hLoSzhzuGbafNI3CUigGwHFs278vFsCEpCABCQgAQksgsDdu3driWcM76RT29WxaufZs2d3imfXrl3bThbeNTzvl4AE0hPoSzgjpg7XTJ9f+igBCbQnoHjWnp13SkACEpCABCQggcUQYG4xVtMsGqqZPXbkyJENwldXh1XZ+++/v1M8u3z58saJwbvS9n4JpCfQp3DmcM30+aWPEpBANwKKZ934ebcEJCABCUhAAhJYBAEEKoSxrFBWtH/o0KGt4NU10XSOsSrbNWzzxIkTm//7f/9v1+C8XwISSEigT+HM4ZoJM0qvJCCBZAQUz5Kh1CMJSEACEpCABCQwXwJ0WPft27dTPOMarNS6Ovy4efOm4llXkN4vgYEJ9CmckRSHaw6coQYnAQnUIqB4VguTF0lAAhKQgAQkIIFlE0A8Yz6zImuz/LGHDx92hsEKmqykWWV5xkqcJ0+e7ByWHkhAAmkI9C2cOVwzTT7piwQkkJ6A4ll6pvooAQlIQAISkIAEZkng+PHjtcSzK1eudE4fQzafPHlSKZ49ffp0c+7cuc5h6YEEJNCdQN/CmcM1u+eRPkhAAv0RUDzrj60+S0ACEpCABCQggVkROH/+fC3x7ODBg53ThUUZlmVVlmeIa9evX+8clh5IQALdCPQtnBE7h2t2yyPvloAE+iWgeNYvX32XgAQkIAEJSEACsyFw9+7dWuLZgQMHOqeJoaBVwhnn7t27t/n66687h6UHEpBAewJDCGcO12yfP94pAQkMQ0DxbBjOhiIBCUhAAhKQgAQmT+Dx48e15j3bs2dPpxUwWT2TVTR3iWdXr15NsjjB5MEbQQlMlMAQwpnDNSea+UZLAhJ4gYDi2Qs4/CMBCUhAAhKQgATWS+D777/fHDlyZKf12dGjR7fCV1tSiGZnz57dKZ5dvnx5Q5x0EpDA8ASGEM5IlcM1h89bQ5SABJoTUDxrzsw7JCABCUhAAhKQwCIJ/PDDD5tDhw7tFM/27dvXySKMIVosGLDL8uzdd9/tJNItMpNMlAQGIDCUcOZwzQEy0yAkIIEkBBTPkmDUEwlIQAISkIAEJDB/AgyfQhhjPrJdv4cPH7ZO8L/+679ubt26tVM8Y2gnQzx1EpDAcASGEs4crjlcnhqSBCTQnYDiWXeG+iABCUhAAhKQgAQWQ2D//v07hTOEtStXrrRO8507dzYPHjzYKZ4Rjk4CEhiOwFDCGSlyuOZw+WpIEpBAdwK2SLoz1AcJSEACEpCABCSwGAKnT5+uJZ6dOXOmdZqvX7++efLkSaV49vTp0825c+dah+GNEpBAMwJDCmcO12yWN14tAQmMT0DxbPw8MAYSkIAEJCABCUhgMgRu375dSzw7cOBA6zifPHly8+zZs0rxjKGdly5dah2GN0pAAvUJDCmcOVyzfr54pQQkMB0CimfTyQtjIgEJSEACEpCABEYncPfu3VriGcM76QS3cW+99dZO8ezevXsbhnfqJCCBfgkMKZyREodr9puf+i4BCfRDQPGsH676KgEJSEACEpCABGZJ4Pvvv98cPHhwp4B25MiRDatzNnUsAHD48OFKqzNW4UQ8u3//flPvvV4CEmhAYGjhzOGaDTLHSyUggUkRUDybVHYYGQlIQAISkIAEJDAuAcSzo0eP7hTP9u7du6Ej3NQhuJ09e3aneMa8aG38bxofr58eAQQdXf8EhhbOHK7Zf54aggQk0B8BxbP+2OqzBCQgAQlIQAISmB0BOrj79u3bKZ5xDfOSNXWIcxcuXNgpnrGaJ9fq1kUgBJZ1pXr41A4tnJFCh2sOn891Q8QiWNG6Li2vWysBxbO15rzploAEJCABCUhAAiUEfvSjH+0Uz7jm2rVrJT6UH0Zwu3Xr1k7x7MSJExs6dLp1EVA86z+/xxDOHK7Zf752CYG69tSpU1288F4JLJ6A4tnis9gESkACEpCABCQggWYETp8+XUs8a7Ma5rfffru1cGBes6of4pxufQQUz/rN8yrhrK+QI0/zoryWpX0Rb+6v4llzZt6xPgK2StaX56ZYAhKQgAQkIAEJVBK4ePFiLfHswIEDlf7Qac4vKsBcZk+ePKkUzp49e7Y5efJkpd+eXCaBEFqWmbpxUzWGcEaKHa45br7XCV3xrA4lr1k7AcWztZcA0y8BCUhAAhKQgARyBO7evVtLPMOSBHEMCxKGY3IfwhuWawhrnH/8+PELvmOtxrVVVmec//DDD1+4zz/rIKB41k8+jyWcOVyzn/xM7aviWWqi+rdEAopnS8xV0yQBCUhAAhKQgAQ6EEDw2r9//04BjRU3Dx06tDly5MjzRQZCNEM4O3z48Obf//3fX4jJW2+9tcGyrEo8e/DgwebOnTsv3OefdRBQPEufz2MJZ5GXDtdMn6epfVQ8S01U/5ZIQPFsiblqmiQgAQlIQAISkEBNAnRw6TghZmEl8vDhw6312MGDB3eKZ/lOcfz/9a9/vfnVr361+fu///sNE/9znGGYLDDAfpVwxrl79+5t7t+/XzMFXrYkAiG4LClNY6ZlLOGMNDtcc8ycbxa24lkzXl69TgKKZ+vMd1MtAQlIQAISkMCKCSBMZYdX7tu3b2tBduzYsVoWZyGSFW337Nmz9TsvkGFtxlxnu+Y74z5ENjre4ceKs2p1SVc8S5flYwpnDL3O1w9Hjx7dkL+66RFQPJtenhij6RFQPJtenhgjCUhAAhKQgAQk0CsBRCmGXOY7t6n+M3Tz6dOnz8WvEMHqbhHYrl69uhXh3n///efxDOs1hnQytNSOeK/FZBTPFc/SYB9TOEOIQSjL1yeurpkmb/vwRfGsD6r6uTQCimdLy1HTIwEJSEACEpCABGoQ6FNAY8GAN954o7V4ViayYb3GfGh0yh89elQjlV4yNwKKZ91zbEzhjNg7XLN7Hg7tg+LZ0MQNb44EFM/mmGvGWQISkIAEJCABCSQg0IeAxuIB+Pvxxx9vha4yIazN8T/84Q+bd999V+EsQd5P1QvFs245M7Zw5nDNbvk31t2KZ2ORN9w5EVA8m1NuGVcJSEACEpCABCSQmABDqZinLD/Equ3/S5cubWNIZ4zVNnetrFlXRFM4S5zxE/VO8ax9xowtnPHMO1yzff6Neafi2Zj0DXsuBBTP5pJTxlMCEpCABCQgAQn0RABrkf3793cW0FihEzEs3Lfffrud/L+uQFZ2ncJZEF3+VvGsXR6PLZwRa4drtsu7KdyleDaFXDAOUyegeDb1HDJ+EpCABCQgAQlIYAACTMB/6NCh1gIa4tuVK1deiClCCJP8d1k8IIQzhDjd8gkonjXP4ykIZw7XbJ5vU7pD8WxKuWFcpkpA8WyqOWO8JCABCUhAAhKQwMAE7t+/v2GlzDZDNl977bXNDz/88FKMGRbadvEAhbOXcC7+gOJZsyyegnDmcM1meTbFqxXPppgrxmlqBBTPppYjxkcCEpCABCQgAQmMSOD27duNBTSszu7evVsa6zaLByCcvfPOOxstzkqxLvKE4ln9bJ2CcEZsHa5ZP8+meqXi2VRzxnhNiYDi2ZRyw7hIQAISkIAEJCCBCRBAQGsyhJNJwul8lTnONVk8QOGsjOTyjyue1cvjqQhnDtesl19Tv0rxbOo5ZPymQEDxbAq5YBwkIAEJSEACEpDAxAjUFdD27du3efjw4c7Y1108AOHswoULWpztJLrMCxTPdufrVIQzBBdX19ydX3O4QvFsDrlkHMcmoHg2dg4YvgQkIAEJSEACEpgogUuXLm1effXVyjnQ6DwjeOxyXLNr8QCEs8uXLyuc7YK54POKZ9WZOxXhjFg6XLM6r+Z0VvFsTrllXMcioHg2FnnDlYAEJCABCUhAAjMg8MEHH5QKaAztrGN1FsmsWjxA4SworXureFae/1MSzhyuWZ5PczyjeDbHXDPOQxNQPBuauOFJQAISkIAEJCCBmRG4ePHihuGZ+VU4X3/99VpWZ9nkFi0eoHCWJbTufcWz4vyfknDmcM3iPJrzUcWzOeeecR+KgOLZUKQNRwISkIAEJCABCcyUAILGu++++4J4xnDN3//+941TRCctu3iAwlljhIu+gbJ2/vz5RaexaeKmJJwRd4drNs3B6V+veDb9PDKG4xNQPBs/D4yBBCQgAQlIQAISmDyBvIB25syZxlZnkcgvvvhic+3atY3CWRBxK4FiAlMTzhyuWZxPcz9K/Y4oqpOABMoJKJ6Vs/GMBCQgAQlIQAISkECGAB0sRLODBw9umL+srcMfFg9wVc22BL1vDQSmJpw5XHMNpc40SkACZQQUz8rIeFwCEpCABCQgAQlI4CUCCF/3799/6XjTA4hv3377bdPbvF4CqyDwxz/+8YVh0jHfYIpnry1Ah2u2Jed9EpDAEggoni0hF02DBCQgAQlIQAISGJEAghqdfYZ0PX78+PmPYzoJNCWAQIS4Srlagit6PnhWdj0fPEshmrEdUzibwnBN5lgkHkO6tnk3ZBwNSwISGIaA4tkwnA1FAhKQgAQkIAEJLI4AHctHjx5th2CyoADzmDHULH7vv//+tvN/48aNzQ8//LC49Jug9AQoUwhFLEjB9ty5c1vRqMsw4fSxrOcj4thXX321TcuhQ4deWLH2tdde27BabYhiDIksciGgjSmcTWW4JuLZm2++ua1v2ixWUsS37Bh59/XXX2/eeuut7fDyzz///Hm9duvWrc3Zs2d35l2Z3x6XgATmSUDxbJ75ZqwlIAEJSEACEpDAqAT+9//+39uOJZ3Kp0+fbq1o6HAW/e7du7c5ceLE5s6dO6PG2cCnTwDxbN++fVthAmEpfnMS00jD3bt3NwhkBw4ceJ6GSEvZFqGsyI0tHE5luCaCGQI99c0777yz+dnPftZqxd8ixnGMvGM4OXn3zTffbBc1KarTOPbs2bPNzZs3t/k7tEVcxNetBCQwHAHFs+FYG5IEJCABCUhAAhKYPQE6l6yWieXFLtEs3+lEaHv77be1Qpt9KegvAWXiWV5wCjHt/Pnzk7JMI/4XL17cYGmWj/Ou/9zzwQcf9Ae3hc9TGK4Z0Q7xLOqVJ0+ebC3Rfv7zn2/KLPfi3jpb/KB+wrKMlYAjnF3bEPN+9atf1QnGayQggZkSUDybacYZbQlIQAISkIAEJDAGAawyWCWzSecy2/nECu3IkSOLmc9qjDxYcph1xbO8EDUFMY24M3x5//79jYWzSM/evXsnI6BNZbhmlPe8eBb1Stayta2IRt4hwjHMNvxtuv3lL3+5UUCL3HIrgeURUDxbXp6aIglIQAISkIAEJNALAaxQsDhrK5xFZ5ShTh999FEvcdTTeRNoK56F+BTbMcQ0hJeiIacRp7pbBLQpDAOcynDNKNFl4lnUK4hoMGZ+uKYiGvMyYhkbfrXdMpx07GG2wcutBCSQloDiWVqe+iYBCUhAAhKQgAQWSQBRg3mA6NS37Vhm76OT+b/+1/9qbaFTV4jwur/OGzYXFq+88kryctG3mIZg0maoZlmeYL1WJgAhIpXdt/TjV69e3Vn/sGAJHOouskDesRBB148C1G/Mg0Y9WZZ3i3w5mCgJrISA4tlKMtpkSkACEpCABCQggS4EWFXz448/3tlxzQpkVfuIcG+88cZ2COfSO/ymb3oCXl5Mo6x2cVeuXEkqaGHBhoVmkdtlgVX13NU5hwBUJAQyx1id+6dwDWlAaOPZg1eVu3Tp0iZl2gh3CpaDVWn2nAQk0JyA4llzZt4hAQlIQAISkIAEVkfg3LlzyazOonONeHb48OGkooNC1fSEqjnkyeuvv74th7EAAWW0rsPKqMs8Z2V8WKmzyPUtniEm5eP061//ejbCWdQvbJnM//r166Urc/7www/JrM4iXCzYsD7TSUACyyKgeLas/DQ1EpCABCQgAQlIIDkBOpiIXNE5TLXFsqYP0SHf8fe/glrTMtBETMPKqMhSq2mY+esPHjxYuDJtn+JZzBuWjQtpSzGkMVW90cafWBGTjwBZSzTyjtU12/hZdQ/DQB26mfxVpIcSGJWA4tmo+A1cAhKQgAQkIAEJTJ8AcwK9//77yTuYDJVi5c1sR919ha4ploEqMe327du9lGGGbhYN/+tLPFvCcM0qQYtzDx482FqaMQQdcevOnTvbY7vua3qexQeK8m76tb0xlIAEyggonpWR8bgEJCABCUhAAhKQwJZAX511OpeKZ4plUxTLdsUpK6b93d/9XS/iGXF4/PjxS7VQX8/jkoZr7hK7sLA7ceLE5j//5/+cdL6zCFfx7KViO8kD5Fdfq6OyyA5+l/0IWzcvAopn88ovYysBCUhAAhKQgAQGJ9BXZx3x7NixY70JD7sEEM8r3LUtA3v37t0Kvwyt/Nu//dveyvBQ4tlSh2uGmJXfUve8++67m+PHjyueDf5GmU6An3322fbZ7WOILX7WqV+0UJxOedgVE8WzXYQ8LwEJSEACEpCABFZOgC/nly9f7mXYZh9zRdXpsHiNwlmTMpAVy1hZkw4vcwHi7t69W6uT3CQ8ruXZQLjOu9Ri9hqGa4Z4FqLZhx9+uLUI+vbbbzcIh3E+1Zb6sijv8nnp/2ICWG3xDMCxT/fll19uWHm3T/EM/xHB878Q7khnX9ZvfbJbo9+KZ2vMddMsAQlIQAISkIAEGhCgI8Pqcak6luEPHZef/OQnvQgPTYUKr1dMy5aBKrEs/+ggkvQhAjM0tKhTnVo8KxquyWIe8ZwuYcuCAQgxb7311ua7777bUKfhEDSuXr2aPK0sGBDiar68+H83gaHEs90xaX9FWJ6dOnWq1BOeZeodBDbd9Akonk0/j4yhBCQgAQlIQAISGJ3AyZMnN1iopOxI/+IXv9gw7C0rWriviDVGGWgiluUfRjr63J863qxEGyJPNsyU4lnRcM2f/vSns19dM+opVgll/rG8aBY84Zt6JWGEOj426NoTqCuecV2ZSBnnulqVtfWnjngW6aTuYF83bQKKZ9POH2MnAQlIQAISkIAEJkHg0aNHm2vXriUTzxg+9cYbb7hgwP8/KXxq0UX/djPtIpYVPZDMn5WSO8IZ1l9FLpV4tuThmlnRjLqrSph4++23k8579tVXX20IU9eOwP379zdYa8XzxH7M/YdQxv8YNh3XZS00eT7Onz///P7wB3/zDutn/MiWD4ZTcj/HuAersPCD4wizdVwT8UzLszpEx79G8Wz8PDAGEpCABCQgAQlIYPIE6EjQgUhlfXbhwoXNP//zP2/9ZMibPxlEGThw4MDzzmp0WrtuU4tl+QeWzjuCV9d4xv1YLpVZ1MRQL1aL7PIrii950MXPvu9F7AirsqItohniFfG4c+dOrbmsyLt33nmn0t+isIqOUT9i5dbV2ilfvtb0n/JNPvMsIGyxj1iG45ngOMcQnPhlBS2u4zzHEcEQv8KvuC/LMuYdy+YXw3u5P4Qztoh3IchxLnt91r/sfh3xLOJLPHTTJ6B4Nv08MoYSkIAEJCABCUhgEgRSdTK/+eabDfMsIcjRwfAngygDdI737dvXWYTqWywreiA/+eSTzvGmg89QZhYhqHLBq+32N7/5zUtxRfT593//98k+jwgYZdaviGZPnjzZMNfYRx99VCo8ljH9+OOPOy8cQBwQXrQ6K6Nc/3h8rMkvGBDiWYhjXJd1RZZonA//uC/rysQznkP84vnKurgegW+X494Q8hDJ8r/wizTm07HLb8+PQ0DxbBzuhioBCUhAAhKQgARmSeDTTz/dMFdZkdVFnWMPHjzYMH9amVXNLKEY6WQE6ES+8sorLwk7dEKrfmOIZflEE3fmC6uK565zWIMxBLTPzjSdekSEfFyyQ9/yaZvCfwSLIvEMUQJmbUSzSBe8jxw5sqF+qlOP5a9BOGPhgevXr/eadxHfpW/JD8pnlXhW9IwgsMYQzzwjxLAm4lmRPxwjXk3Es/xzlv+PZZxuHgQUz+aRT8ZSAhKQgAQkIAEJTIYAVhoMc6LDmO9Elv3nWizOEM6m3kmfDOgVRuTPf/7zS6JOvrPJ/ymIZUXZgzDVVkBjyGTMtVTkd6pjYfGS5crQtKm7vHgWohlWrCnqFAR9BDTEjLJ6rOh4WJxRLxYJOlPnSvyI95REnF3iWV5Uq2KMX+Qb5b2JeFb0gYcyhz9NxDPC5PqiXzyLPPe66RNQPJt+HhlDCUhAAhKQgAQkMDkC8QWeSc2LOpRxjI5ldHKxDMkPg5lcwozQqATKxLNjx45thQ2GNF65cuX5hOGjRrYkcDrr//2///cNcc4KVGX7WJtxLUM1ubdPF53/bFywyOk73BRpCvGMNCCeMMyU/ZRxxy+sx86ePbvTCo26LeZX+/bbb5PGIwWvJn5QL1MOpuLIB8poXiSLYZuITmWOdw9CIIJU3sKyiXhW9K6K56eJeLaLawho+K2bNgHFs2nnj7GTgAQkIAEJSEACkyVAR4ZJuenkIGjQYWHYE7979+5thzHRCUU0s2Mw2WycVMRCPJuTWFYGEGuoixcvbp8PrMqyghWLInCMzjzXFFm5lPnb9jhiQF5MIE4prLbaxqnJfQgWhw8f3opm3333Xa9iFUywaGPhBoaKZus2BDMWPEG86zJUtEna+752KeIZ+USZppwjvGFRybuH56vpsM2hxDPKGnGuEgT7zn/9r0dA8aweJ6+SgAQkIAEJSEACEqggQAcAazTENH5YYkSnpeI2T0ngBQKIZ3v27FlU2cGKBuGH5wNLTX5YmXEspdXUCyAL/oSFS1bEm8NwzUgKdQx1SldmCClRX2GlVOWyeZet24bOu6o4pji3BPEsRCgszoqEr6mLZ3kruxT5qh9pCSiepeWpbxKQgAQkIAEJSEACEpBASwKIFfmhVS298rYMAUSnrGjGPmJCVyEqE8Qkd0kfAhnpR5zIWt7NSTjsG+4SxLMo40X5SjmYqnhGfHkei+Ldd77rfzMCimfNeHm1BCQgAQlIQAISkIAEJNATAcWz9GARRrKiUYhoWOoszYVVGUJE0ZxXkXaEtKULh03ydgniWVie5S24yOfscM4sl7DGzFqqcT/lJHss7gmBDsvDXY778Ydnj3KZ/yHqhnAW1+zy0/PjElA8G5e/oUtAAhKQgAQkIAEJSEAC/4+A4ln6ohACQQhHbJdg5UJZKbMqy6Y1v4+opnD2YjmbqniGqMRw5xB6EaDIz6L5wchTrMs4jwDGfVkRNQRkjkX+x7ORFcpSi2f58pf/T7zqiHEv5pj/xiCgeDYGdcOUgAQkIAEJSEACEpCABF4iQKeWzqQuDYGwlMl22Oc6XLOuVVk2rfl9ylZWKElDef6+TE08g2hYZZGHWI7hqB/Yp1wXOcpICGLcR35zPekLyzSOhxiHaBXnwz/8zh+Lc4i1nGO7y0Vcub7sh8BHnHXzIKB4No98MpYSkIAcTvQMAAAgAElEQVQEJCABCUhAAhJYPAHFs3RZjGCAeJAXkEI4SBdSep8oB22syvJpzf6HxRzSnp7mbh+nKJ5FrIkb5aGpK7uvjV9Nw/b6ZRJQPFtmvpoqCUhAAhKQgAQkIAEJzI6A4lm6LMta4ISINNXhmimsyiKNZVuFs/KyNWXxrDzWnpHAsAQUz4blbWgSkIAEJCABCUhAAhKQQAkBxbMSMA0Pz2W4JqJNkXVcmQDW9njZML+GWBd7ueLZYrPWhCUkoHiWEKZeSUACEpCABCQgAQlIQALtCSietWcXd5YJUlO1vCqykGsrkhXdN1Vru8ivKWwVz6aQC8Zh6gQUz6aeQ8ZPAhKQgAQkIAEJSEACKyGgeNY9o4vEqCkLSOR5keiV4hgTteO/rpqA4lk1H89KAAKKZ5YDCUhAAhKQgAQkIAEJSGASBBTPumXDXIZr5lPJqoMpxLKsH+fPn1c4y4Mu+a94VgLGwxLIEFA8y8BwVwISkIAEJCABCUhAAhIYj4DiWXv2cxuumU/pqVOnkglo+AUPXT0Cimf1OHnVugkonq07/029BCQgAQlIQAISkIAEJkNA8ax9VsxtuGY+pX/84x+TiGcsQIBfuvoEFM/qs/LK9RJQPFtv3ptyCUhAAhKQgAQkIAEJTIqA4lm77JjrcM18aosEwOxQzDr7U10YIZ/WKf1XPJtSbhiXqRJQPJtqzhgvCUhAAhKQgAQkIAEJrIyA4lnzDEf4wNoqLyzNTUQi7+/evftSOvLpqvqPiKhrTkDxrDkz71gfAcWz9eW5KZaABCQgAQlIQAISkMAkCSieNc+WImutKa+uWZRChlkywX+VMLbr3NzSXMRhrGOKZ2ORN9w5EVA8m1NuGVcJSEACEpCABCQgAQksmIDiWbPMnftwzR9++GFTJP7tEsry57/88ktX1mxWdF64WvHsBRz+kUAhAcWzQiwelIAEJCABCUhAAhKQgASGJqB4Vp/4nIdrks9YihUNN80LY7v+Y7GGf7r2BBTP2rPzzvUQUDxbT16bUglIQAISkIAEJCABCUyaACLIqVOnJh3HqUSuyGJrDkMXGaJJHpeJYghqWNRdu3at9Jq4F38QfnTdCCiedePn3esgoHi2jnw2lRKQgAQkIAEJSEACEpDAQgjMcbhmnSGaly9ffi6GIaSGSFa0RWRDiNN1JwBr2OskIIFyAopn5Ww8IwEJSEACEpCABCQgAQlIYFIE5jZcE2Fm1xBNhl4WrQ76+PHjQgEN4azo+klllJGRgAQWRUDxbFHZaWIkIAEJSEACEpCABCQggSUTmNNwzbpDNBHYylzREE8s73QSkIAEhiSgeDYkbcOSgAQkIAEJSEACEpCABCTQksBchms2HaJZhQMLs+ywzTnM61aVHs9JQALzJKB4Ns98M9YSkIAEJCABCUhAAhKQwIoIzGG4ZpchmlVZGdZ2X375pStrVoHynAQk0BsBxbPe0OqxBCQgAQlIQAISkIAEJCCBNARCQJqqFVaKIZplpBDlmBetanhn2b0el4AEJJCCgOJZCor6IQEJSEACEpCABCQgAQlIoCcCUx6umXKIZk/49FYCEpBAZwKKZ50R6oEEJCABCUhAAhKQgAQkIIF+CEx1uGZfQzT7oaivEpCABLoRUDzrxs+7JSABCUhAAhKQgAQkIAEJ9EZgisM1+xyi2RtIPZaABCTQgYDiWQd43ioBCUhAAhKQgAQkIAEJSKAvAlMbrukQzb5yWn8lIIGpE1A8m3oOGT8JSEACEpCABCQgAQlIYHUEpjRc0yGaqyt+JlgCEsgRUDzLAfGvBCQgAQlIQAISkIAEJCCBsQlMZbimQzTHLgmGLwEJTIGA4tkUcsE4SEACEpCABCQgAQlIQAIS+H8EpjBc0yGaFkcJSEACfyWgePZXFu5JQAISkIAEJCABCUhAAhIYlcDYwzUdojlq9hu4BCQwUQKKZxPNGKMlAQlIQAISkIAEJCABCayPwJjDNR2iub7yZoolIIF6BBTP6nHyKglIQAISkIAEJCABCUhAAr0SGGu4pkM0e81WPZeABBZAQPFsAZloEiQgAQlIQAISkIAEJCCBeRMYY7imQzTnXWaMvQQkMBwBxbPhWBuSBCQgAQlIQAISkIAEJCCBQgJDD9d0iGZhNnhQAhKQQCEBxbNCLB6UgAQkIAEJSEACEpCABCQwDIEhh2s6RHOYPDUUCUhgWQQUz5aVn6ZGAhKQgAQkIAEJSEACEpgRgaGGazpEc0aFwqhKQAKTI6B4NrksMUISkIAEJCABCUhAAhKQwFoIDDFc0yGaaylNplMCEuiLgOJZX2T1VwISkIAEJCABCUhAAhKQQAWBvodrOkSzAr6nJCABCTQgoHjWAJaXSkACEpCABCQgAQlIQAL9Enj8+HG/AUzE9z6HazpEcyKZbDQkIIHFEFA8W0xWmhAJSEACEpCABCQgAQnMmwCiz9GjR+ediJqx72u4pkM0a2aAlz0nEGLr8wPuSEACLxFQPHsJiQckIAEJSEACEpCABCQggTEIrEU862O4pkM0xyixywgTK8hTp04tIzGmQgI9EVA86wms3kpAAhKQgAQkIAEJSEACzQisQTxLPVwzrIaw2PvRj35U+Dt//vzm+++/b5YZXr0aAopnq8lqE9qBgOJZB3jeKgEJSEACEpCABCQgAQmkI7AG8SzlcE2HaKYre2v2SfFszblv2usSUDyrS8rrJCABCUhAAhKQgAQkIIFeCSxdPEs1XNMhmr0Ww9V5rni2uiw3wS0IKJ61gOYtEpCABCQgAQlIQAISkEB6AksWz1IM13SIZvoyp4+bjeKZpUACuwkonu1m5BUSkIAEJCABCUhAAhKQwAAEliyeXb58+aX5yO7fv1+bqkM0a6PywoYEFM8aAvPyVRJQPFtltptoCUhAAhKQgAQkIAEJTI/AUsWzLsM1HaI5vXK6tBgpni0tR01PHwQUz/qgqp8SkIAEJCABCUhAAhKQQGMCSxTP2g7XdIhm4+LjDS0JKJ61BOdtqyKgeLaq7DaxEpCABCQgAQlIQAISmC6BJYpnbYZrOkRzumV0iTFTPFtirpqm1AQUz1IT1T8JSEACEpCABCQgAQlIoBWBpYlnTYdrOkSzVbHxpo4EFM86AvT2VRBQPFtFNptICUhAAhKQgAQkIAEJTJ/AksSzJsM1HaI5/bK55Bgqni05d01bKgKKZ6lI6o8EJCABCUhAAhKQgAQk0InAksSzusM1HaLZqch4cwICimcJIOrF4gkoni0+i02gBCQgAQlIQAISkIAE5kFgKeJZneGaDtGcR5lcQywVz9aQy6axKwHFs64EvV8CEpCABCQgAQlIQAISSEJgCeLZruGaDtFMUlT0JCEBxbOEMPVqsQQUzxabtSZMAhKQgAQkIAEJSEAC8yKwBPGsarimQzTnVR7XElvFs7XktOnsQkDxrAs975WABCQgAQlIQAISkIAEkhGYu3hWNlzzT3/60+azzz7b/OhHPyr9IbohYugkMDQBxbOhiRveHAkons0x14yzBCQgAQlIQAISkIAEFkhgzuIZAsTRo0dfEsdu3LhReDyEtPPnz2++//77BeamSZoLAcWzueSU8RyTgOLZmPQNWwISkIAEJCABCUhAAhJ4TmDO4lnRcM3XXnvtJTEtRDOENizVSLNOAmMSUDwbk75hz4WA4tlccsp4SkACEpCABCQgAQlIYOEE5iqeFQ3XDJGsaOsQzYUX5JklT/FsZhlmdEchoHg2CnYDlYAEJCABCUhAAhKQgATyBOYonpUN1ywSzRyimc9x/0+BgOLZFHLBOEydgOLZ1HPI+ElAAhKQgAQkIAEJSGAlBOYonhUN18wLZw7RXEkBnmkyFc9mmnFGe1ACimeD4jYwCUhAAhKQgAQkIAEJSGApBH7zm9+UzmkWAppDNJeS28tNB6I1VpE6CUignIDiWTkbz0hAAhKQgAQkIAEJSEACEiglUGV1Nschmlgg6SQgAQlI4GUCimcvM/GIBCQgAQlIQAISkIAEJFBB4I9//OPmypUrm/v372/Yn7vD8ub777/f3L17d3PmzJnN6dOnt1vS+Pjx402VqHTv3r0XrM/mPETzhx9+2PzDP/xDZXrb5jUMWVjh+vXrm3Pnzm1/ly5d2ty5c2d7vIpx2zC9TwISkEAqAopnqUjqjwQkIIEGBGik00CNX4NbvVQCzwksocP6PDGZnXg+SN8aO1O///3vMzTS7wZf6p+1Mk5PdX0+UnYOHTq0FY1ef/317RYhZG5iGs8DghmCV6QnhltmtwcPHtwOa0NgK3KIbFwPgznXW9QLb7755jYtqeoi/Pwf/+N/bE6cOLH5/PPPN4iNT58+3f4Q0x48eLC5evXqNswbN27Mml9R2fCYBCSwDAKKZ8vIR1MhAQnMgAAN9EePHm3ee++9zWuvvbY5e/bs8x8N7pMnT247HXNudM8gGxYVxYsXL247GwwNosNa1qmbQ6LpiNOBxdpj3759myNHjmzokNNhjQ5pqo7c1HnQeaSeoMOZylH/wBiLD+ofOrHvvvvu5v3339/uw5hw18I4Fdc1+0N5QnCi7OR/cxHTSANx3b9//0tpyKcp/iOwUVflHc/YnOvgSA/1Du0TxC1EtG+//TZOtdrS7qG++eabbzZ/+MMftvUQ3Mt+YcWHqKaTgAQkMCUCimdTyg3jIgEJLJIADWoan/HFlQZpUQOShuLNmze3DXiEEJ0EdhFANIsOHdvoyM5JTKOjhsUGgs6uDmxYhSxd4EHg+vWvf73N2xQdSDqpiHEXLlzYWnwU1T9cQ6eVzjLDqVIKd7vKsefnSYAyE3VOth4q2p+imPbb3/52c+zYsRfq0KK4Fx3bu3fvVnyeZ85VxzrEsxC3sAhrK+Z/8cUXGz7yPHv2rFQsi3CyW+qod955Z8P9OglIQAJTIaB4NpWcMB4SkMAiCWBFRqPz448/rt14pNHYpbG6SJAmqpBAXjzLd/KiYztVMY3OEp3XAwcONOrAcv0HH3xQyGQJBxHPnjx5srX8oAPJfEBt3XfffbcV7hkWle2cVu1zLWIm8zzpJFBGgDIUdUy+7tn1f2wxDQE+xPhdcS07j4CGMLQ0lxfPyGfqBDg0EfP5aEj9VSbWV9VBcY77rYeWVsJMjwTmS0DxbL55Z8wlIIGJE0A4YygmQxWiIdhkixUIHVgtQCae0SNGb5d4lu/0RUd3CmIandeITz6edf4vteNKcQrxLOoL5ghqYw2GcMbwq6ZWH4Qblh/RcaUeYkiaPxlEGUBI6fIMZ5/zIcU0rMHbWpxl48w+1rJVgtIcnxvqZuqNqH9ii9U8YhbDu3c5ygjW9l2Es6iHsIa1HbSLuOclIIEhCCieDUHZMCQggdURoHH+0UcftRbOorHK19633357dfxMcD0CTcWzfMcvOr5Di2kIyyk6r3v27Nncvn27HqwZXZUXz6gP6KCTf1Ud9WwS6QDT6ezSeeVe/KAjHJY6zEXnTwZRBpifMF+vpPjfp5jGfGW7hog3SQN+lc1VGtZXly9f3szpd+3atZfEs2iXIOaT/1WCFmI/1rNxT5ct/tgOytbu7ktAAmMRUDwbi7zhSkACiybABLk0lLs0GONeRDisP5gPjbmh/MkgykBMpt+ko1d17VBiGkOdmg7VLIs3DKo6cVhJIEbN6YfFalHHM6zBGAaOQF/mOPfWW29thbaoR9pusVrDAvZ3v/td52FuZXno8Zcn3JfJi0xSiWk8G1HPpWKMFWyZqI14hhV52+dvqveR3rKh3YjtLEaSMu5an5XV9h6XgASGJKB4NiRtw5KABFZBgMY5jUqGOKRoPNJhxr+/+Zu/6eULf6oOhP682NlbAo/oZGYt06pEmzoPOB2rrnMN5dnSUStyxJVrEaLm9qsaavnll19u6wTqlyKHeF9lOdK0XmIOxs8++yx5vuXz0f/Lq0P6ytO2YhqiT+qPDqQRP4vcUsUz6hDaJixC8vOf//wFMZ8PFdRRTeuZquuxwu8y92NR3nhMAhKQQFMCimdNiXm9BCQggR0EGN6EZUhVQ7DpOTqvP/nJTxTPfmTnsq/OaB1/Q0xjSA4rwiKENRXTsJqrE1aTaxDjioZNhZDd9Hmbw/WI88wpFHOSZaslLNdSifewoJOMpWBq0bNJHnutdV9VGagrpvVR/xAvhq8W1YVLFs+ingwxn/cBjvqnSvyP+5ps4yNitp5zXwISkMDQBBTPhiZueBKQwOIJFM1X1KSRWHQtVjMhXFR1IDxnB3PIMhBlsq6YRucy1XDNbDrpuBYNm1qyeEY9QYeS4eFYfoR4yBDWosm+i+qVJsfI6z4sdrL56L71V6oyUCamnTlzJrl4T5wJj+cp79YgnpHuEPP5qAKPJnVL3Wvxt0igzDP3vwQkIIG+CCie9UVWfyUggdUSYK6hPr66Mq9Kqo6F/thJ7aMM7BLTEHaYaLqPsLEoybuli2fR6WROJZhi9YqIeOvWreSd13/8x3/cWtf0kXf6aX3UdxlgcRHCiG3q8KjXwvIqWw+tRTyjLkLMP3Xq1HaKiaibUm6ZvkLxLFu63JeABIYmoHg2NHHDk4AEFk+ARnnKBmP41deqZqk7EfpnRzjKQF5Me/jw4XaurjifcotFSd6tRTyjjsDyg0m1mZ+ujwnK/+t//a+9CQ8py4F+Wf9EGWAVTOogRBfqB1bZfOONN3oR7xXP/rhdXZw6iCkmot2Scqt4ln/D+V8CEhiagOLZ0MQNTwISWDSBPjvrIUREx8CtncS5lIFXX31122GlMxv7qeN++vTpl+qWPp/HlJ3CVH5hdYZlTR/i2X/7b/9N8cw5F3sRnlLVBUViGc9W1loJcTlVeFl/GNIcQ6ezFdEaLM9i+Dgrg8MAkYtjqeo1/ME//NVJQAISGJOA4tmY9A1bAhJYJAEa1CkbjeFXX8Pdsh0A9xXkUpQBOrFMLo/ge/HixQ0WZ5Tjf/u3f+tt2ObaxbNvvvlmw5DxGzdu9CKeaXlm3ZCibkjpRx2xLN/IwPosZRzCL+KSFeki3KWLZwj2LFzCCr+RfubA5Hi0XVJsmff1ww8/DKxuJSABCYxCQPFsFOwGKgEJLJlAHytNMYeaq23aeY2O2tS2WbEMy44Qy6IzFc87//safnzz5s0I5vmW8LBWSNF5m6ofeasP5l1Kvdovaf+Hf/iHDfk8tbJnfNZTL8aKrzzTMQyTspmvZ55XAAU7zLvYx/yhRXMuEvxSxTPqnc8//3wr2OfnemMF4GvXriWtd1lxHIFOJwEJSGBMAopnY9I3bAlIYJEE+mgs89X18OHDdlwdNjWJMpAXy7DmqNuJjVXwUooeWGUyWX7eLV08w7qDlTW/++675wJCX2nGirAv4TNlWdCv5YhpIZZR7tqKZfk6gf/Hjx9PWo9Sp+UFpAiX9gDCPnMSzulXtehRXrCPtMY26qAqP5p8jCA8rGqLhsVGmG4l0JZALLTT9v6m9/Hejl/Te71+fAKKZ+PngTGQgAQWRoBGIZMSN2kc7rr2woULWwsaO4bL6RjOKS+7iGX5x7uPYVMIO0Udq+jE7Xq+5nY+rD6wci3qtL/99tubBw8eJKuDEO8ZFouAwdafDCgDiFAMz05Vl/UlluXrIJ6ZlFaUWNuWOYRthjHO6Ue98s477xTWH3T6GaaZFeyL0v7FF18ks4Bl9WBESN36CPBe5z3ep/vss8+2dVhRGyJ1uFi+ZuvLIcJMnYa1+6d4tvYSYPolIIFeCND4pJGZolOOP/j3t3/7txsmJaaz4k8GlIE+hh/RsEspluUfMBrCKeNNXIuGbBJuiGcMIZrTjyFKWKkU1R8cv3z58rZjWtap4Et6Wee3yM9dx5i3rsiyL5+3/l8XAcpNl4VshhLLinKF+iDbiW27zxBSOsRLcqQHi9ZsvRCC/c9+9rNCwT6ffuomRHyE96w/TfdZ/AThsayuy4fr/+UQIM95Lnnf9enu37+/OXXqVOEHuNThMqQ5W9fQvtfNi4Di2bzyy9hKQAIzIUADkSXbmzYU89fTYKURS8eVr+Vs/ckgygCWQNmGWNv9EMvoCGJF0WQYZptH8vbt21shuG18s/eVWZ0RLxrfwWpO25///OeFnc6s1ccu7mV+5OuYXf9ZiODSpUt2XncBX+F5yk4T8WxMsSyfPdQNXetP6kvqlaW5vHiGYP/uu+9WCvZFDMLKpu2HRKxn+XC4NHGyiJXHXiYwlHj2csj9HUGko/0SIhr1p25eBBTP5pVfxlYCEpgRAYYtMNxyV+e07DzCGV/HHa4wo0wfOKoIXVkhqe4+YhmNti4Tb3dJaoqOK2k9duzYIjuv169ff0E8C6sPLDCoL+o4hoPAqMyCrazeyR7nXuYasvNah/j6rqGs7BLPsJBtM2fZEBYZ1EOIQtSHdetOrsMCnHT/7ne/W2SmZ8UzBKwYptkmsfjFnJRYB2frlqr9qO8QzrhOt04CdcUzruPjMtus4z/lL8pa/nz22l37WX92XVt2Hj+oP2KYdwhpDt0sIzbN44pn08wXYyUBCSyEAKvetRHQQjjj/i4v/IVgNBklBOqKZ2OLZUXRp1z/9Kc/bdRpzXZwSRMWckt0WfEsrD5u3LjRuC6g0wCzNkOnwsqtaE61JTI3Tc0JUL7y4lleLMMyq+k7jOvxdygXViDZ+qVsn/QxjJmO8FIdacNyntU0Eey7ppX8vHPnzlaE+/LLLze0b0LQyG45/tVXX23Dtu0zfOkin3gWpuAoJ/lnkGO4EKGIK++nqIOy7yqGYsbxrD/hRzaNRXOeMVSU+2ES57P+ZMPK+lW1H/VMMCaO+FkUpyp/PDcuAcWzcfkbugQksAICvCBZKbPuBN50Wmm4YnHGi1sngTICZeLZFMWyojRQvumINpkDDSsWLM6WavUBpxDP/uVf/mVr+cXk3G0dHQ3mHqIjXGf1u7D6qDu3Udt4ed/8CYQ4m7UsayOW5UlQLwwpnhE+1h90arEqIz2soInFFGIZW+JDXUWal+5CnEDwStkGwV8s8hEMsGa7cuXKdj4rPjAyPQWW0ITJdbrhCfAMYA01BYc4FeIScWI/hkhH+UR04rnkPAJXPJshUnGOfdrUbMPSKy9WhTiWtQAL8YxztLO4nzhxb4ho2et3MeM5ivDjvqg/h67rdsXV89UEFM+q+XhWAhKQQBICvOyZg4gGI8MXeJnTkaWjyo//fHFlCMlHH320fUknCVhPFk0gxLO5iGVlmUH5RxCjERkN0/yWDi3n6cBG47PMv7kfRzzDKi+F1UewiA4FFh1Mwo1FW9Q/7GOdxjBxhmnuWkkv/HS7bgI8hynEsjzFocSzMmGIdNFRjh/v77JrifvS6qPI13y+tPlfxibLGBFhbYzbsOz7HvIEgWcqjmeOdkB+wYAQzziHqJZ/NkOk4rqsC//yYlWZeIb/+JX3P64PMS8bRtk+dUlRWiKunNfNg4Di2TzyyVhKQAILIUAjkU7shx9+uJ0Ily+t/JiQG0uz/Mt+Ick2GT0R+OCDD7aTXvc9wX9P0X/JWxqQNIYRjbAAYYJxLECwUHj48OFqno9PP/20N8tThEqGgDKfUNQ/77333tbajXP5jsJLmeQBCfRMgDKY7+CmDpIwqFco810c/mCZ1qQj3SW8Od2LGIMVfdd2TQgPYVk0JwZziuvcxDPqiKL3Fc902fOIWJWvW0IMI/3hEOwQu4r8wf+yc3F/fhth0P7PurCuy1vDZa9xf1oEFM+mlR/GRgISWBiBohdv0yTSOOAFq5PAkghQrlM8H3TMUvgzJbbZRnyXeME4RYcTvl07wF3S4b3rIkC5zXdwUxLA/08++WQ7JBORnv9t3ddff70dEo3V+NLqobZMuA+mp0+f3rz66qtbi/q2fuEPH1MQFxD7rYfaktx939zEs7xFWlkKKUOUmxCq8nVLCFvZ926IZ9lj4X9T8YzwCZNf3j/ezwhx+ThFWG6nR0DxbHp5YowkIIGFEOAFy1Cz/Jempsl79OjR9uX6q1/9qumtXi+ByRK4ffv2tlx37QwxzLnpV+DJQkkYMRrsWNb85Cc/6eQr/oSFWte86hQRb14Ngehs9pFg/GbqBOYyo95gvsW2H6fo+DIVQwx/VkD7S47BOLuKKdMKtB2WRvsHIQPWtKkU0Pp4Kv7i59zEM0SvIkf5Q8hmWgtEKZ7zEKhim72vb/EsLCcjHmVbxfdsrkx3X/FsunljzCQggRkT4CUYjXO+bOe/NtVNGvcxBxFzEjGpLsO5dBKYOwGGmTIkk0YkQ0/bOhqlzIFGp4pFOWx8/oUknQeEM8R7xIEuAj7DyVlswI5r21LqfU0JUH77ssRAtI93c3RiEXeavqOJI9MtZBcCYh7TtddD2bon+LI9fvx402KwzZNo/yCeKaA1RtjohqWIZyGGUYcgjPPuouxQNpsO2yyqF/CPMl23vRHxQcxDCM7/Yt6zMjGwUSZ6ce8EFM96R2wAEpDA2gjwks5+7aLz2nY+A1aeYiGBaDgioNGZ1UlgrgSYu4w5gqJjhbjcxiqBhjAdq2gYIzCvveNKmSjqvLYRB/CLeicsa9hXQJvrUzeveFOG+xDPEO3zwhn1EM8H1mhNHItqIFDHuzm2axbQiuqeqOdpB9UVGyIf8u2fYGw9FITSbpcgnoWVF0IV5THvhhbPYMozQH1WJMQRPyy645qiOOfT4P9xCSiejcvf0CUggYUR4CXIqoHRYMxuy16cZQhoBGQ7rtFwVEArI+bxqRP47W9/+4JwFs8Hk0o3dQznwSIqngu2CGgM62naSWsa9lSvp+HNXE4wCLZs6bg2FQdII5Y1rMyZZWzHdaq5v5x4UY5Ti2d50T77fLCPqFb3HU388hZR2WdkjQIaTMLaNc82/vOhpK4ra/8EZ+uhuiTrX0f5R1yaiqNMUXaw1Mq6EJuKLLUoF9xTZG0d9Uq+bgnLsOzzT5j4kz0WcYgw6rQz4tqiuIZ/bMP6rNyjGgUAACAASURBVI6f2fvcH56A4tnwzA1RAhJYKIEq4azpl21e8kyS++TJkxc6rtFwVEBbaCFacLLKhDMaqAzhbNJopEFL55W5huKZiO1aBTTqjOxcTnDN/4o6AmVFjkY/Q2KDa3bLOeceKiPn8a4EopPb1Z+4v6ruyT4jCM91XCwSkH0m8vtrEtDIryLRPsuW/T179tSq53e1f4K19VCd0lr/Gt4PcxfPspZn2ZRTpkIkG1I8CxGOeFW5WMwgLxRW3eO5cQgono3D3VAlIIGFEagSzqIB2eTLdnaS3Ggo5rfvvPOOQzgXVo6Wmhw6r1gdxLNQtG0ysT2LBHzzzTeFwg7PSQho7K/FFc3llOdcVxygo4E4Ruc0X+/EfzuuaylZw6eT8pfv4LaNRV3hjGeFOop3eZWj/BdZhMdzkd2uQUAjr3aJ9tl6qI71GUNiERGyLMv2rYeqSmuzc1MVzyg/TH0SH9iqLM8ojwzZ5B623EdZoj7hf1h4cTw+JoWoFv+hFqJX9ljQpMzhf8Qnjue3EU/CJl5VjnDiOSkKs+pezw1LQPFsWN6GJgEJLJBAHeEsXop1Oq+8OKuGhEQjEqsbBbQFFqiFJYmGZtlQ5ngu2NKp2tUYBQ1fcLGIKrI6i2eD7ZoEtOwCDFmm+X0E/F3iAIxjkYAsz6J9O64Le1gnkpxU4lkd0T7/jLBKZJXLLxJQ9Fxkjy1dQKsj2mcZ71rApG77J8vYeqiqxNY/B/spWZ4Rc9oExAkBKlbFpX5gWGaZNRfnEcei3CGaUUY4TrnhOP7F/Wzxj/PhCDd/LM7xDuXcrndpXFenXYPf+FnH34iH23EIKJ6Nw91QJSCBhRCgsfH666/vtKqJl3idL9tlk+RmG4uxHwJaNCoWgtVkLIQAjcaiCbrjechvd1kl0Lg9efJkpUVUPBts1yCg7ZrLKc941+qmcKtrWcO1dlwX8rBOKBk853RuuzjKZR3RPv98MMVCdKrz4ZctEpCtc4r2lyqg1RXtixjTdipyTdo/WdbWQ0U0mx2bonjWLAVeLYH+CSie9c/YECQggYUSaCqcRQOy6ss2jfYmHVcajwpoCy1gM08WZTk/cX08A2XbXVYJDGe+detWreE80bFCQCM8/i/NNRmSFswRKKtYYFlTNSQ2uGa3dlyXVrLGTU9X8aypaB/PRmyPHz/+EgDiVMciPPtcZPeXJqA1Fe2DLdt9+/YVLmDSpv2TZWw99FKxbXRA8awRLi9eKQHFs5VmvMmWgAS6EaAhfebMme0S99lGYZ19BIKiL9v4WbVIQLaRmN9XQOuWn96dlgDDFdpYffD8YPlRZJXAsbJFAvLPQ/7/EgW0NsJZ1E9lq5vS+SxbJCDPNP/fjmvaZ2jNvnURz3i3YrUWZb3Nlnd0fqhV3aHM+eci+38pAlqXuiebH9l6vkv7J8vYeqh9zaF41p6dd66HgOLZevLalEpAAokI0Mijg8nX02xDsMl+0ZftJpPkZhuLsR8CGnMm6CQwFoEuwhnPEB1X5tHJu12LBMRzULZdkoDWZi6nbP3E6qZ5AZ96bdciAWVs4zirA7sKZ77k+r8pgbbiWde6J/uMZIeQU76bWoTHM5HfUg8dPnz4JXGuKaOxrk8lnME6Owds1/ZPlrMCWrvSoXjWjpt3rYuA4tm68tvUSkACHQnQqL9y5Uon4YxGI9Y12S/bYVVDwzrbCGy6r4DWMYO9vROBlJ3XrFUCQg/DnSnfTZ+J7PVLENDovLa16suKA/nVTVNY1sD63r17CmidniJvbiOepax7eE727Nnz/B3ddJGAbJ1TtD9XAa2raJ+tf9iPBUxStX+yrBXQmtcjimfNmXnH+ggonq0vz02xBCTQkkAq4SwakNkv220nyc02FmNfAa1lBntbJwIpO6+Iyzdv3tzGh+euySIB8RyUbecsoHWdyynqHrbUPyHgwyqVZQ1+IaAdOXJk52pknQqcNy+WQFPxLGXdk39G2i4SUFb/xHHqIaw04xmcemamEu2zfNnno0jK9k/wZauA1qxUKZ414+XV6ySgeLbOfDfVEpBAQwIhnDWdAD3fUMz+58s2QyyxqknZcaXRqIDWMIO9vBMBGt1YQyHIZMt4l/2wSmizSEC2A1W0P0cBjU52yvqHvAkBv80iAUVcs8cU0Do9Uqu+uYl41pdwxvPBEHJW00aEyZbtNvu8k6l3GNrMs/H5559v3nnnnVksZpJStM+/E2gH/af/9J86WxXDt4jxG2+8oZBfszZRPKsJystWTUDxbNXZb+IlIIE6BGjIMzcHnfl8w6/rf+Ye+vu///ttg7pNg7zqHgW0OrnrNV0J0OCmg5lSOIvninnO2i4SUPVscI4OMeGwP3VHHLtOgh5Ms1vEgV//+tetFwnYxfjLL7/cdlypQ3USqEugrnhG3cP8oa+88krydzPPCcLOp59+2lo4Y4EALKsQvfm99957m+vXr28YIk39gyiF+Ec6puqII+2UbL2Rcp/h4w8ePGjNmHv5+FjGmDoKxtZBu0uY4tluRl4hAcUzy4AEJCCBHQQYPtaHcEYDFMHhv/yX/9K64UjjnC/ZNCC/+uqrza1btzYXLlzYnD179nlj8uc///ksBIId2eDpCRKgQ9J21dk6HTA6Vggwu0SasvN5Sw86rjwbdLb4IcydP39+0p3XPi1ryAMEtC6WNXnG+fqHIbfkoU4CdQk0Ec+w3MaCm0VGWK0aIZ9yzTubfcp3nbqm6Bom9g+LJt61PCfZdy3v3rK6h+Pci6gzZ+GGdCCgwZi2UErGLLr0i1/8YsuwyGrs2rVrG7hXMSYPuG7OjOs+F31fp3jWN2H9XwIBxbMl5KJpkIAEeiNAozEa1Vh+pLauoYFP57OocUhjsuh49hgNRzqnzBkSX7M575fW3oqEHmcIfPbZZy90VFOLzFXDmes8HwyNQjyOZyNr6TGHzhZxxFolKwakZIywUGZZA986jLGswUIwGEf9M2VrmkwRdneCBCj3vG+7OMofwhoCfLzDm2xDdGPuPp65N998c8Pw5njXXr58efvBKvs+LtpHgJtDXdOGNYypU9uuPP7qq69uF0/ifnj/7Gc/21rmff3111uxjrp7l7CPuIZAqetOQPGsO0N9WD4BxbPl57EplIAEEhGgYRxfufNfYJs0yuNahkJ88MEHL8yBkrXa4LpdDUeEN8QznQTGJBAd1byFAmJzdEKj3Nfd0ullbiAE4pgjKPt80Ckt6qxmj2HxxJxpS3B5xtQdWIHAs23nlfvgizXNP/3TP20tVy9evPjccvWXv/zlTsbkCcx1EkhJIJXgVHdlWqzUwmqNuicvUjN1Q9bRFkBAy9Y3RftYuvIxa6mOtCEw7qrX4Xn69Onn1/FuyNZbDL3l/ZF1CPLU/UVc4xgCv+JZllr7fZ65U6dOtffAOyWwAgKKZyvIZJMoAQn0R4AObV1xIN8Y//GPf7ydS4SGOg3J3/zmN9tGYliN2XDsL9/0eRgCdIby5b6ok8XqmvnrmG8IgTmejxCS4/mgw7TLMgphiKGaS3YI+UVM88fyVrNh9QF3fnTys4yp22AcndSyLdZ93KeTwNQIUIbz9Ur+uYj/9+/ffx79EKop1wxXZGg3Q7yzIhjPA1aXZc9FHGdIYV4Ueh7QAnZIW75uCabZLcIkgmM4+OQ/RmJlm3WwZzqKYFm2XbJ1X5aH+xKQwPgEFM/GzwNjIAEJzJhAk6+uWMFk5w2JhiXDU+jI5r9sc22d+Z7o4Kb6Sj/jrDDqEyRA5zPKedWWDm50VLGoCgsFjoc1SL4DitUV95R1qDjOeYZaLdlduXKlFmM4UqcgEsDuP/7H/7i9D8axGAGiQTjqFPKsii/nlmTdF2l3uwwCdd/PWE7l65ddBHg+FJc32zoWDlX1O+eoZ7L1yy6+nNe6rw4lr5GABIYkoHg2JG3DkoAEFkeABjeNwl0Nx/xX1ywIOqDxBTYrgnHs448/3tl5XfqwkCwr9+dFoK5VFM9PkQsLEJ4zhLCs++KLL3au0raGIT0hLu6qg7CeKXJZxtRFWYeooHVfloj7cyJQ9/2MeMz7tqnjmVu7uNy1jq9iDlut+6oIeU4CEhiaQHFrdehYGJ4EJCCBmRKgQ5+dt6OsA9v2qyvzD+1qnDvn0EwLzwqijdVX2TORPY6lWVNXZ1gzzw7hLNllOVbtM/ypqfvwww+17msKzesnQ4D3c9UzEeewnGpqFUUimW+0zmqQSx46XtfytU0dr3XfZB4lIyIBCfw/AstuUZrNEpCABHom0OdXVxuOPWee3vdOoK5VFB2wpg6rkqtXr+4Ul1klr03HuGl8xrieYWl1LF8R+Bmy2dRh3eeE3U2pef1UCNR9PzPnYhvHxwEEuqoPXCzqk5/Lq01YU72nbh1fZvm6K10InLusXx06voui5yUggVQEFM9SkdQfCUhglQT6tKxBPKPhWNUw55wNx1UWvVkkOiw7dm3bWEXVnQ8nrDdnAaxhJHn+63ReGX7ZZlia1n0NM8TLJ0Wgz/czCa3zfCx96Piuuj3Ot6njYYx1HwJkVTtoDQvDTOrBMjISWDEBxbMVZ75Jl4AEuhOo03Gl8dj2q6tzDnXPI30Yh0DdybqxnMKKrKnDmuzEiROVnSo6XEteDRKrlzqWZ6yG18b6Tuu+pqXS66dEoO77Ob9YT900rH1RnyaWr9RVbZzWfW2oeY8EJNAXAcWzvsjqrwQksAoC8VV117btV9e6cw4teVjIKgrSAhOJcBWrOFY9H22touoOa8Yys82QxTlkCemqYhvn2s7ppHXfHEqBcSwiEJbb8QxUbdu+n3k+1ryoT991PPmqdV9R6faYBCQwFgHFs7HIG64EJDB7An1b1gDIOYdmX0xWmwAsDRBtqjqtnGuzmEZAxf9d8+EwpOfTTz+NWxa1rTtZNxY4bZzWfW2oec8UCAzxfkY84xmsGlLIuaUu6lO3jm9r+Uo5Wrt13xSeJeMgAQn8lYDi2V9ZuCcBCUigEYGpfHUlHogQfGnXSWAqBOpO1k3ZbevOnTtXaz6ca9eutQ1i0vcdP358pzgJ3zYr3ZFwrfsmnf1GroIAwhZWrZT/ql9by9cmz8dSh47fvXu3km1wb2v5CuO1W/dVFHFPSUACIxBo32IdIbIGKQEJSGBKBOp+de1iWeOcQ1PKcePShEDfVlHE5aOPPtq52t2SJ+w+duxYrc4rQmZbV9e678aNG22D8D4JJCcwxPu5ibj86NGj5Gkc28Mh6vi1W/eNnceGLwEJvEhA8exFHv6TgAQkUJvA7du3a3Vc+fraZrJuIkLD8fLlyzuHhSx5RcHaGeKFkyJQd7JurMfaujXPh0OdUmexAOqf+/fvt0W8Wbt1X2tw3jgqgSEsX0lgXXH5+vXro/LoI/C6lq9d6vi6AuVSrfv6yDf9lIAE2hNQPGvPzjslIIGVExjiq6tzDq28kM04+TFkZ9e2i1UU8+Ew2feuOYcOHz68uGHNQ8zpRPFbu3XfjB/BVUd9iPczgOuIy1jBsWrk0twQlq91xTMWhlmidd/SyozpkcDcCSiezT0Hjb8EJDAagSEsa5o0HJe6ouBoGWzArQkMZRVV1zLz7NmzG8SmJTmGdNexPKOeglNbt2brvrbMvG98AkO8n0nlnTt3Ng8ePKgU8Jc4dHyoOh7Ga7buG/9JMgYSkECWgOJZlob7EpCABBoQOHDgQK1hm10sa4hO3Yajcw41yDwv7ZUAlmB1Oq9dJusmAQhi7777bmXHlbiwYABi05Ic1iy7rPo4T/1BR7etW7N1X1tm3jc+gTrPBtd0fT/XEZdjUZ/xqaSLQV3LV+r4rnUv1n3Ud1UWxku17kuXY/okAQmkIKB4loKifkhAAqsjMORX1zrDQp48ebIVCFaXESZ4kgTqWkVhOUWHqK2ra5m5xPlwhprTac3WfW3LpfeNS6Du+3n//v2brhbbiDZXr16tFHao4958881OIva4RF8OvW4df/To0U51PCGv1brvZeoekYAExiageDZ2Dhi+BCQwSwI0hoewrAGOcw7NsoisOtJDWUUBuY5lJvPhfPHFF4vKE+ZQqmNdc/r06U7pXrN1Xydw3jwagSHfz3XF5aUt6jNkHb9W677RHiADloAESgkonpWi8YQEJCCBcgJDfnWt03Bc4pwq5fQ9M3UCQ03WDYeTJ09unj59Wmn5gWXm0la7qyPeI66RF13cmq37unDz3vEI1H0/Hzx4sPNciFi5nThxorL+QcxbmvVrXctXprfo6sjPNVr3deXm/RKQQHoCimfpmeqjBCSwAgJDfnV1zqEVFKiFJfH8+fODWEWBDQssnkc6qGW/Z8+ebd5+++1FUa5jdcY1rEba1dWx7rt3797irPu6cvP+cQjwzqzzfHSdD5DU1RWXeQ67DhEdh2ZxqENZvhL6Wq37isl7VAISGJOA4tmY9A1bAhKYLYG6ljV82e7q6jYcl7iiYFd23j8OgWPHjtXqvHadrJvUrdEys+5k3cwph9VGV1d33sWlWfd15eb94xCo+37GejOFqyMusyLnp59+miK4SfhRt47/5JNPOsd3rdZ9ncHpgQQkkJyA4llypHooAQmsgcCQljXOObSGErWcNNLR2bt3by3x7P79+50TjjUHc5qVWZ3FcTq4WIkswSGoI4ztsq7pupppsKpr3ccQWp0ExiZw5syZnc8Gz07X+QAjnXXFZVb9XYKjHt1V98T5FJavda37eA8sybpvCWXFNEhgaQQUz5aWo6ZHAhIYhEDdr64pLGvqNhyXNqfKIBlpIMkJDG0VhZD08ccf7xTPlmSZyTBVxMDooJZtEdgQM7u6NVr3dWXm/d0IdLGYHPL9TCrXtqjP0HU8jNdo3dftCfJuCUigDwKKZ31Q1U8JSGDRBBCz9u3bt7PjSoc2xVdXYNZpODrn0KKL3WwSV3eyboZMIXx1dfgRK9mFlVnR9sKFC1uBrWt4U7i/7mTd1EEp3Bqt+1Jw0492BHjHHj16tNXNiMV1rDJ5NlJYvhLJtYnL1LlYtZaJ9nE8leUrjNdm3deq8He8ieeODzM6CUignECaVlW5/56RgAQksDgCY3x1rdtwdM6hxRW32SVoaKuoNVpmDj2n0xqt+2b34C0owl3EszHez4jLfCgrEu2zxw4fPryIoeND1/EU7bVZ943xOCM8nzp1aoygDVMCsyGgeDabrDKiEpDAVAhgWcNCAPF1tWybyrKGdDvn0FRy33jsIjC0VRQdbZ7BbCe1aJ/5cB49erQr+rM4T91SVu9kjyO6p3DwXJt1Xwpu+tGOQBfxbGjLV1KIuHz58uWdddBSho4PXcfDeG3Wfe2enG53KZ514+fd6yCgeLaOfDaVEpBAQgJjfHW14ZgwA/WqVwIIvVkBp2w/1WTdJIbhQX/4wx8qO69PnjzZLMUys4xp/niKORfhu0brvl4fEj2vJNBFPOP9nH8Oiv6nmg+QhCAuv/vuu5X1D9ewYECXudwqoQ14cmjLV5K2Nuu+AbPzeVCKZ89RuCOBUgKKZ6VoPCEBCUigmMAYX12dc6g4Lzw6PQJ1raJYsTaV+/DDD7dztRRZnMUxOtXvvfdeqiBH82eMOZ1ILAJEsCzbLsm6b7QMNuCtWNt2zrMx3s9rE5fr1vGpLF95JNZm3TdGNaB4NgZ1w5wbAcWzueWY8ZWABEYnMIZljXMOjZ7tRqAmgSIrj6JjqRbTIFpffPHFhgUzykQdjmOZxsIbc3ekpU7nNeVk3TDDv2fPnlUyXpJ139zLyZzj38XybIz3M6yp43ZZvy5FXC6qz4uOpazjmctuTdZ9Yzy/imdjUDfMuRFQPJtbjhlfCUhgdAJ1Oq40JFNa1tBhds6h0bPeCOwgUHey7r179yYdvlRnWDPPEM8lHfM5u7pzOjEsjfxI5dZk3ZeKmf60I9BFPKv7fuZ9mtKdPHly8/Tp08WLy3UtX1mRHIv5VG5t1n2puDXxR/GsCS2vXSsBxbO15rzploAEWhMo+sJadCzlV1cbjq2zyxsHJIBAxXCroucheyy1VRSC0tWrVys7rsTtzTff3NBBmLOrO6cTVnYp07om6745l48lxL2LeJatZ6r2U76fYV5nUR/EtbfffnvWWUQ9WkegTF3HA406rY51Hx9TdM0JKJ41Z+Yd6yOgeLa+PDfFEpBABwJYchw7dmynOIBlDZ3clI6OAA3Xqt9ShoWk5KZfwxGgzNPBqeq0ci7lZN2kru58OGG9ORyR9CGNMVk3qViTdV/6XNPHJgTaimd1LV+pf1JP3F/n+VjC0HHqePjtquNZkTyl5SvlZy3WfU2elZTXKp6lpKlfSyWgeLbUnDVdEpBALwQQrsawrCExzjnUS5bqaUICt2/f3tmpik5XSqso/Dpx4kSlsMyz+/nnnycXtRPiq+UVw8GDYdU25WqmRGxN1n21MsKLeiPQVjwb8/28lkV9SGdVvRPnUlu+UtjWYt3X24O1w2PFsx2APC0B5reUggQkIAEJ1CcwlmUNMXTOofr55JXjEBjLKqrusGYsM1POwzMG5TqWr3RgWXUwpVuTdV9KbvrVnEBb8WzM9/NaFvUZq46nFK3Fuq/5E5PmDsWzNBz1ZdkEFM+Wnb+mTgISSEzg7t27o311dc6hxJmpd8kJ1JkLB2Hn3LlzycOuMx8Oq0HeuHEjedhDeUjnhiHhYd1Rtb1//37SaK3Jui8pOD1rTKCteNbE8rVxpHbcgHiGsFQ1rQLnLly4sL1mh3eTPX3mzJla9U9qy1eArMW6b6zMVzwbi7zhzomA4tmccsu4SkACoxOY+ldXGud0qOl86CQwNIGxrKJIJ4JcndXurl27NjSWZOGNOafTmqz7kmWYHrUi0FY8G/P9XPf5mPvQ8THr+LVY97V6aBLcpHiWAKJeLJ6A4tnis9gESkACKQkcP3681lfXPixrmsw5lHqi3pQM9WuZBGh415lIGnE3tVUURD/++OPtfGZVlh9zn7CbOqAOYywA6Wimdmuw7kvNTP+aE2grno1p+VpXPJvzoj5j1/HUabHoS1U9P3frvuZPTJo7FM/ScNSXZRNQPFt2/po6CUggMYGxv7pevnx557CQaFwmTrreSaCSAJ2ZOp1XFr7oQ9hZw3w4zOm0b9++nQI+AhsdodRuDdZ9qZnpX3MCbcWzqmHM2XOp5wOMFNYVl69fvx63zGo7puUroOoKlHO37hurUCiejUXecOdEQPFsTrllXCUggVEJjP3VlfDXsqLgqBlt4K0I1LWKYrVahLbUjvlwvvrqq53i8uHDh2c7rJlOf1YEqNpPzRf/sO5j3rgqq4+5W/f1wU0/mxFoI56N/X4mhYjLCNxVzwfnWTVyjq5uHd+X5Svlgjqvii/n5mzdN2a5UDwbk75hz4WA4tlccsp4SkACoxOgUYbVzP/X3t3syHHV7wMPLyEkEGEhiIKDg7OyhYgIOAukkBA2EREEe8XCElHEzgIk78IqMkLKDnnFKgsvs8yCC8gl+BLCHeQS5q9n/r9japp+Od1zTnVV9aekUc9015yu+pyq6qqnv1W17YA1r2Wc7GS2Hmq/dV3CHQVb22mvv0AOCnetG3k91RnZSW89pJqtpjLz5s2bZ3M9rTkH3TXGPS7Wnf46heq+1sul9vYXOCQ8y+fzMStfM5e5qc+HH364NdyZc7hcu43vVfka46VX9+2/trT7D+FZO0stLVdAeLbcvjVnBAg0Fqj91rVXZU1mp3bHcc53FGzcbZobSaD2Yt3PPfdclylKIHbjxo2tB645wM4NA3qE211maqXRmnAg4dprr7228p9t/jyF6r42Ulq5jMAh4Vnt53OCnWwHegw14XLeO+voHIdjV77G7I033lh0dd8xlwvh2TH1vfdcBOa59Z6LrukkQGBRArXfuvaqrAlm7TWH5npayKIWmBObmQQ2x6yKqq3MnPP1cGp8M05OX+0x7FPd1yug6DFf2pyWwCHh2RQ+nxPgvfvuuzsD/KtXr3apvu3di8eufM38Lb26r3cfbmtfeLZNx2sE/r+A8MySQIAAgUqB3//+91XhwLPPPlvZ4v6juebQ/mb+YxyBY95Mo8xhTWVmTqvKAdjchmNfrDtetdV9CRDmWt03t+ViidN7SHh27MrX9ENtuDzXm/rUVr5m/noNS6/u6+VW067wrEbJOKcuIDw79SXA/BMgUC1w7MqaTGjNjuOcr6lS3RlGnJRADnZr7gLZsyoqILWVmXO8210quXJK+K7qs153M43vKVT3TWrFOtGJOSQ8m8Lnc8KHJd/UZ9e2p7zeq/I1q8PSq/uOucoLz46p773nIiA8m0tPmU4CBI4uUFtZ884773SbVtcc6kar4UsITKEqKpOf04py+laCpk0/n3766dm1a9cuMbfH+dfMVyrrygHqpseeF+vOnC+5uu84PetdVwUOCc9qP59z3a5eQ224PMeb+kxlG7/06r5ey2ZNu8KzGiXjnLqA8OzUlwDzT4BAlUB2ijcdrK4+3/Nb19odx9xR0DWHqrrWSA0EUg2QGwGsrgurf+e0nyzDvYYlV2bevXt3p2/xzvaq17Dk6r5eZtrdXyAH8rVDlvfaytd79+7VNnvQeLXh8u3btw9q/1j/NIXK18z70qv7jtW/xfb69evHnATvTWDyAsKzyXeRCSRAYAoCU/nW1TWHprA0mIZVgalURaUyM1Udm6rOyvM5wO0ZMK36tPi79ppOCSh7Dkuu7uvppu1+AlP5fM4c1obLuevvnIapbOOz3c72u2zLNz3OsbpvTsuDaSVwqgLCs1PtefNNgMBeAqmWqams6Xm9oUxw7Y7jnO8ouFfHGHkSAjkVqlQ97XrsOcFZT3NTjU0HVOX5VGbmgHtOQ+3FunPw3nNYcnVfTzdt9xNI5WtOV9617eld+Zo5fPPNN3eeOj7H65JOZRsf45rqvn/84x9n7733Xr+FTssECJykgPDsJLvdTBMgsK/AVL51zXTX7DjO9Y6C+/aLREnDVwAAIABJREFU8achUFsV9corr3Sd4IRj5U52JShb93jr1q3Zndacu/juCgfyes9rOqXzllzd13Xh1Hg3gSl9Pi81XK7dxveufM1CtNTqvm4riIYJEGgmIDxrRqkhAgSWLDClb11rdxzneEfBJS9DS5632qqo3BGv57DUysxc56emsibh2f3793sSn1+zbqnVfV3hNN5NYEqfz0u9qU/tNr535WsWoqVW93VbQTRMgEAzAeFZM0oNESCwZIEpfevqmkNLXtLmOW81FVEZp+fNNIpc3mddtdnwuVwP56OPPir/MvnHTHvNwWvv08YDlWlZanXf5BcEE7hWIJ+JNdug3pWvmbh9buozp1PHa3wzTu/K1xgvtbpv7cLtSQIEJiUgPJtUd5gYAgSmKlBz4JodxzG+dbXjONWl5DSnKweA3/3ud3cevH7jG984vxZQb6UESJ9++unWAC3Xw5lTZWbtNZ2uXLnS/XTUpVb39V4utd9PoPbzuXfla+Yw28MbN25s3f4kgM4NA7Jez2GYUuVrvJZa3TeHZcE0Ejh1AeHZqS8B5p8AgSqB2m9dx6iscc2hqi4z0kgCORBMaLNrHRmjKiqz/MYbb+y8YPcnn3xy9uqrr44kdPm3yTWddvnm9VwPMQe6vYe8V/p928/cqvt6m2m/n0DNupFxxvh8XmK4nPW8JqAcaxu/1Oq+fmuIlgkQaCUgPGslqR0CBBYrUPut6zPPPHP+jWhviCXfUbC3nfbbC0zpYt2Zu/fff//sz3/+89ZgZ253u6s9bTx3BB5jWGJ13xhu3qO9QCq9sjzuCtDGqnzNHGZaso3ZFS5nWzWHobbyNddlzDz3HpZY3dfbTPsECLQREJ61cdQKAQILFpjat66ZHtccWvACN7NZu3fv3s4D1xxMjlUVVXNac9ahTFOqROYw5HSzXeFAXh/jmk7xWmJ13xyWA9P4vwJZl6dU+ZopvHbt2lmqWzNtm37mdOr41Cpfl1jd979LtmcIEJiigPBsir1imggQmJRAdhxr7nSXqo98I9p7sOPYW1j7+wjUVkXltJ8xhlRJvPvuuxsPWsvB7NWrV0dZX1vMc8015RKejXGx7sxPTUA5t+q+Fv2kjfEFplb5GoGam/okXHv55ZfHBzvgHae2jc8s5MuYXdV9qUCeS3XfAd3iXwgQOIKA8OwI6N6SAIF5CeQaYzVVH2NV1kQv01NCgE2Prjk0r+VsrlP7wgsvVK0fY1VF1V4Pp1RvTt09YXlOCa/ZBo1xTad41YRn2S5lmziX6r6pLwemb73A3bt3q9aNrENjXA+wdv2YU7g8tcrXGOfmTEuq7lu/dHuWAIGpCQjPptYjpocAgckJTPFbV9ccmtxicrITNLWqqBwgv/TSSzvD5T/84Q+j3P3zsgtG7TWdUh071t37lljdd9l+8v/HEZji5/PSbuoztW18lrSa6r7cdTmn0BoIECDQSkB41kpSOwQILFYgFTM1VR9jVdYE2jWHFru4zWrGam+mkfXn/v37o8xb7WnNqczMQe7UhwRVOSV81zYop8Wm6m6MYWnVfWOYeY8+ArWVr6lUGmtY0k19sj3NzRZ2bX/G3ManH2uqX+dU3TfWsul9CBC4nIDw7HJ+/psAgRMQmOK3rnYcT2DBm8Es1lZFpVJyrKqosNVcDycX7H7vvfcmrzzFazotrbpv8guBCdwoMMXP54Rn5bTwTZdVyPO3bt06r5DdOHMTeKF2Gz9m5WtYllbdN4GuNgkECFQICM8qkIxCgMDpCkyxsia9UROeuebQ6S63Y815ArGam2nkbnhZHscaaq+Hk1N/pj7kJgA1VR8ZZ6xhadV9Y7l5n7YCU/18Xrd+5BTCXMB+GKbN4dTx2m38mJWvWYrWVfflC5F82TA0vnnz5mxuDNN27dAaAQI9BMbb0+ox9dokQIBAZ4GpfuuaHdrVOwquu/PUnO4o2LkrNd9BIAcqNcHOmDfTyGy+9dZbZx9++OGFg6jV9WMup/Qk4KsxHvO08Rivq+5bNZ5LdV+HVUOTIwgkJElos2v9SOVrwpaxhoRnmaZhiJNtUqZjGKDN4aY+U6x8TT/Gdljdl21PrnUZ92GANofqvrGWS+9DgMDlBYRnlzfUAgECCxaY8reub7/99oWd89xp72c/+9mF58rO5YK7yKwdUaC2KurZZ58ddSpXKzNzYJWDqGGgNpfwrCYcyAFj7og35rBa3ZfKmh/84AcX7oCX8GwO1X1junmvdgK1n89jV75mDofhctaDV1999fxun3ksAVqe/93vftcOpENLtdv4bIPGHFar+7L/k+1+QrVhgDaH6r4x3bwXAQKXExh3S3e5afXfBAgQGF2gtrImp67lFJKxhtVrDuWW7T/84Q/PK26GAZodx7F65DTfZ6pVUbkeTg6mSuXHX//617M333zzvPJjGKA9//zzZzkIm/KQA8Gan8zvmMNqdd9vf/vbs9u3b5+HBtkexX4uAeWYbt6rnUDt5/PYla+Zw4TLmb6sAzl1MOtDhmxvSoCW1/P7lIepbuOH1X1l/6dsy4cB2hyq+6bc/6aNAIGLAsKzix7+IkCAwAWBuXzrmgqzf/7zn+fTnoPaEqDN5Y6CF9D9MRuB2ot1v/POO6POU07RKpWZqYjK6Tw5BTuhc06dKgHa8KB21AmsfLNMc41x7oaXA/Exh2F1Xyporl27dh4M5MA1YUUOaBMcjF2RMqaB9zquwK9//euqYHnsyteovP/+++cVZgm1//KXv1yAKgFaPp+zrkx5mGrla8yyLc82Zrj/UyxLgJZ9uKlX95Vp9kiAwPQFhGfT7yNTSIDAEQWm+q1rSMppITkFJNNZvnXNayVAy0HtHO4oeMQu9tYHCpRv/qdYFZXQ6caNG+fVHqmI+uijj57M5TBAy3UDc+rXVIccAOaUs13GOYgc85pO8SrVfaWyZvj+wwBtDtV9U+1/07VdIKcq71o38vrY1wPMVCdc/s1vfnNeET78bC5zVAK0TN+UhxrfjDN25WvM3njjjfN9n+z/rBtKgDb16r510+45AgSmKTDtLfY0zUwVAQInJFD7rWu+AR97KKeFJETLTuLqkAAtp5Nu2rFcHd/fBPYRmOrNNDIPOTDNejGsiBrOWwnQXnzxxdErtobTsev3VJNlPnYdwI592nimu1T35aB5XWVHCdASnq3bPu2ad68T2CWwrirza1/72v+sL2NXvma6E8pnvS0V4evmJdupn/70p6Ne8mHddGx6bt02PlV8qXQdbpPy9zG+hEh136b9nzJP2fbkywUDAQIEWggIz1ooaoMAgcUKDHcQt/1+jG9dE47l4D/fcG8aMk52Lg0EWgskPMlBybb1Iq8doyoq85rlPnebHVZEDQ1KgJYDsKkO9+7d2+kb48xr5mfMIQfWCcZyrcX8vm7IgWum7xgH1uumx3PzEdi03pY5SPD0zDPPXFg/sh5keVzdJh3j8znTn8/fTOe2Ia+Pve5um57ha1l/h5WvCc5efvnls+eee+6C8bG28dn32bb/U+Yl87GrH8q4HgkQILBNQHi2TcdrBAictMC6b12zk7i645iqj2McHGanMQcLu3YKc+0nA4HWAuuqorJuZH0YHrweoyoq85pTddZVRA0dctCa6w5NdVh3TafVqo9Yp0J27CHbnbz38JTYddOQA9exr8e2bjo8Nx+BLFsJbbYNq5/P2c4ksMrzw3XkWJ/P2bZk2Z/zsLqNz3YmvtnfGe4HHWsbLxRru3RlvTvGvmzbudAagb4CwrO+vlonQGDGAtkRH37rmp3FXHw2p4AMw4Fjfeuaaw45KJ3xAjbzSV+9mUYOoD7++OML60ZZT44xq3fu3NlYETWcnl3h83DcsX9/4YUXLnhme5T1/umnn77wfE7hPsaQYL7Gr2acY0y/95ymQJaXXeFZPp+HAc4vfvGLJzOT6xyWbU8Cn4xr2F/g7t27Txzj+fe///1JI6vbpqlWzz2ZYL/sFEgfXr9+fed4RiBwygLCs1PuffNOgMBWgeG3rl/5ylfOcnHx7NRnB2P1m+1j7Dge4z23gnnxpASGVVFf/epXz4OzACTcGR7UHqMqKtOxhPVjeE2nBGYlBFgN8BNkHmNYgvEx3LzndoGa8CyfzzltM5/NCXa++c1vPlnn8//lM3qsqqhc26ycRtj68VgVbGUbX4wTmJUhFUo5jTP2Y23jU+Xa2jbt3b9//8myU+bvFB+zPReenWLPm+d9BIRn+2gZlwCBkxIolTXZcczP7du3n8z/6jeyT17wC4ETEcgBUw6csm7kIt0l2MmBa3ktrx+rKmru3ZADmRz4F+OEASWsymMJB/J6Dv4MBJYiUBOelc/nct2zPA5PwR5+Ro/hklPEM025+3XLn9xRNF9IHGPIdjxfjGQbk5+EZcPT+nJNyTw/1jY+l6lIH7f0TVuZj2MFlMfo103vKTzbJON5Av8VEJ7918JvBAgQuCCQb11LMJAdxE3fbI/1rWsu1Judx9Y/Oe3UjuOFrvdHhUDWiYRmX//6188PoG7cuPHkv3KAlfUl44xxse5ch6f1elHay/qRg/mxh6yTqTbLNiiOCcvWhQOZvuEBba/pzHsUk9aPv/rVr3pNtnZnKFATnuXUzLKNyfqRn9XP6Dz3yiuvjCKQ8Cx398162/In6/yxwrMf/ehH/3NThmH1Wb4wifFYla/Z7vz73/9u6pu+ev311+0D/V+1tsqzUTYX3mTGAsKzGXeeSSdAoK/A97///fNwoOyY55vt4U5ivtnOt7Jjfet67dq1s08//fR85zE7kK1+bt269aRqqK+o1pcikG+os14Mr72VcKdUn2U+c5CVcG2MA7+EZzdv3my2TgzXrRywHSM8S1iVYHJ4CuxqOJC/85MDwN5DpieBxdCmxe85/W6sbWhvI+23EagNz0plZvmMXg2Y//a3v50Nr4XWZurWt7K08Cx9kOCx2JbH1eqz+I5V+So8W7/stXpW5VkrSe0sWUB4tuTeNW8ECFxK4KWXXjqvtCg7jXlcPXjNc8NA7VJvuOOfS3jW8lvttJWLfg9Djx2T4WUC52FNqhKyPgzXj2H1WalKGGPZKuFZ63Uj7R0rPPvXv/715LTNYrwaDpRT03LQ03so4Vlr408++UR41rvzZtb+rvCsvF7Wi+Hj6mf0WDfVWVp4lu32MLgfGg+rz7LtGWMbn0VYeNZ3RRae9fXV+jIEhGfL6EdzQYBAY4H//Oc/Z6k8G+4w5vfV66qkqmasb12FZ407WXMHC6TiaLXqI+tHDraGB1Kvvvpq1R0vD56Q//vHJYZn9+7dO8spmavboNVwYNddCS9rW/5feFYkPPYWKOHYpvdJRdm67U/WldWAeVMbrZ9fWniWa62tbnvK36vVZ+mvMQbhWV9l4VlfX60vQ0B4tox+NBcECDQWyLfV6w5cs/O4evCaA/cxBuHZGMreo0Ygd3tcrTorB1bD6rOsG2NURS0tPMvB6PCmC8U2j6vhwDCsrOm7Q8cRnh0q5//2FdgWnpXXhuvE6u/Dz+h93/vQ8ZcUnm2rOivWw+qzQ832/T/h2b5i+40vPNvPy9inKSA8O81+N9cECGwRyM55dgzLTuLq42r12Zammr4kPGvKqbEDBXLa3qaqj6wrq9VnB77NXv+2tPAslTWbwvsYHyMcEJ7ttUga+RICJSBb10TWjYQoq5/Lw79XA+Z17bR+bknh2baqs+K8Wn3W2nNde8KzdSrtnhOetbPU0nIFhGfL7VtzRoDAgQLbqs7KjuMxDl6FZwd2qH9rKrCt6qysH8Pqs6ZvvqGxJYVnCQ42VZ0V32OEA8KzDQufp5sLbArPyvNlPdj2OPZn9FLCs5qqs+I+dvWZ8Kz5qnahQeHZBQ5/EFgrIDxby+JJAgROVSA759uqzspO4zGqz4Rnp7pUTme+d1WdlfVj7OqzJYVnu6rOivHY4YDwbDrr4dKnpIRkq/NZU3VW1o+xA+alhGc1VWfFeOzqM+HZ6hrR9m/hWVtPrS1TQHi2zH41VwQIHChQU3VWdhzHPngVnh3Yqf6tmUBN1VlZP8asPltKeJbQYFfVWfEdOxwQnjVbjTS0Q2BdeFaeK8t/zeOYn9FLCM/2qTor/mNWnwnPdqw4l3xZeHZJQP9+EgLCs5PoZjNJgECNQHbOa6rOyk7j2NVnwrOaXjROL4HaqrOyfoxZfbaU8Ky26qwYjxkOCM96rVnaXRUoQdnw+awb+cwty37N45gB8xLCs32qzor/mNVnwrPhGtH+d+FZe1MtLk9AeLa8PjVHBAgcKLBP1VnZcRzz4FV4dmDH+rcmAqk6y4FSWfZrHseqPltCeJbAoLbqrNiPGQ4Iz5qsRhqpEFgNz8rfZbnf53Gsz+i5h2eHVJ2Vfhir+kx4VrHyXGIU4dkl8PzryQgIz06mq80oAQLbBLJzvk/VWdlpHPPgVXi2rQe91lNg36qzsn6MVX22hPBs36qzYjxWOCA867mGaXsoUMKy8twhVWdl/RjrM3ru4dkhVWfFOF+qJHzrPQjP+goLz/r6an0ZAsKzZfSjuSBA4JICh1SdlR3HsQ5ehWeX7GT/frDAIVVnZf0Yo/ps7uFZwoJ9q86K71jhgPDs4NXHP+4pMAzPyu9leT/kcYzP6DmHZ5epOiv9MUb1mfBszxVpz9GFZ3uCGf0kBYRnJ9ntZpoAgaHAZQ5cs+M41sGr8GzYa34fS+DQqrNyUDVG9dncw7NDq86K8RjhgPBsrDXO+5TALBKXqTor68cYn9FzDs8uU3VWjMeoPhOe9d02CM/6+mp9GQLCs2X0o7kgQOASAh9//PHZd77znb2u5VR2GMvjGAevwrNLdLJ/PVjg9ddfv9S6kXWkd/XZnMOzy4b38U04cP/+/YP7uOYfhWc1SsZpIVDCs/JYPmcv89j7M3qu4Vmqzi67/1P6pXf1mfCsxdq1uQ3h2WYbrxAoAsKzIuGRAIGTFGhx4FoOXj/44IOuhsKzrrwaXyNw2aqzclDVu/pszuHZZavOinHvcEB4tmYF8VQXgRKatag6K+tH7+qzuYZnLarOinHv6jPhWZfV7UmjwrMnFH4hsFFAeLaRxgsECJyCQKsD1+w89j54FZ6dwhI5rXlsUXVWDqx6Vp/NNTxrFd7HOOHAgwcPui1AwrNutBpeEch6kWqoK1euXLrqtWx/en9GzzE8a1l1Vpx7Vp8Jz1ZWlMZ/Cs8ag2pukQLCs0V2q5kiQKBGoOWBazl47Vl9Jjyr6VXjtBJoVXVWDqp6Vp/NNTxrGd73DgeEZ63WLO3sEshnc76MeuaZZ5qGZz2rz+YYnrWsOivb+Z7VZ8KzXWvO5V4Xnl3Oz3+fhoDw7DT62VwSILBGoPWBa++DV+HZmk70VDeBllVn5cCqV/XZHMOz1uF9jHtWnwnPuq1qGl4RyLqREObb3/72efVZKtBa/XzrW986S0jQerh9+/bZ888/f3bz5s2mP1evXu1SUZqqs2wzWrmWdhJ6Zpp7DKlGbO2b9hLK5cuiUx+EZ6e+BJj/GgHhWY2ScQgQWJxAjwPX7Ig+/fTTZ72qzxKeffjhh2cPHz5s+nPr1q2z7EgbCBSBHEgkiCmhV6vHXtVnCc9ywNZ63Uh7ObDK9qL1kPA+4UAr29JOr9PHE579/Oc/b26cbdpPfvKT1rzam7FA1rdsg3r99AjPMs3ZDvX46TG9abOXb9rtMfSwLW322Mb3MOjdJofewtqfu4DwbO49aPoJEDhIIAeCL7744tn3vve95j8//vGPu3yz/f7775/98pe/7PLTa2f3oM7xT0cXuHv3bvP1oqxrd+7caT5/ORB86623uqwbb775ZpfwLOtyMWn5mGsOJfRrPWQbEYse26A//vGPrSdXewQIECBAgACBpgLCs6acGiNAgAABAgQIECBAgAABAgQIEFiSgPBsSb1pXggQIECAAAECBAgQIECAAAECBJoKCM+acmqMAAECBAgQIECAAAECBAgQIEBgSQLCsyX1pnkhQIAAAQIECBAgQIAAAQIECBBoKiA8a8qpMQIECBAgQIAAAQIECBAgQIAAgSUJCM+W1JvmhQABAgQIECBAgAABAgQIECBAoKmA8Kwpp8YIECBAgAABAgQIECBAgAABAgSWJCA8W1JvmhcCBAgQIECAAAECBAgQIECAAIGmAsKzppwaI0CAAAECBAgQIECAAAECBAgQWJKA8GxJvWleCBAgQIAAAQIECBAgQIAAAQIEmgoIz5pyaowAAQIECBAgQIAAAQIECBAgQGBJAsKzJfWmeSFAgAABAgQIECBAgAABAgQIEGgqIDxryqkxAgQIECBAgAABAgQIECBAgACBJQkIz5bUm+aFAAECBAgQIECAAAECBAgQIECgqYDwrCmnxggQIECAAAECBAgQIECAAAECBJYkIDxbUm+aFwIECBAgQIAAAQIECBAgQIAAgaYCwrOmnBojQIAAAQIECBAgQIAAAQIECBBYkoDwbEm9aV4IECBAgAABAgQIECBAgAABAgSaCgjPmnJqjAABAgQIECBAgAABAgQIECBAYEkCwrMl9aZ5IUCAAAECBAgQIDBzgc8++2zmc2DyCRAgQGBpAsKzpfWo+SFAgAABAgQIECAwU4Evv/zy7MqVKzOdepNNYJ4CWe+E1vPsO1M9noDwbDxr70SAAAECBAgQIECAwBaBHMQ/9dRTzX8eP3685V0Pf+nzzz9vPq1l/nuFGV988UW3aS7T3voxy0WP4dGjR90s4txjyHLR2jftXb9+vcfkapPAYgSEZ4vpSjNCgAABAgQIECBAgAABAgQIECDQWkB41lpUewQIECBAgAABAgQIECBAgAABAosREJ4tpivNCAECBAgQIECAAAECBAgQIECAQGsB4VlrUe0RIECAAAECBAgQIECAAAECBAgsRkB4tpiuNCMECBAgQIAAAQIECBAgQIAAAQKtBYRnrUW1R4AAAQIECBAgQIAAAQIECBAgsBgB4dliutKMECBAgAABAgQIECBAgAABAgQItBYQnrUW1R4BAgQIECBAgAABAgQIECBAgMBiBIRni+lKM0KAAAECBAgQIECAAAECBAgQINBaQHjWWlR7BAgQIECAAAECBAgQIECAAAECixEQni2mK80IAQIECBAgQIAAAQIECBAgQIBAawHhWWtR7REgQIAAAQIECBAgQIAAAQIECCxGQHi2mK40IwQIECBAgAABAgQIECBAgAABAq0FhGd7ij548OAsPwYCBAgQIECAAAECBAgQIECAwJIFHj9+fPbo0aMlz2LVvAnPqpj+O9L169fP8mMgQIAAAQIECBAgQIAAAQIECCxZ4LPPPjt76qmnzn/u3LlzskGa8GzPpVx4tieY0QkQIECAAAECBAgQIECAAIFZCgzDsxKi5fHUgjTh2Z6Lr/BsTzCjEyBAgAABAgQIECBAgAABArMU2BSenVqQJjzbc/EVnu0JZnQCBAgQIECAAAECBAgQIEBglgI14dkpBGnCsz0XX+HZnmBGJ0CAAAECBAgQIECAAAECBGYpsG94ttQgTXi25+Kb8OzFF188e/jwoR8GlgHLgGXAMmAZsAxYBiwDlgHLgGXAMmAZsAwsdhn405/+9OSGAcNgbN/f536NNOHZAeHZ1atXz+7fv++HgWXAMmAZsAxYBiwDlgHLgGXAMmAZsAxYBiwDi10G3nvvvSbh2dtvv3324MGDs8ePH++ZwkxjdOHZnv3gtM09wYxOgAABAgQIECBAgAABAgQIzFLgMqdtzj0wG3aY8GyoUfG78KwCySgECBAgQIAAAQIECBAgQIDA7AX2Dc+WFJgNO094NtSo+F14VoFkFAIECBAgQIAAAQIECBAgQGD2AjXh2VIDs2HnCc+GGhW/C88qkIxCgAABAgQIECBAgAABAgQIzF5gU3h2CoHZsPOEZ0ONit+FZxVIRiFAgAABAgQIECBAgAABAgRmLzAMz04tMBt2nvBsqFHx+wcffHCWW6waCBAgQIAAAQIECBAgQIAAAQJLFsjdMed8l8xWfSM8ayWpHQIECBAgQIAAAQIECBAgQIAAgcUJCM8W16VmiAABAgQIECBAgAABAgQIECBAoJWA8KyVpHYIECBAgAABAgQIECBAgAABAgQWJyA8W1yXmiECBAgQIECAAAECBAgQIECAAIFWAsKzVpJ7tvP555+fXbly5fzCe3v+q9EJECBAgAABAgQIECBAgAABAgRGEhCejQCdO3Q+fPjwwjslPHvqqafO7t+/f+F5fxAgQIAAAQIECBAgQIAAAQIECExHQHjWuS++/PLL85Ds7bffvvBOef7Ro0dnCdEMBAgQIECAAAECBAgQIECAAAEC0xQQnnXul03hWee31TwBAgQIECBAgAABAgQIECBAgEADAeFZA8RNTXz22Wfn1zTL6ZnXr18/P3WzVJp98cUX538/fvz4yb+X5/KY0O3BgwdnqVi7c+fOhWujpY08X17L+6wbSnVb/r+Mm2o3AwECBAgQIECAAAECBAgQIECAQJ2A8KzO6aCxcq2zBGfDnzyXYd01zxKCZdyEZgnbckOBPJb/TwCW1/J3eb28thqgJTjL+OX14eNrr712Hs4dNFP+iQABAgQIECBAgAABAgQIECBwQgLCs86dnSqyBFcJshJo5SfDtvAs4+dGAmXcVKeV8CuB2jAoKwFdqsuGQ/7O/+T10k6mpQRqeTQQIECAAAECBAgQIECAAAECBAhsFxCebfe59KsJrkp4NmxsW3iWyrDVoYReqTwbDqX9VKKVobS9GqiV10s1W8I0AwECBAgQIECAAAECBAgQIECAwGYB4dlmmyavlHBrtdKrBFypMCtDOW1z+Fx5rVSYDavOymsJ54bhWTm1c924+Z/y+sOHD0sTHgkQIECAAAECBAgQIECAAAECBNYICM/WoLR86pDwbLW6LNNTwrOEbqvDang2PGUzQdzqT3l93fustu1vAgQIECBAgAD96uXhAAAEB0lEQVQBAgQIECBAgMApCwjPOvf+McKzcopnro+27WddhVtnDs0TIECAAAECBAgQIECAAAECBGYlIDzr3F3HCM9KZVluNGAgQIAAAQIECBAgQIAAAQIECBA4XEB4drhd1X8eIzxLRVlO5Xz06NHaacy10HK9s0ybgQABAgQIECBAgAABAgQIECBAYLOA8GyzTZNXjhGe5S6aq9dBKzOT6cnNBXI6p7ttFhWPBAgQIECAAAECBAgQIECAAIH1AsKz9S7Nni3hWQmrSrXXtrttrruQ/z43DMjEl1M3X3vttfMKtJzCmYqz/J1gzfXOmnWxhggQIECAAAECBAgQIECAAIEFCwjPRujcVHolsMpPQrAMvcOzvEcJ3Mp7l8cEZyXEG2H2vQUBAgQIECBAgAABAgQIECBAYLYCwrMRui5BVa4xloqyVH+VIc+vhljrnts2fl7b9j+pOMu1z/LemQY3ESiaHgkQIECAAAECBAgQIECAAAECuwWEZ7uNjEGAAAECBAgQIECAAAECBAgQIHCiAsKzE+14s02AAAECBAgQIECAAAECBAgQILBbQHi228gYBAgQIECAAAECBAgQIECAAAECJyogPDvRjjfbBAgQIECAAAECBAgQIECAAAECuwWEZ7uNjEGAAAECBAgQIECAAAECBAgQIHCiAsKzE+14s02AAAECBAgQIECAAAECBAgQILBbQHi228gYBAgQIECAAAECBAgQIECAAAECJyogPDvRjjfbBAgQIECAAAECBAgQIECAAAECuwWEZ7uNjEGAAAECBAgQIECAAAECBAgQIHCiAsKzE+14s02AAAECBAgQIECAAAECBAgQILBbQHi228gYBAgQIECAAAECBAgQIECAAAECJyogPDvRjjfbBAgQIECAAAECBAgQIECAAAECuwWEZ7uNjEGAAAECBAgQIECAAAECBAgQIHCiAsKzE+14s02AAAECBAgQIECAAAECBAgQILBbQHi228gYBAgQIECAAAECBAgQIECAAAECJyogPDvRjjfbBAgQIECAAAECBAgQIECAAAECuwWEZ7uNjEGAAAECBAgQIECAAAECBAgQIHCiAsKzE+14s02AAAECBAgQIECAAAECBAgQILBbQHi228gYBAgQIECAAAECBAgQIECAAAECJyogPDvRjjfbBAgQIECAAAECBAgQIECAAAECuwWEZ7uNjEGAAAECBAgQIECAAAECBAgQIHCiAsKzE+14s02AAAECBAgQIECAAAECBAgQILBbQHi228gYBAgQIECAAAECBAgQIECAAAECJyogPDvRjjfbBAgQIECAAAECBAgQIECAAAECuwWEZ7uNjEGAAAECBAgQIECAAAECBAgQIHCiAv8PV6lgnByYYCoAAAAASUVORK5CYII=;" vertex="1" parent="1">
          <mxGeometry width="1007.51" height="550" as="geometry" />
        </mxCell>
      </root>
    </mxGraphModel>
  </diagram>
</mxfile>
